<?xml version="1.0" encoding="UTF-8"?>
<!DOCTYPE svg PUBLIC "-//W3C//DTD SVG 1.1//EN" "http://www.w3.org/Graphics/SVG/1.1/DTD/svg11.dtd">
<!-- Creator: CorelDRAW 2019 (64-Bit) -->
<svg xmlns="http://www.w3.org/2000/svg" xmlns:xlink="http://www.w3.org/1999/xlink" xmlns:xodm="http://www.corel.com/coreldraw/odm/2003" xml:space="preserve" width="400" height="60px" version="1.1" style="shape-rendering:geometricPrecision; text-rendering:geometricPrecision; image-rendering:optimizeQuality; fill-rule:evenodd; clip-rule:evenodd" viewBox="0 0 400 60">
 
 <g id="图层_x0020_1">
  
  <g id="_1940625712" fill="#07C160">
   <path class="fil0" d="M31.581 29.439c0,-3.344 3.671,-4.775 6.003,-2.641 1.917,1.754 1.143,6.003 -2.641,6.003 -1.749,0 -3.362,-1.644 -3.362,-3.362zm13.294 3.362c-5.124,0 -4.566,-7.029 -0.306,-7.029 4.8,0 4.582,7.029 0.306,7.029zm-19.405 -7.029c4.623,0 4.832,7.029 -0.153,7.029 -3.731,0 -4.355,-5.367 -1.319,-6.667 0.275,-0.118 1.174,-0.362 1.472,-0.362zm-9.168 2.139c0,3.597 0.008,6.01 1.628,9.373 0.618,1.285 2.359,4.284 3.414,4.99l-1.223 5.653c0,2.221 1.823,1.78 3.05,1.064 6.364,-3.719 2.96,-1.91 8.74,-1.087 7.849,1.117 15.303,-2.024 19.222,-8.54 4.528,-7.53 3.521,-17.341 -2.626,-23.488 -3.012,-3.012 -7.977,-5.384 -12.342,-5.384 -5.05,0 -7.831,0.572 -11.95,3.329 -4.422,2.96 -7.913,8.837 -7.913,14.09z"/>
   <path class="fil0" d="M8.967 21.646c-1.913,0 -2.66,0.385 -3.912,1.131 -6.339,3.777 -5.781,16.688 -0.019,20.984 2.351,1.753 4.256,1.667 7.05,0.715 2.688,-0.917 1.966,-3.111 1.529,-5.934 -0.181,-1.178 -0.35,-2.276 -0.497,-3.322 -0.314,-2.24 -0.633,-4.293 -0.971,-6.519 -0.272,-1.801 0.429,-4.831 0.925,-6.311 1.946,-5.81 4.897,-9.389 9.798,-12.664 9.366,-6.258 23.012,-3.773 29.776,4.607 1.242,1.539 1.569,1.899 2.572,3.693 1.447,2.588 2.926,6.837 2.935,9.885 0.002,0.668 -0.322,2.093 -0.418,2.775 -0.888,6.333 -0.743,8.458 -5.265,13.835l-2.4 2.337c-0.356,0.275 -0.558,0.494 -0.914,0.767 -0.589,0.451 -1.211,0.885 -1.901,1.308 -7.567,4.637 -11.482,2.739 -15.79,3.309 -3.835,0.507 -3.11,4.608 -2.387,5.829 0.289,0.489 1.213,1.164 1.892,1.164l8.251 0c0.661,0 1.431,-0.567 1.751,-1 0.578,-0.782 0.541,-1.098 0.541,-2.362 0.617,-0.296 1.769,-0.557 2.542,-0.82 3.988,-1.356 7.604,-3.772 10.561,-6.705 0.941,-0.933 2.513,-2.836 3.094,-3.935 1.926,0.161 5.903,2.918 9.811,-3.329 1.529,-2.446 1.962,-4.93 2.164,-7.905 0.323,-4.766 -2.126,-11.533 -8.46,-11.533 -0.681,-2.92 -2.764,-6.826 -4.632,-9.12 -0.439,-0.539 -0.854,-0.961 -1.263,-1.487 -0.681,-0.876 -1.266,-1.403 -2.074,-2.053 -2.936,-2.364 -3.817,-3.135 -7.668,-4.861 -6.119,-2.742 -14.744,-2.738 -20.88,-0.048 -2.329,1.02 -3.307,1.563 -5.322,2.929 -1.642,1.114 -1.332,1.044 -2.366,1.913 -2.765,2.325 -4.896,5.373 -6.525,8.601 -0.36,0.712 -1.456,3.268 -1.528,4.126z"/>
  </g>
  <path class="fil1" d="M96.301 18.74c-0.24,0.65 -0.449,1.2 -0.628,1.649 -0.179,0.454 -0.436,1.044 -0.772,1.777 -0.337,0.733 -0.642,1.327 -0.913,1.781 -0.275,0.449 -0.545,0.759 -0.82,0.93 -0.271,0.17 -0.559,0.261 -0.856,0.27 -0.257,0.018 -0.72,-0.087 -1.388,-0.314 -0.668,-0.227 -1.016,-0.668 -1.047,-1.323 -0.031,-0.654 0.035,-1.156 0.196,-1.497l1.611 -3.221c0.214,-0.428 0.336,-0.642 0.367,-0.646 0.03,-0.004 0.2,0.092 0.519,0.288 0.314,0.196 0.846,0.293 1.597,0.293l2.134 0.013zm1.38 -11.881l0.013 -3.937c0,-0.75 0.152,-1.313 0.449,-1.693 0.297,-0.38 1,-0.559 2.108,-0.546 0.707,0.018 1.187,0.066 1.432,0.144 0.249,0.074 0.445,0.188 0.589,0.336 0.144,0.149 0.227,0.306 0.245,0.467l0.1 0.782 5.639 0c1.244,0 2.004,0.017 2.27,0.056 0.27,0.04 0.519,0.171 0.755,0.398 0.236,0.227 0.375,0.589 0.423,1.091 0.048,0.506 0.031,0.912 -0.043,1.231 -0.105,0.406 -0.258,0.702 -0.468,0.881 -0.209,0.179 -0.506,0.293 -0.89,0.345l-2.479 -0.026 -4.591 0c-0.249,0 -0.402,0.004 -0.463,0.013 -0.057,0.009 -0.122,0.043 -0.197,0.101 -0.074,0.06 -0.109,0.209 -0.113,0.444 -0.004,0.232 0.026,0.38 0.087,0.441 0.066,0.057 0.192,0.088 0.38,0.088l4.753 0.052c1.27,0.018 2.052,0.179 2.344,0.484 0.288,0.306 0.436,0.69 0.445,1.153l0.026 5.613c0,0.742 -0.118,1.422 -0.353,2.038 -0.232,0.62 -0.873,0.925 -1.925,0.917l-11.147 -0.04c-1.751,0 -2.837,-0.026 -3.27,-0.083 -0.427,-0.056 -0.754,-0.2 -0.977,-0.427 -0.223,-0.232 -0.358,-0.459 -0.41,-0.681 -0.048,-0.218 -0.074,-0.843 -0.074,-1.864l0 -4.413c0,-0.982 0.187,-1.685 0.563,-2.117 0.375,-0.432 1.043,-0.65 2.007,-0.659l2.414 -0.013c0.131,0 0.218,-0.017 0.271,-0.056 0.052,-0.04 0.078,-0.21 0.087,-0.52zm-0.24 7.302l7.262 0.027c0.306,0.008 0.498,-0.031 0.568,-0.114 0.074,-0.087 0.117,-0.201 0.135,-0.345l-0.052 -0.868c-0.009,-0.018 -0.009,-0.048 0,-0.092l0.026 -0.781c0,-0.048 0,-0.105 0,-0.166 -0.009,-0.214 -0.048,-0.358 -0.114,-0.432 -0.07,-0.079 -0.183,-0.127 -0.344,-0.144 -0.018,0 -0.127,0.008 -0.323,0.026 -0.197,0.017 -0.45,0.017 -0.76,0 -0.31,-0.018 -0.995,-0.026 -2.051,-0.026l-3.234 0 -0.921 -0.022c-0.179,0.065 -0.284,0.144 -0.315,0.227 -0.03,0.087 -0.043,0.166 -0.043,0.244 -0.009,0.109 -0.009,0.223 0.004,0.341 0.013,0.113 0.018,0.192 0.013,0.235 -0.004,0.04 -0.03,0.284 -0.083,0.72 -0.052,0.441 -0.017,0.76 0.101,0.956l0.131 0.214zm2.618 4.671l0.694 0.034 0.293 3.121c0.052,0.607 0.065,1.104 0.044,1.497 -0.022,0.393 -0.184,0.777 -0.494,1.153 -0.305,0.375 -1.008,0.532 -2.108,0.471 -1.2,-0.053 -1.794,-0.559 -1.776,-1.524l0.026 -2.671 0.868 -2.047 2.453 -0.034zm1.869 0.034l3.95 0c-0.048,0.258 -0.066,0.402 -0.048,0.437l0.126 0.563 0.65 1.789c0.24,0.673 0.363,1.209 0.371,1.611 0.009,0.401 -0.148,0.79 -0.48,1.169 -0.327,0.38 -0.847,0.581 -1.562,0.603 -0.716,0.022 -1.284,-0.157 -1.698,-0.533 -0.41,-0.375 -0.677,-1.012 -0.799,-1.915l-0.51 -3.724zm9.514 -0.139l1.113 1.854c0.637,1.066 0.947,1.891 0.925,2.467 -0.021,0.58 -0.231,1.078 -0.624,1.483 -0.397,0.411 -0.859,0.642 -1.383,0.694 -0.524,0.049 -0.952,-0.048 -1.283,-0.296 -0.197,-0.136 -0.537,-0.598 -1.026,-1.379 -0.484,-0.786 -0.729,-1.183 -0.729,-1.192l-0.921 -1.763c-0.161,-0.258 -0.253,-0.441 -0.279,-0.55l-0.192 -0.908c-0.018,-0.026 -0.026,-0.057 -0.031,-0.092 -0.004,-0.03 0.075,-0.065 0.236,-0.1l0.794 0.026c0.066,0 0.201,-0.022 0.402,-0.065 0.201,-0.044 0.484,-0.083 0.855,-0.127 0.371,-0.043 0.733,-0.197 1.083,-0.467 0.349,-0.271 0.528,-0.402 0.541,-0.397 0.013,0.004 0.188,0.275 0.519,0.812z" fill="#8E8E93"/>
  <path id="1" class="fil1" d="M136.744 20.197l0 -2.684c0,-0.428 0.074,-0.829 0.222,-1.204 0.154,-0.371 0.341,-0.659 0.564,-0.856 0.227,-0.196 0.733,-0.292 1.514,-0.292 0.615,0.009 1.074,0.078 1.375,0.218 0.305,0.135 0.576,0.358 0.812,0.663 0.24,0.306 0.362,0.638 0.371,0.995l0.013 5.949c0,0.42 -0.061,0.83 -0.183,1.236 -0.127,0.401 -0.38,0.676 -0.764,0.816 -0.38,0.139 -0.86,0.209 -1.432,0.209l-16.354 0c-1.244,0 -1.977,-0.118 -2.204,-0.362 -0.227,-0.244 -0.371,-0.489 -0.428,-0.742 -0.061,-0.253 -0.087,-0.672 -0.078,-1.261l0.013 -5.395c0,-0.419 0.052,-0.764 0.161,-1.043 0.105,-0.275 0.341,-0.554 0.707,-0.829 0.367,-0.28 0.882,-0.406 1.537,-0.393 0.545,0.026 1.034,0.161 1.471,0.406 0.432,0.24 0.72,0.463 0.855,0.659 0.135,0.196 0.21,0.563 0.218,1.1l0.026 2.531c0,0.367 0.035,0.581 0.11,0.651 0.069,0.07 0.274,0.1 0.606,0.1l2.148 0c0.152,0 0.257,-0.018 0.305,-0.061 0.052,-0.044 0.079,-0.297 0.079,-0.755l-0.014 -4.858c-0.008,-0.341 -0.052,-0.555 -0.126,-0.642 -0.079,-0.083 -0.371,-0.126 -0.882,-0.126l-6.87 0c-0.715,0 -1.217,-0.14 -1.505,-0.415 -0.293,-0.279 -0.472,-0.812 -0.546,-1.606 -0.074,-0.794 0.057,-1.384 0.388,-1.776 0.428,-0.502 1.144,-0.756 2.152,-0.756l6.726 0c0.279,0 0.458,-0.021 0.528,-0.065 0.074,-0.039 0.118,-0.087 0.131,-0.14 0.009,-0.052 0.018,-0.174 0.018,-0.371l0 -0.523c-0.035,-0.092 -0.079,-0.162 -0.136,-0.197 -0.056,-0.039 -0.235,-0.061 -0.541,-0.061l-5.936 0c-0.441,0 -0.794,-0.074 -1.052,-0.227 -0.261,-0.153 -0.454,-0.388 -0.584,-0.698 -0.127,-0.31 -0.192,-0.624 -0.197,-0.948 -0.004,-0.318 0.026,-0.672 0.096,-1.051 0.092,-0.537 0.253,-0.908 0.48,-1.109 0.223,-0.201 0.607,-0.301 1.144,-0.301l5.739 0c0.41,0 0.681,-0.074 0.808,-0.223 0.126,-0.148 0.187,-0.358 0.179,-0.619l-0.027 -0.306c-0.017,-0.196 0.013,-0.41 0.092,-0.641 0.127,-0.42 0.349,-0.742 0.663,-0.978 0.315,-0.236 0.799,-0.367 1.458,-0.389 0.69,-0.017 1.262,0.07 1.711,0.267 0.454,0.196 0.755,0.419 0.908,0.667 0.157,0.245 0.24,0.585 0.257,1.022 0,0.052 -0.004,0.235 -0.012,0.554 -0.009,0.323 0.008,0.511 0.043,0.563 0.039,0.057 0.476,0.083 1.314,0.083l4.565 0c1.432,0 2.156,0.424 2.178,1.266 0.022,0.847 -0.017,1.462 -0.122,1.855 -0.118,0.41 -0.288,0.715 -0.502,0.916 -0.218,0.201 -0.637,0.297 -1.248,0.297l-5.395 0c-0.463,0 -0.725,0.03 -0.79,0.083 -0.061,0.057 -0.105,0.135 -0.118,0.24 -0.017,0.101 -0.017,0.231 0,0.397 0.022,0.314 0.066,0.498 0.127,0.555 0.056,0.056 0.318,0.082 0.781,0.082l5.316 0c0.607,0 1.153,0.083 1.646,0.245 0.489,0.161 0.859,0.415 1.117,0.759 0.257,0.345 0.332,0.926 0.231,1.746 -0.078,0.546 -0.253,0.982 -0.532,1.31 -0.275,0.327 -0.807,0.493 -1.589,0.493l-6.267 0c-0.385,0 -0.594,0.021 -0.629,0.065 -0.03,0.04 -0.048,0.232 -0.048,0.572l0 5.307c0,0.266 0.018,0.415 0.057,0.45 0.039,0.035 0.183,0.048 0.441,0.048l2.226 0c0.205,0 0.336,-0.018 0.397,-0.057 0.057,-0.035 0.087,-0.175 0.087,-0.415z" fill="#8E8E93"/>
  <path id="2" class="fil1" d="M156.154 4.301l1.008 -2.107c0.152,-0.324 0.384,-0.581 0.685,-0.773 0.301,-0.192 0.873,-0.292 1.711,-0.297 0.842,0 1.466,0.17 1.877,0.52 0.179,0.161 0.296,0.331 0.358,0.51l0.113 0.502c0.035,0.1 0.1,0.196 0.192,0.28 0.096,0.087 0.659,0.126 1.702,0.126l3.182 0.013c0.877,0.009 1.672,0.114 2.374,0.31 0.703,0.196 1.065,0.668 1.087,1.418 0.022,0.751 -0.078,1.375 -0.301,1.877 -0.205,0.472 -0.576,1.048 -1.108,1.729 -0.533,0.681 -1.183,1.021 -1.947,1.021 -0.35,0.009 -0.703,-0.07 -1.056,-0.24 -0.354,-0.17 -0.651,-0.371 -0.895,-0.602 -0.244,-0.232 -0.345,-0.467 -0.301,-0.703 0,-0.026 0.065,-0.244 0.196,-0.659 0.135,-0.415 0.188,-0.642 0.161,-0.685 -0.144,-0.171 -0.314,-0.253 -0.51,-0.253 -0.144,0.008 -0.349,0.122 -0.607,0.344 -0.262,0.218 -0.397,0.603 -0.41,1.144 -0.013,0.541 0.113,0.991 0.375,1.349 0.232,0.322 0.594,0.606 1.087,0.842 0.498,0.24 0.89,0.393 1.192,0.463l1.711 0.331 0.742 0.271 1.073 0.366c0.354,0.166 0.624,0.376 0.812,0.642 0.192,0.266 0.284,0.651 0.275,1.165 -0.013,0.851 -0.24,1.471 -0.668,1.86 -0.432,0.388 -0.855,0.602 -1.274,0.646 -0.384,0.043 -0.838,-0.044 -1.366,-0.258 -0.529,-0.214 -0.877,-0.371 -1.052,-0.471l-1.493 -0.947c-0.785,-0.358 -1.183,-0.633 -1.191,-0.816l0.331 -1.423c-0.03,-0.031 -0.153,-0.114 -0.358,-0.24 -0.205,-0.131 -0.388,-0.088 -0.563,0.126l-1.327 1.637 -1.344 1.047c-1.065,0.83 -1.964,1.218 -2.697,1.179 -0.733,-0.044 -1.344,-0.297 -1.829,-0.755 -0.484,-0.463 -0.733,-0.952 -0.742,-1.48 -0.009,-0.523 0.057,-0.908 0.201,-1.157 0.14,-0.244 0.484,-0.501 1.038,-0.763l1.24 -0.59c0.384,-0.178 0.755,-0.414 1.113,-0.702 0.358,-0.293 0.607,-0.52 0.742,-0.694l0.437 -0.637c0.44,-0.646 0.637,-1.1 0.589,-1.358 -0.053,-0.209 -0.161,-0.318 -0.336,-0.323 -0.171,-0.004 -0.323,0.053 -0.459,0.17l-0.728 0.947c-0.467,0.572 -1.083,0.852 -1.842,0.843 -0.808,0 -1.489,-0.358 -2.034,-1.074 0.257,-0.358 0.449,-0.685 0.585,-0.982 0.131,-0.301 0.227,-0.536 0.292,-0.716 0.065,-0.178 0.092,-0.467 0.092,-0.859 -0.005,-0.389 -0.022,-0.646 -0.048,-0.764l-0.087 -0.35zm-3.99 5.461l1.89 -0.24 0.694 -0.013c0.201,-0.009 0.314,-0.014 0.332,-0.014 0.118,0.009 0.323,0.07 0.62,0.184 0.292,0.118 0.44,0.244 0.44,0.379 -0.008,0.036 -0.026,0.079 -0.043,0.136 -0.022,0.052 -0.245,0.222 -0.659,0.502 -0.419,0.284 -0.716,0.528 -0.895,0.729 -0.179,0.205 -0.301,0.454 -0.358,0.742l-0.218 1.292c-0.144,0.187 -0.603,0.34 -1.371,0.462l-2.439 0.384c-0.69,0.109 -1.245,-0.017 -1.659,-0.384 -0.41,-0.366 -0.62,-0.899 -0.624,-1.602 -0.005,-0.698 0.1,-1.187 0.314,-1.462 0.21,-0.279 0.602,-0.471 1.174,-0.58l2.802 -0.515zm2.414 15.219l-1.672 -0.065c-1.392,-0.053 -2.16,-0.459 -2.309,-1.222 -0.148,-0.76 -0.222,-1.419 -0.214,-1.973l0.04 -3.326c0.008,-1.021 0.074,-1.685 0.192,-1.99 0.118,-0.302 0.279,-0.55 0.476,-0.747 0.196,-0.196 0.401,-0.331 0.624,-0.401 0.222,-0.074 0.611,-0.162 1.165,-0.271 0.554,-0.104 0.96,-0.152 1.227,-0.144 0.213,0.013 0.397,0.052 0.55,0.114l1.252 1.139c0.297,0.244 0.816,0.436 1.554,0.567 0.738,0.131 1.672,-0.122 2.806,-0.759l1.803 -1.013 2.112 -0.013 1.982 1.165 1.85 0.716c0.114,0.053 0.214,0.153 0.302,0.306 0.091,0.153 0.135,0.628 0.135,1.422l-0.013 3.645c-0.009,0.637 -0.1,1.157 -0.275,1.55 -0.175,0.397 -0.506,0.715 -0.991,0.946 -0.485,0.236 -1.244,0.354 -2.274,0.354l-10.322 0zm3.443 -4.478l4.68 -0.022c0.423,0 0.698,-0.065 0.816,-0.188 0.122,-0.122 0.17,-0.353 0.152,-0.698 -0.013,-0.209 -0.07,-0.375 -0.166,-0.484 -0.091,-0.109 -0.624,-0.171 -1.597,-0.179l-3.849 -0.013c-1.507,0 -2.318,0.017 -2.436,0.052 -0.114,0.035 -0.236,0.113 -0.362,0.245 -0.131,0.126 -0.188,0.283 -0.179,0.471 0,0.092 0.026,0.209 0.087,0.353 0.061,0.14 0.131,0.258 0.218,0.349 0.088,0.096 0.965,0.132 2.636,0.114zm-9.785 -15.878c-0.048,-0.258 -0.03,-0.546 0.057,-0.869 0.091,-0.327 0.262,-0.655 0.506,-0.995 0.249,-0.336 0.489,-0.576 0.716,-0.725 0.231,-0.152 0.511,-0.244 0.847,-0.275 0.34,-0.035 0.672,0 1.003,0.105 0.328,0.109 0.825,0.393 1.489,0.851 0.663,0.463 1.17,0.825 1.514,1.087 0.345,0.266 0.559,0.585 0.646,0.96 0.083,0.376 0.096,0.725 0.039,1.048 -0.104,0.471 -0.34,0.96 -0.711,1.479 -0.371,0.515 -0.829,0.795 -1.375,0.834 -0.27,0.026 -0.624,-0.052 -1.06,-0.24 -0.437,-0.188 -1.044,-0.585 -1.82,-1.191 -0.781,-0.603 -1.271,-1.018 -1.467,-1.24 -0.196,-0.223 -0.323,-0.498 -0.384,-0.829z" fill="#8E8E93"/>
  <path id="3" class="fil1" d="M184.716 8.845l1.702 -3.444 1.1 -2.989c0.226,-0.642 0.567,-0.995 1.008,-1.07 0.445,-0.069 0.829,-0.109 1.152,-0.109 0.663,0.018 1.135,0.088 1.414,0.205 0.275,0.123 0.528,0.288 0.76,0.502 0.231,0.21 0.358,0.458 0.384,0.738l-0.014 0.873c0.11,0.297 0.55,0.445 1.319,0.445l3.758 0.039c1.405,0.018 2.208,0.428 2.409,1.236 0.201,0.803 0.31,1.593 0.327,2.37l0.053 2.583 -0.206 5.692 -0.178 2.863 -0.323 3.182c-0.118,1.161 -0.415,1.929 -0.886,2.309 -0.476,0.379 -1.096,0.571 -1.86,0.571l-2.404 0c-0.668,0 -1.118,-0.104 -1.349,-0.31 -0.236,-0.204 -0.415,-0.48 -0.533,-0.829 -0.117,-0.349 -0.187,-0.872 -0.205,-1.575 -0.018,-0.699 0.175,-1.214 0.576,-1.546 0.249,-0.213 0.589,-0.34 1.021,-0.384l0.834 -0.012c0.432,-0.018 0.76,-0.114 0.973,-0.293 0.21,-0.179 0.376,-0.515 0.498,-1.004 0.118,-0.489 0.179,-1.261 0.179,-2.309l0 -4.194 -0.065 -1.789c-0.018,-0.394 -0.101,-0.773 -0.254,-1.14 -0.157,-0.366 -0.358,-0.641 -0.615,-0.825 -0.258,-0.183 -0.642,-0.314 -1.152,-0.401 -0.511,-0.087 -0.943,-0.127 -1.292,-0.127l-3.221 0c-0.851,0 -1.524,0.048 -2.012,0.144 -0.494,0.1 -0.886,0.288 -1.183,0.572 -0.302,0.279 -0.52,0.637 -0.668,1.065 -0.144,0.432 -0.21,0.808 -0.196,1.135 0.013,0.323 -0.014,0.554 -0.079,0.689 -0.061,0.136 -0.148,0.205 -0.262,0.205 -0.27,0.018 -0.502,-0.183 -0.694,-0.597 -0.192,-0.411 -0.275,-0.786 -0.253,-1.118 0.017,-0.297 0.166,-0.751 0.437,-1.353zm1.907 8.376l-0.04 -1.523 0.027 -2.763c0.009,-1.013 0.035,-1.707 0.087,-2.078 0.052,-0.371 0.227,-0.698 0.524,-0.977 0.301,-0.284 0.707,-0.463 1.231,-0.537 0.519,-0.079 1.457,-0.114 2.81,-0.105l1.306 0.013c0.955,0.018 1.619,0.196 1.985,0.533 0.371,0.336 0.55,1.348 0.533,3.037l-0.066 4.78c-0.008,0.589 -0.083,0.951 -0.222,1.087 -0.14,0.139 -0.507,0.222 -1.091,0.252 -0.59,0.027 -1.065,0.11 -1.423,0.241 -0.358,0.131 -0.655,0.371 -0.899,0.711 -0.245,0.341 -0.393,0.528 -0.454,0.567 -0.061,0.04 -0.35,0.022 -0.869,-0.056l-1.562 -0.079 -0.332 -0.048c-0.018,-0.105 -0.044,-0.292 -0.079,-0.572 -0.03,-0.275 -0.17,-0.668 -0.414,-1.174 -0.24,-0.506 -0.594,-0.943 -1.052,-1.309zm3.871 -5.246c-0.279,0.052 -0.458,0.122 -0.528,0.205 -0.074,0.087 -0.118,0.213 -0.135,0.379 -0.018,0.166 -0.026,0.276 -0.031,0.324 -0.004,0.052 0,0.126 0.018,0.218 0.026,0.257 0.091,0.44 0.192,0.55 0.1,0.109 0.379,0.17 0.838,0.174 0.454,0.005 0.737,-0.052 0.842,-0.174 0.109,-0.118 0.162,-0.389 0.162,-0.804 -0.009,-0.187 -0.026,-0.336 -0.053,-0.436 -0.026,-0.1 -0.1,-0.222 -0.222,-0.358 -0.123,-0.135 -0.485,-0.161 -1.083,-0.078zm-0.637 4.552c-0.009,0.34 0.048,0.572 0.17,0.685 0.127,0.114 0.402,0.175 0.834,0.179 0.428,0.004 0.707,-0.07 0.838,-0.222 0.065,-0.088 0.109,-0.192 0.127,-0.315 0.017,-0.122 0.026,-0.261 0.026,-0.415 -0.009,-0.401 -0.062,-0.65 -0.153,-0.741 -0.096,-0.096 -0.354,-0.179 -0.777,-0.249 -0.419,-0.074 -0.703,-0.031 -0.847,0.126 -0.148,0.158 -0.218,0.476 -0.218,0.952zm-4.308 1.563c0.332,0.213 0.585,0.414 0.76,0.606 0.174,0.192 0.301,0.463 0.375,0.816 0.079,0.354 0.118,0.664 0.118,0.93 -0.018,0.393 -0.087,0.681 -0.205,0.864 -0.122,0.183 -0.314,0.38 -0.585,0.598 -0.267,0.218 -0.507,0.371 -0.72,0.454l-3.147 1.318c-1.288,0.537 -2.152,0.716 -2.601,0.533 -0.45,-0.184 -0.751,-0.406 -0.908,-0.659 -0.157,-0.258 -0.31,-0.59 -0.459,-0.991 -0.152,-0.406 -0.222,-0.716 -0.214,-0.93 0,-0.34 0.127,-0.65 0.372,-0.934l0.436 -0.445c0.214,-0.258 0.323,-0.541 0.332,-0.856l0.026 -3.762c0,-0.986 -0.031,-1.501 -0.083,-1.54 -0.057,-0.04 -0.113,-0.07 -0.175,-0.097l-1.558 -0.165c-0.375,-0.035 -0.663,-0.14 -0.855,-0.319 -0.197,-0.179 -0.314,-0.436 -0.354,-0.768 -0.039,-0.332 -0.061,-0.72 -0.065,-1.17 -0.005,-0.449 0.052,-0.855 0.161,-1.222 0.118,-0.384 0.319,-0.69 0.594,-0.921 0.279,-0.227 0.868,-0.345 1.772,-0.345l2.876 0c0.646,0 1.191,0.17 1.624,0.511 -0.066,0.257 -0.123,0.58 -0.157,0.973 -0.04,0.393 0.187,0.952 0.681,1.676l0.012 6.15c0.742,-0.279 1.188,-0.41 1.332,-0.384l0.615 0.079zm-2.021 -12.623c0.009,0.367 -0.135,0.79 -0.423,1.275 -0.292,0.48 -0.65,0.803 -1.074,0.964 -0.427,0.161 -0.759,0.245 -0.999,0.245 -0.349,0.004 -0.659,-0.062 -0.926,-0.201 -0.27,-0.14 -0.689,-0.524 -1.261,-1.157 -0.572,-0.633 -0.978,-1.161 -1.218,-1.584 -0.244,-0.428 -0.375,-0.834 -0.397,-1.222 -0.022,-0.389 0.105,-0.777 0.376,-1.17 0.179,-0.257 0.593,-0.589 1.239,-1.004 0.65,-0.415 1.384,-0.323 2.2,0.275 0.144,0.118 0.519,0.55 1.126,1.296 0.607,0.747 0.982,1.261 1.126,1.541 0.144,0.284 0.223,0.528 0.231,0.742z" fill="#8E8E93"/>
  <path id="4" class="fil1" d="M220.518 6.886l-1.728 0.039c-0.24,0.009 -0.489,-0.066 -0.755,-0.219l-0.921 -0.637c-0.196,-0.105 -0.515,-0.218 -0.964,-0.353 -0.446,-0.131 -0.978,-0.197 -1.594,-0.197 -1.327,0.018 -2.37,0.38 -3.116,1.087l-0.449 0.458 -0.524 0.511c-0.105,0.114 -0.175,0.214 -0.218,0.31l-0.267 1.06c-0.105,0.249 -0.309,0.494 -0.615,0.734 -0.306,0.244 -0.947,0.367 -1.916,0.367 -0.947,0.008 -1.598,-0.18 -1.951,-0.555 -0.354,-0.38 -0.533,-1.004 -0.533,-1.877l0 -1.405c0,-0.986 0.254,-1.742 0.756,-2.256 0.502,-0.516 1.304,-0.777 2.405,-0.786l4.46 -0.013c0.214,0 0.375,-0.04 0.48,-0.118 0.109,-0.074 0.183,-0.136 0.223,-0.179l0.41 -0.908c0.34,-0.537 1.327,-0.82 2.955,-0.855 1.226,-0.018 2.029,0.104 2.405,0.366 0.375,0.258 0.602,0.454 0.689,0.581l0.384 0.921c0.153,0.17 0.489,0.253 1.009,0.253l2.623 0c1.532,0 2.588,0.074 3.155,0.218 0.572,0.148 1.017,0.388 1.34,0.729 0.319,0.341 0.511,0.742 0.572,1.196 0.065,0.458 0.096,0.99 0.096,1.606 -0.009,0.877 -0.07,1.475 -0.192,1.798 -0.118,0.319 -0.31,0.607 -0.572,0.869 -0.266,0.257 -0.86,0.388 -1.78,0.388 -0.69,0.009 -1.249,-0.078 -1.672,-0.257 -0.428,-0.179 -0.699,-0.467 -0.807,-0.869l-0.206 -1.663c-0.118,-0.152 -0.253,-0.253 -0.397,-0.296 -0.144,-0.048 -0.397,-0.075 -0.755,-0.075l-2.03 0.027zm-11.854 7.917l2.187 -0.629c0.34,-0.091 0.511,-0.235 0.511,-0.432 -0.009,-0.222 -0.158,-0.349 -0.45,-0.384 -0.153,-0.009 -0.423,0.053 -0.812,0.183 -0.384,0.136 -0.929,0.271 -1.628,0.411 -0.698,0.14 -1.196,0.253 -1.484,0.34 -0.288,0.083 -0.506,0.118 -0.65,0.1 -0.524,-0.043 -0.768,-0.44 -0.742,-1.187 0.017,-0.733 0.187,-1.27 0.511,-1.614 0.322,-0.341 0.672,-0.533 1.047,-0.572l1.484 -0.171c0.69,-0.074 1.213,-0.266 1.567,-0.571 0.354,-0.31 0.598,-0.629 0.733,-0.96l0.297 -0.882c0.057,-0.136 0.319,-0.493 0.785,-1.074 0.463,-0.58 1.314,-0.873 2.549,-0.873 0.302,0.009 0.695,0.07 1.183,0.175 0.494,0.105 0.904,0.31 1.235,0.615 0.332,0.301 0.537,0.472 0.607,0.502 0.074,0.035 0.301,0.053 0.685,0.053l3.697 0c0.262,0 0.432,0.034 0.511,0.109 0.074,0.074 0.135,0.153 0.179,0.235l0.305 1.087c0.197,0.598 0.546,1.004 1.048,1.218l1.139 0.484c0.096,0.101 0.148,0.21 0.166,0.328 0.017,0.113 -0.066,0.297 -0.253,0.554 -0.454,0.615 -0.838,1.056 -1.161,1.323 -0.319,0.27 -0.463,0.449 -0.441,0.545 0.026,0.092 0.07,0.179 0.122,0.262 0.057,0.078 0.336,0.174 0.838,0.288l2.148 0.511c0.864,0.213 1.449,0.519 1.759,0.921 0.309,0.401 0.458,0.999 0.436,1.798 -0.022,0.794 -0.214,1.37 -0.572,1.733 -0.358,0.357 -0.65,0.519 -0.882,0.484 -0.1,-0.009 -0.192,-0.044 -0.266,-0.096 -0.078,-0.057 -0.126,-0.332 -0.148,-0.825 -0.022,-0.493 -0.149,-0.916 -0.384,-1.266 -0.236,-0.349 -0.476,-0.637 -0.729,-0.855 -0.249,-0.223 -0.62,-0.402 -1.104,-0.532 -0.489,-0.132 -1.41,-0.197 -2.763,-0.197l-11.457 0c-1.288,0 -2.143,0.293 -2.567,0.882 -0.419,0.585 -0.654,1.034 -0.707,1.34l-0.244 1.497c-0.035,0.161 -0.175,0.257 -0.428,0.288 -0.253,0.03 -0.558,-0.157 -0.925,-0.555 -0.367,-0.401 -0.554,-0.956 -0.559,-1.658 -0.004,-0.703 0.153,-1.253 0.476,-1.65 0.318,-0.397 0.768,-0.672 1.349,-0.825l1.802 -0.458zm7.568 -3.26c-0.008,0.008 0,0.043 0.022,0.109 0.018,0.061 0.14,0.187 0.362,0.371 0.223,0.183 0.45,0.283 0.686,0.305 0.231,0.022 0.489,-0.091 0.768,-0.34 0.275,-0.245 0.406,-0.411 0.388,-0.485 -0.096,-0.297 -0.676,-0.384 -1.75,-0.257 -0.318,0.043 -0.476,0.144 -0.476,0.297zm-8.183 9.178l0.039 -1.379c0.009,-0.48 0.096,-0.882 0.266,-1.213 0.175,-0.336 0.376,-0.611 0.611,-0.834 0.232,-0.222 0.611,-0.345 1.131,-0.362 0.519,-0.022 1.75,-0.04 3.697,-0.048l9.052 -0.013c0.807,0 1.431,0.1 1.872,0.301 0.441,0.201 0.746,0.511 0.921,0.929 0.175,0.415 0.271,1.079 0.288,1.982l0.027 2.34c0,0.759 -0.171,1.305 -0.507,1.641 -0.336,0.34 -0.742,0.576 -1.213,0.711 -0.476,0.135 -1.218,0.201 -2.235,0.192l-10.379 -0.013c-1.502,0 -2.448,-0.201 -2.833,-0.607 -0.388,-0.406 -0.61,-0.825 -0.658,-1.252 -0.053,-0.432 -0.079,-0.926 -0.084,-1.48 -0.004,-0.554 -0.004,-0.851 0.005,-0.895zm8.554 0.59l3.261 0c0.248,0 0.423,-0.062 0.532,-0.18 0.105,-0.117 0.157,-0.226 0.153,-0.327 -0.004,-0.096 -0.057,-0.201 -0.153,-0.305 -0.1,-0.105 -0.296,-0.166 -0.594,-0.175l-4.094 -0.035c-1.125,-0.008 -1.767,0 -1.929,0.031 -0.161,0.03 -0.288,0.091 -0.379,0.183 -0.087,0.096 -0.135,0.227 -0.14,0.397 -0.004,0.171 0.096,0.284 0.301,0.332 0.206,0.052 1.218,0.079 3.042,0.079z" fill="#8E8E93"/>
  <path id="5" class="fil1" d="M243.607 19.931l-0.078 2.479 -0.048 1.869c-0.197,0.261 -0.459,0.396 -0.782,0.396l-2.631 0c-0.598,0 -1.1,-0.196 -1.506,-0.589 -0.402,-0.392 -0.594,-1.038 -0.567,-1.933 0.017,-0.664 0.148,-1.139 0.388,-1.423 0.244,-0.288 0.48,-0.467 0.711,-0.545l1.113 -0.232c0.048,-0.022 0.105,-0.065 0.166,-0.126 0.061,-0.062 0.096,-0.219 0.114,-0.472l0.026 -1.1c0.026,-0.179 0.078,-0.331 0.153,-0.462l0.921 -0.777c0.266,-0.231 0.462,-0.529 0.593,-0.895 0.135,-0.367 0.196,-0.703 0.188,-0.999 -0.035,-0.59 -0.267,-1.074 -0.69,-1.458l-0.96 -0.795c-0.101,-0.152 -0.157,-0.34 -0.162,-0.563 -0.004,-0.218 0.057,-0.41 0.175,-0.571l0.982 -0.603c0.087,-0.07 0.271,-0.292 0.559,-0.672 0.283,-0.38 0.436,-0.873 0.445,-1.484 0.013,-0.607 -0.153,-1.078 -0.502,-1.41l-1.192 -0.742c-0.152,-0.13 -0.248,-0.27 -0.292,-0.423l-0.114 -0.921c-0.078,-0.109 -0.235,-0.205 -0.467,-0.288 -0.235,-0.079 -0.44,-0.044 -0.619,0.109l-0.384 0.677c-0.044,0.052 -0.096,0.096 -0.157,0.13l-0.995 0.38c-0.267,0.131 -0.55,0.41 -0.856,0.838 -0.31,0.432 -0.454,0.969 -0.436,1.607 0,0.349 0.056,0.619 0.174,0.807 0.114,0.188 0.275,0.354 0.476,0.498l1.562 0.881c0.223,0.17 0.332,0.362 0.332,0.576 -0.009,0.153 -0.043,0.266 -0.1,0.345 -0.061,0.079 -0.363,0.14 -0.908,0.183 -0.546,0.048 -1.052,0.35 -1.519,0.9 -0.463,0.549 -0.672,1.143 -0.633,1.78 0.009,0.293 0.096,0.576 0.258,0.86 0.161,0.279 0.493,0.554 0.999,0.83l1.314 0.728c0.161,0.092 0.27,0.192 0.327,0.301 0.057,0.105 0.096,0.315 0.122,0.624 0.027,0.315 -0.1,0.607 -0.371,0.878l-0.907 0.576c-0.393,0.288 -0.646,0.681 -0.756,1.174 -0.109,0.498 -0.17,0.943 -0.174,1.34 -0.004,0.393 0.039,0.768 0.122,1.117l0.31 0.996c0.009,0.06 0.013,0.122 0.018,0.178 0.004,0.062 -0.066,0.166 -0.21,0.31 -0.148,0.144 -0.471,0.201 -0.973,0.166 -1,-0.061 -1.655,-0.279 -1.969,-0.659 -0.314,-0.38 -0.488,-0.764 -0.51,-1.152 -0.026,-0.388 0.039,-0.912 0.196,-1.571 0.157,-0.66 0.27,-1.227 0.34,-1.694l0.433 -3.26 0.165 -2.161 0.131 -1.999 0.101 -2.71 0.105 -5.866c0.004,-0.725 0.183,-1.257 0.536,-1.593 0.35,-0.336 0.716,-0.572 1.1,-0.712 0.38,-0.135 1.667,-0.192 3.858,-0.166l1.969 0.027c0.589,0.008 0.947,0.091 1.078,0.248 0.127,0.157 0.196,0.275 0.209,0.354 0.014,0.074 -0.026,0.336 -0.122,0.773 -0.092,0.44 -0.144,0.933 -0.152,1.488l-0.079 3.365 0.052 12.238zm-3.518 -3.225c-0.074,0.009 -0.597,-0.157 -1.566,-0.502 -0.965,-0.345 -1.436,-0.877 -1.41,-1.593 0.008,-0.341 0.131,-0.655 0.371,-0.934 0.235,-0.28 0.563,-0.45 0.969,-0.498 0.419,-0.043 0.89,0.088 1.414,0.389 0.524,0.301 0.903,0.572 1.139,0.807 0.236,0.231 0.349,0.537 0.349,0.912 -0.008,0.402 -0.17,0.738 -0.489,1.013 -0.323,0.271 -0.58,0.406 -0.777,0.406zm0.398 -6.098c-0.385,0.009 -0.935,-0.174 -1.655,-0.545 -0.72,-0.371 -1.099,-0.65 -1.139,-0.842 -0.039,-0.192 -0.052,-0.345 -0.044,-0.454 0.027,-0.511 0.184,-0.908 0.481,-1.183 0.292,-0.28 0.628,-0.419 1.004,-0.428 0.226,0 0.624,0.118 1.187,0.358 0.563,0.24 0.938,0.476 1.126,0.707 0.188,0.236 0.284,0.563 0.288,0.982 0.004,0.415 -0.144,0.755 -0.441,1.017 -0.301,0.258 -0.567,0.388 -0.807,0.388zm4.155 0.856l0.078 -6.407c0.009,-0.834 0.101,-1.55 0.279,-2.148 0.18,-0.593 0.568,-0.951 1.162,-1.065 0.589,-0.118 1.339,-0.174 2.243,-0.174l4.945 0c0.973,0 1.969,0.061 2.981,0.183 1.017,0.127 1.384,1.554 1.113,4.291l-0.052 0.502 -0.254 1.649c-0.096,0.559 -0.34,1.017 -0.741,1.366 -0.402,0.349 -0.79,0.546 -1.17,0.589 -0.38,0.044 -1.283,0.075 -2.706,0.101 -1.244,0.026 -2.056,-0.135 -2.436,-0.485 -0.379,-0.349 -0.554,-0.873 -0.532,-1.571 0.026,-0.794 0.336,-1.292 0.921,-1.497l1.575 -0.14c0.385,-0.06 0.577,-0.248 0.585,-0.562 0.009,-0.319 -0.297,-0.472 -0.921,-0.463 -1.209,0.026 -2.069,0.257 -2.579,0.689 -0.515,0.437 -0.746,1.183 -0.703,2.239 0.022,0.895 0.218,1.511 0.581,1.847 0.362,0.34 0.803,0.593 1.331,0.764 0.524,0.17 1.458,0.235 2.806,0.205l1.916 -0.04c0.096,0 0.302,-0.021 0.62,-0.065 0.319,-0.044 0.637,0.074 0.952,0.345 0.318,0.275 0.471,0.75 0.462,1.431 -0.009,0.686 -0.061,1.218 -0.153,1.602l-0.436 1.737 -1.008 2.457c-0.035,0.075 -0.061,0.162 -0.083,0.262 -0.022,0.096 0.17,0.323 0.58,0.681l1.1 0.974c0.467,0.418 0.703,0.811 0.707,1.182 0.005,0.371 -0.07,0.729 -0.222,1.07 -0.511,1.121 -1.109,1.689 -1.79,1.693 -0.681,0.005 -1.231,-0.161 -1.65,-0.493l-1.353 -1.035 -0.371 -0.026 -1.231 1.074c-1.021,0.895 -1.911,0.969 -2.671,0.223 -0.759,-0.747 -1.13,-1.371 -1.117,-1.873 0.013,-0.502 0.306,-1.03 0.873,-1.584l1.1 -1.061c0.205,-0.196 0.306,-0.362 0.297,-0.493 -0.009,-0.131 -0.039,-0.253 -0.092,-0.366l-0.869 -1.598c-0.384,-0.698 -0.558,-1.279 -0.532,-1.737 0.031,-0.463 0.175,-0.829 0.436,-1.109 0.262,-0.275 0.585,-0.502 0.974,-0.676 0.388,-0.175 0.724,-0.258 1.017,-0.249 0.397,0.026 0.742,0.179 1.034,0.458l0.576 0.729c0.17,0.188 0.336,0.28 0.498,0.271 0.249,-0.009 0.401,-0.183 0.467,-0.519 0.065,-0.337 -0.205,-0.756 -0.799,-1.253 -0.598,-0.498 -1.192,-0.751 -1.776,-0.76 -0.349,0 -0.799,0.105 -1.345,0.314 -0.545,0.206 -1.051,0.559 -1.514,1.052 -0.467,0.493 -0.699,1.031 -0.703,1.598 -0.004,0.572 0.127,1.13 0.402,1.676l0.615 1.253c0.153,0.327 0.223,0.571 0.21,0.742 -0.013,0.17 -0.088,0.327 -0.223,0.475l-1.139 1.214c-0.445,0.475 -0.668,0.955 -0.672,1.431 -0.005,0.476 0.122,0.956 0.379,1.441 0.254,0.48 0.372,0.75 0.358,0.812 -0.07,0.196 -0.24,0.292 -0.515,0.292 -0.886,0.026 -1.396,-0.192 -1.54,-0.659 -0.14,-0.463 -0.21,-1.109 -0.21,-1.938l-0.065 -10.868z" fill="#8E8E93"/>
  <path class="fil1" d="M109.129 41.05l0 4.646 -1.602 0 0 -3.126 -14.773 0 0 3.126 -1.52 0 0 -4.646 8.187 0c-0.338,-0.731 -0.673,-1.405 -1.012,-2.025l1.69 -0.252c0.392,0.674 0.731,1.434 1.012,2.277l8.018 0zm-18.486 5.997l6.077 0c0.789,-1.408 1.408,-2.589 1.859,-3.548l1.602 0.508c-0.561,1.07 -1.098,2.082 -1.602,3.04l11.141 0 0 1.517 -4.218 0c-0.9,2.251 -1.916,4.052 -3.04,5.403 2.251,0.958 4.503,2.086 6.754,3.379l-1.012 1.351c-2.421,-1.408 -4.73,-2.59 -6.924,-3.545 -2.366,2.137 -5.572,3.264 -9.625,3.376l-0.929 -1.434c3.714,0 6.725,-0.875 9.034,-2.619 -2.082,-0.901 -4.11,-1.661 -6.081,-2.28 0.732,-1.182 1.467,-2.392 2.198,-3.631l-5.234 0 0 -1.517zm7.089 1.517c-0.674,1.127 -1.293,2.111 -1.855,2.957 1.574,0.451 3.264,1.07 5.065,1.855 1.124,-1.293 2.053,-2.896 2.784,-4.812l-5.994 0z" fill="#8E8E93"/>
  <path id="1" class="fil1" d="M125.547 58.02c-1.52,0 -2.28,-0.731 -2.28,-2.194l0 -12.41 1.52 0 0 12.071c0,0.678 0.393,1.016 1.181,1.016l4.053 0c0.562,0 0.929,-0.198 1.095,-0.594 0.285,-0.562 0.479,-2.082 0.591,-4.557l1.52 0.422c-0.223,2.982 -0.533,4.783 -0.926,5.403 -0.45,0.562 -1.098,0.843 -1.945,0.843l-4.809 0zm-3.97 -11.988c-0.619,3.717 -1.491,6.923 -2.618,9.625l-1.351 -0.843c1.127,-2.702 1.941,-5.713 2.449,-9.034l1.52 0.252zm12.41 -0.93c1.351,2.702 2.561,5.688 3.631,8.952l-1.434 0.673c-1.127,-3.487 -2.366,-6.527 -3.717,-9.117l1.52 -0.508zm-7.766 -6.077c2.028,2.14 3.544,3.97 4.56,5.487l-1.268 0.929c-1.181,-1.801 -2.702,-3.685 -4.56,-5.656l1.268 -0.76z" fill="#8E8E93"/>
  <path id="2" class="fil1" d="M161.125 47.469l0 4.222 -10.807 0 0 1.516 11.819 0 0 5.573 -1.52 0 0 -0.926 -10.299 0 0 0.843 -1.52 0 0 -11.228 12.327 0zm-10.807 8.948l10.299 0 0 -1.942 -10.299 0 0 1.942zm0 -5.994l9.287 0 0 -1.69 -9.287 0 0 1.69zm13.847 -5.573l0 3.883 -1.52 0 0 -2.532 -15.367 0 0 2.532 -1.52 0 0 -3.883 8.612 0c-0.226,-0.504 -0.45,-0.983 -0.676,-1.434l1.52 -0.255 -0.17 -0.083c1.016,-1.239 1.776,-2.644 2.281,-4.222l1.52 0.339c-0.224,0.504 -0.393,0.929 -0.505,1.264l6.247 0 0 1.351 -3.884 0c0.505,0.677 0.872,1.239 1.095,1.689l-1.35 0.591c-0.393,-0.789 -0.843,-1.545 -1.351,-2.28l-1.351 0c-0.393,0.677 -0.843,1.379 -1.351,2.111l-1.181 -0.674c0.28,0.562 0.508,1.099 0.677,1.603l8.274 0zm-15.788 -3.04c-0.563,0.9 -1.128,1.689 -1.69,2.366l-1.351 -0.846c1.24,-1.351 2.169,-2.842 2.788,-4.474l1.517 0.252c-0.054,0.227 -0.14,0.479 -0.252,0.76l-0.252 0.591 5.741 0 0 1.351 -3.631 0c0.505,0.735 0.901,1.351 1.182,1.858l-1.437 0.591c-0.335,-0.789 -0.785,-1.603 -1.351,-2.449l-1.264 0z" fill="#8E8E93"/>
  <path id="3" class="fil1" d="M185.73 50.34c-0.508,0.111 -0.929,0.223 -1.268,0.335 0.339,1.07 0.508,2.197 0.508,3.379 0,1.689 -0.227,2.871 -0.677,3.544 -0.508,0.732 -1.689,1.099 -3.545,1.099l-0.76 0 -0.508 -1.351 1.013 0c1.296,0 2.085,-0.198 2.366,-0.591 0.393,-0.45 0.591,-1.35 0.591,-2.701 0,-0.451 -0.029,-0.818 -0.086,-1.099 -2.421,1.913 -5.573,3.462 -9.456,4.643l-0.76 -1.351c4.279,-1.239 7.6,-2.813 9.964,-4.726 -0.228,-0.677 -0.451,-1.239 -0.678,-1.689 -2.024,1.632 -4.784,2.925 -8.271,3.883l-0.76 -1.264c3.657,-0.959 6.445,-2.198 8.357,-3.718 -0.169,-0.335 -0.45,-0.702 -0.842,-1.095l-0.256 0.083 -0.252 0.169c-1.463,0.674 -3.404,1.351 -5.825,2.025l-0.847 -1.264c2.086,-0.451 3.97,-1.042 5.659,-1.773 0.955,-0.396 1.686,-0.731 2.194,-1.016l-5.742 0 0 -1.516 13.004 0 0 1.516 -4.981 0c-0.732,0.45 -1.322,0.818 -1.773,1.099 0.785,0.789 1.405,1.632 1.855,2.532 2.028,-0.562 3.941,-1.433 5.742,-2.615l1.012 1.095c-1.181,0.732 -2.42,1.351 -3.713,1.859 1.012,2.702 2.673,4.87 4.981,6.502l-1.098 1.351c-2.363,-1.971 -4.081,-4.42 -5.148,-7.345zm-3.126 -11.567c0.226,0.504 0.478,1.182 0.76,2.024l8.104 0 0 3.801 -1.52 0 0 -2.28 -15.194 0 0 2.28 -1.52 0 0 -3.801 8.526 0c-0.226,-0.619 -0.479,-1.21 -0.76,-1.772l1.604 -0.252z" fill="#8E8E93"/>
 </g>
</svg>