<?xml version="1.0" encoding="UTF-8"?>
<!DOCTYPE svg PUBLIC "-//W3C//DTD SVG 1.1//EN" "http://www.w3.org/Graphics/SVG/1.1/DTD/svg11.dtd">
<!-- Creator: CorelDRAW 2019 (64-Bit) -->
<svg xmlns="http://www.w3.org/2000/svg" xmlns:xlink="http://www.w3.org/1999/xlink" xmlns:xodm="http://www.corel.com/coreldraw/odm/2003" xml:space="preserve" width="370" height="60" version="1.1" style="shape-rendering:geometricPrecision; text-rendering:geometricPrecision; image-rendering:optimizeQuality; fill-rule:evenodd; clip-rule:evenodd" viewBox="0 0 370 60">
 
 <g id="图层_x0020_1">
  
  <path class="fil0" d="M85.088 19.547c-0.606,0.262 -1.196,0.541 -1.772,0.838 -0.576,0.292 -1.034,0.424 -1.375,0.389 -0.366,-0.027 -0.742,-0.21 -1.13,-0.555 -0.389,-0.349 -0.589,-0.842 -0.607,-1.492 -0.017,-0.646 0.035,-1.061 0.158,-1.244 0.126,-0.184 0.279,-0.345 0.466,-0.48l1.956 -1.026 1.602 -0.934c0.244,-0.144 0.366,-0.24 0.362,-0.284 -0.004,-0.048 -0.044,-0.157 -0.114,-0.323 -0.074,-0.166 -0.157,-0.231 -0.248,-0.196l-1.995 0.755c-0.676,0.253 -1.24,0.183 -1.689,-0.218 -0.454,-0.402 -0.686,-0.886 -0.698,-1.454 -0.014,-0.563 0.034,-0.956 0.148,-1.17 0.092,-0.178 0.279,-0.366 0.563,-0.562 0.279,-0.193 0.655,-0.393 1.126,-0.599 0.467,-0.204 0.703,-0.344 0.707,-0.414 0.005,-0.074 -0.035,-0.175 -0.122,-0.301l-0.856 -1.152c-0.109,-0.206 -0.161,-0.402 -0.152,-0.59 0,-0.279 0.091,-0.515 0.279,-0.707 0.188,-0.192 0.38,-0.318 0.576,-0.38l1.432 0.04c0.519,-0.044 0.811,-0.035 0.873,0.026 0.013,0.026 0.122,0.279 0.323,0.759 0.2,0.485 1.078,0.729 2.627,0.738 1.628,0.018 2.619,-0.231 2.973,-0.738 0.357,-0.506 0.576,-0.759 0.658,-0.755 0.088,0.005 0.236,0.157 0.45,0.454 0.214,0.301 0.319,0.646 0.319,1.039 -0.009,0.253 -0.088,0.581 -0.236,0.982 -0.148,0.401 -0.519,0.803 -1.113,1.209 -0.594,0.406 -0.943,0.655 -1.048,0.746 -0.109,0.097 -0.218,0.175 -0.331,0.232 -0.118,0.061 -0.17,0.113 -0.162,0.153l0.026 0.091 0.664 2.955 0.139 2.759 0 0.999c0.009,0.493 -0.012,0.812 -0.074,0.96 -0.052,0.109 -0.196,0.301 -0.427,0.572 -0.236,0.275 -0.415,0.541 -0.533,0.803 -0.118,0.258 -0.183,0.659 -0.192,1.196 -0.009,0.358 0.035,0.663 0.122,0.925 0.092,0.262 0.136,0.415 0.136,0.467 -0.009,0.092 -0.053,0.21 -0.131,0.349 -0.074,0.144 -0.188,0.262 -0.332,0.358 -0.144,0.101 -0.406,0.184 -0.79,0.258 -0.384,0.074 -0.764,0.109 -1.139,0.109l-3.339 0.013c-0.699,0.009 -1.187,-0.057 -1.471,-0.196 -0.279,-0.144 -0.476,-0.354 -0.585,-0.629 -0.113,-0.275 -0.161,-0.716 -0.157,-1.309 0,-0.537 0.057,-0.856 0.161,-0.947 0.105,-0.096 0.555,-0.258 1.345,-0.494 0.785,-0.235 1.388,-0.453 1.807,-0.659 0.419,-0.205 0.668,-0.384 0.75,-0.536 0.079,-0.153 0.114,-0.324 0.096,-0.511l-0.026 -0.319zm5.727 -17.24l1.955 0.013c0.345,0.009 0.532,0.004 0.563,-0.018 0.035,-0.021 0.109,-0.292 0.227,-0.811 0.113,-0.52 0.812,-0.782 2.091,-0.782 1.191,0.009 1.89,0.114 2.095,0.31 0.205,0.197 0.349,0.363 0.427,0.502 0.083,0.144 0.14,0.301 0.175,0.476 0.035,0.175 0.061,0.271 0.083,0.288 0.022,0.017 0.174,0.022 0.467,0.022l2.632 0c0.633,0 1.065,0.197 1.305,0.589 0.24,0.393 0.375,0.829 0.401,1.305 0.031,0.476 -0.017,0.912 -0.144,1.305 -0.122,0.358 -0.301,0.633 -0.545,0.83 -0.24,0.196 -0.672,0.296 -1.284,0.296l-1.47 0 -0.716 0.04c-0.07,-0.018 -0.297,-0.214 -0.686,-0.59 -0.388,-0.375 -1.125,-0.536 -2.217,-0.488 -0.401,0.026 -0.855,0.1 -1.357,0.218 -0.502,0.122 -0.873,0.292 -1.113,0.51 -0.236,0.223 -0.397,0.332 -0.484,0.324l-2.445 -0.014c-0.314,0 -0.476,0.009 -0.484,0.026l-0.013 0.446c-0.018,0.161 -0.183,0.379 -0.507,0.654 -0.318,0.271 -1.047,0.393 -2.191,0.367 -0.842,-0.004 -1.405,-0.118 -1.689,-0.332 -0.279,-0.214 -0.436,-0.419 -0.471,-0.624l-0.092 -0.589 -0.803 0.052 -2.723 0c-0.502,0 -0.904,-0.174 -1.196,-0.519 -0.297,-0.345 -0.476,-0.899 -0.546,-1.668 -0.065,-0.768 0.1,-1.313 0.502,-1.645 0.397,-0.327 0.987,-0.493 1.763,-0.493l2.453 0c0.358,0 0.559,-0.017 0.603,-0.061 0.043,-0.044 0.104,-0.232 0.179,-0.572 0.078,-0.336 0.336,-0.58 0.781,-0.737 0.441,-0.162 0.938,-0.245 1.484,-0.254 0.563,0 0.986,0.057 1.279,0.162 0.288,0.105 0.55,0.236 0.777,0.384 0.231,0.148 0.362,0.327 0.397,0.532l0.065 0.537c0,0.004 0.158,0.009 0.472,0.009zm2.854 8.507l0 -2.327c0,-0.471 0.183,-0.912 0.55,-1.327 0.367,-0.41 0.991,-0.615 1.877,-0.606 0.284,0.008 0.624,0.052 1.026,0.135 0.397,0.079 0.615,0.153 0.65,0.218 0.035,0.061 -0.14,0.171 -0.524,0.323 -0.214,0.088 -0.41,0.328 -0.594,0.716 -0.183,0.393 -0.288,0.716 -0.31,0.96 -0.021,0.249 0.106,0.611 0.38,1.087 0.188,0.341 0.459,0.747 0.817,1.209 0.357,0.467 0.746,0.895 1.156,1.287 0.415,0.389 0.93,0.603 1.541,0.638 0.231,0.017 0.51,-0.009 0.833,-0.083 0.323,-0.074 0.607,-0.214 0.843,-0.428 0.24,-0.214 0.393,-0.31 0.463,-0.297 0.065,0.018 0.148,0.175 0.24,0.463 0.096,0.288 0.139,0.615 0.13,0.973 -0.017,0.341 -0.074,0.655 -0.166,0.952 -0.096,0.292 -0.244,0.515 -0.449,0.663 -0.205,0.149 -0.554,0.223 -1.047,0.223l-1.113 0c-0.651,0 -1.004,0.035 -1.07,0.096 -0.061,0.065 0.027,0.358 0.262,0.877 0.153,0.349 0.41,0.816 0.764,1.401 0.354,0.585 0.646,1.021 0.873,1.31l1.497 1.741c0.607,0.746 0.903,1.379 0.895,1.89 -0.009,0.292 -0.175,0.773 -0.498,1.453 -0.323,0.677 -0.986,1.013 -1.981,1.004 -0.376,0 -0.751,-0.091 -1.126,-0.275 -0.376,-0.183 -0.812,-0.58 -1.305,-1.183l-1.227 -1.497c-0.162,-0.187 -0.24,-0.323 -0.236,-0.41 0.005,-0.083 0.044,-0.201 0.127,-0.349 0.083,-0.153 0.231,-0.502 0.454,-1.056 0.222,-0.555 0.327,-0.899 0.318,-1.035 -0.026,-0.179 -0.139,-0.275 -0.344,-0.283 -0.066,0 -0.157,0.026 -0.275,0.078 -0.114,0.048 -0.275,0.314 -0.485,0.786 -0.209,0.471 -0.65,1.296 -1.322,2.466 -0.677,1.174 -1.236,1.898 -1.685,2.174 -0.445,0.279 -0.93,0.414 -1.449,0.405 -0.777,0 -1.384,-0.213 -1.824,-0.633 -0.437,-0.423 -0.664,-0.951 -0.677,-1.579 -0.013,-0.634 0.201,-1.227 0.633,-1.79l1.178 -1.497c0.511,-0.651 0.882,-1.275 1.113,-1.881 0.227,-0.603 0.389,-1.091 0.476,-1.463 0.092,-0.37 0.135,-0.589 0.131,-0.654 -0.004,-0.061 -0.17,-0.096 -0.493,-0.096l-0.934 0c-0.271,0 -0.498,-0.053 -0.672,-0.166 -0.175,-0.109 -0.301,-0.332 -0.385,-0.668 -0.078,-0.34 -0.122,-0.764 -0.13,-1.274 -0.009,-0.511 0.078,-0.943 0.266,-1.292 0.135,-0.271 0.327,-0.48 0.567,-0.624 0.245,-0.149 0.472,-0.223 0.686,-0.227 0.214,-0.005 0.506,0 0.881,0.013 0.375,0.013 0.585,-0.013 0.629,-0.074 0.043,-0.066 0.065,-0.223 0.065,-0.467zm3.693 -1.921c0,-0.305 0.165,-0.62 0.497,-0.938 0.336,-0.319 0.698,-0.485 1.096,-0.498 0.397,-0.013 0.781,0.114 1.156,0.376 0.284,0.214 0.681,0.663 1.205,1.344 0.519,0.681 0.755,1.239 0.715,1.671 -0.043,0.354 -0.318,0.782 -0.82,1.293 -0.502,0.514 -1.157,0.362 -1.955,-0.446 -0.096,-0.087 -0.332,-0.362 -0.716,-0.825 -0.384,-0.467 -0.681,-0.864 -0.882,-1.2 -0.205,-0.34 -0.305,-0.598 -0.296,-0.777z" fill="#8E8E93"/>
  <path id="1" class="fil0" d="M120.852 13.153l1.135 3.618c0.087,0.288 0.135,0.515 0.152,0.677 0.018,0.161 -0.244,0.563 -0.79,1.204l-0.986 1.161c-0.589,0.699 -0.881,1.297 -0.886,1.786 -0.004,0.488 0.101,0.981 0.323,1.475 0.153,0.366 0.336,0.689 0.55,0.964 0.214,0.28 0.314,0.476 0.297,0.599 -0.07,0.331 -0.419,0.488 -1.052,0.471 -1.183,-0.018 -1.908,-0.162 -2.174,-0.433 -0.262,-0.274 -0.41,-0.571 -0.445,-0.898l-0.14 -1.419c-0.139,-0.153 -0.279,-0.236 -0.432,-0.253 -0.148,-0.018 -0.423,-0.005 -0.824,0.035l-4.435 0.55c-0.991,0.131 -1.728,-0.009 -2.213,-0.419 -0.484,-0.411 -0.724,-1.118 -0.716,-2.126 0.009,-0.602 0.105,-1.043 0.288,-1.313 0.184,-0.276 0.35,-0.454 0.507,-0.538l0.728 -0.349c0.101,-0.109 0.162,-0.235 0.184,-0.379 0.022,-0.149 0.03,-0.694 0.03,-1.637l0 -8.646c0,-0.546 -0.034,-0.877 -0.113,-0.995l-0.921 -0.55c-0.24,-0.162 -0.415,-0.428 -0.532,-0.795 -0.114,-0.366 -0.171,-0.807 -0.171,-1.322 0,-0.515 0.062,-0.947 0.179,-1.288 0.205,-0.576 0.494,-0.921 0.869,-1.026 0.375,-0.109 0.917,-0.161 1.624,-0.161l12.316 0.052c0.376,0.009 0.668,0.035 0.886,0.083 0.219,0.044 0.441,0.184 0.673,0.406 0.231,0.227 0.336,0.441 0.318,0.646 -0.026,0.249 -0.166,0.375 -0.419,0.384l-2.086 0.092c-0.358,0.017 -0.729,0.118 -1.104,0.305 -0.38,0.188 -0.768,0.489 -1.161,0.908 -0.389,0.419 -0.603,1.161 -0.633,2.23 -0.026,1.07 0.122,2.345 0.454,3.82l0.615 2.736 0.105 0.345zm-6.407 3.632c0.008,0.322 0.078,0.506 0.218,0.541 0.135,0.039 0.436,0.056 0.903,0.048 0.965,0 1.449,-0.14 1.454,-0.411 0.004,-0.274 -0.044,-0.467 -0.149,-0.576 -0.152,-0.152 -0.484,-0.227 -0.995,-0.218 -0.519,0.018 -0.894,0.039 -1.121,0.066 -0.223,0.026 -0.328,0.209 -0.31,0.55zm0.013 -5.09c-0.009,0.035 0,0.092 0.03,0.179 0.031,0.083 0.109,0.166 0.245,0.249 0.131,0.083 0.454,0.114 0.964,0.096 0.511,-0.009 0.851,-0.03 1.022,-0.07 0.17,-0.039 0.257,-0.152 0.262,-0.345 0.004,-0.192 -0.035,-0.34 -0.123,-0.44 -0.1,-0.114 -0.524,-0.171 -1.266,-0.175 -0.741,-0.004 -1.117,0.166 -1.134,0.506zm0.022 -5.229c-0.005,0.057 0.021,0.166 0.087,0.319 0.061,0.153 0.34,0.223 0.833,0.205l1.013 -0.026c0.393,-0.035 0.589,-0.148 0.594,-0.345 0.004,-0.196 -0.04,-0.345 -0.136,-0.449 -0.126,-0.127 -0.301,-0.188 -0.528,-0.184 -0.227,0.005 -0.55,-0.004 -0.964,-0.026 -0.419,-0.022 -0.672,0.031 -0.764,0.162 -0.087,0.126 -0.135,0.24 -0.135,0.344zm16.14 7.49l-1.039 2.431c-0.065,0.162 -0.109,0.328 -0.131,0.498 -0.022,0.17 0.227,0.524 0.747,1.06l1.37 1.436c0.511,0.546 0.834,0.965 0.969,1.258 0.135,0.296 0.205,0.624 0.205,0.99 -0.009,0.795 -0.428,1.619 -1.257,2.475 -0.834,0.855 -1.955,0.611 -3.37,-0.733l-0.96 -0.908c-0.323,-0.301 -0.545,-0.441 -0.659,-0.424 -0.113,0.018 -0.218,0.079 -0.314,0.179l-1.213 1.305c-0.642,0.681 -1.27,1.017 -1.894,1.004 -0.62,-0.013 -1.118,-0.205 -1.485,-0.576 -0.366,-0.371 -0.637,-0.751 -0.816,-1.139 -0.179,-0.388 -0.261,-0.716 -0.248,-0.982 0.013,-0.271 0.078,-0.541 0.196,-0.812 0.122,-0.275 0.415,-0.698 0.882,-1.266l1.1 -1.357c0.301,-0.375 0.453,-0.663 0.462,-0.869 0.009,-0.205 -0.109,-0.585 -0.353,-1.143 -0.24,-0.559 -0.489,-1.353 -0.733,-2.388l-0.908 -3.757 -0.398 -2.301c-0.052,-0.257 -0.074,-0.606 -0.069,-1.043 0.004,-0.44 0.039,-0.969 0.1,-1.593 0.065,-0.624 0.432,-1.056 1.109,-1.296 0.672,-0.245 1.401,-0.371 2.186,-0.38l4.387 -0.026 0.763 -0.013c0.044,0 0.105,0 0.179,0 0.699,0.009 1.358,0.153 1.978,0.423 0.619,0.275 0.934,0.856 0.951,1.755 0.017,0.894 -0.013,1.562 -0.087,2.003l-0.437 2.305 -0.41 1.689 -0.803 2.195zm-4.81 -4.679l0.345 1.855c0.052,0.297 0.148,0.459 0.288,0.472 0.14,0.017 0.275,-0.166 0.406,-0.55l0.305 -1.266c0.118,-0.432 0.171,-0.729 0.153,-0.882 -0.052,-0.367 -0.345,-0.55 -0.882,-0.55 -0.34,0.009 -0.541,0.07 -0.602,0.188 -0.061,0.113 -0.092,0.227 -0.096,0.336 -0.004,0.113 0.009,0.205 0.031,0.275 0.026,0.074 0.043,0.114 0.052,0.122z" fill="#8E8E93"/>
  <path id="2" class="fil0" d="M148.89 10.848l7.516 0.053c0.633,0.009 1.205,-0.113 1.715,-0.371 0.511,-0.253 0.895,-0.611 1.153,-1.074 0.253,-0.458 0.414,-0.715 0.475,-0.768 0.066,-0.048 0.184,-0.074 0.354,-0.074 0.222,0.009 0.432,0.109 0.628,0.301 0.197,0.192 0.336,0.445 0.428,0.764 0.088,0.323 0.136,0.869 0.14,1.645 0.004,0.777 -0.358,1.205 -1.083,1.292 -0.109,0.018 -0.371,-0.031 -0.785,-0.135 -0.411,-0.105 -1.126,-0.166 -2.139,-0.17l-5.412 -0.014c-0.93,0 -1.667,0.258 -2.213,0.778 -0.546,0.519 -0.829,1.217 -0.847,2.09 -0.021,0.873 0.219,1.746 0.721,2.615l0.894 1.575c0.035,0.066 0.053,0.135 0.057,0.205 0.004,0.066 -0.017,0.149 -0.07,0.24 -0.026,0.044 -0.336,0.28 -0.938,0.712 -0.603,0.432 -0.943,0.82 -1.022,1.17 -0.082,0.349 -0.122,0.65 -0.122,0.908 -0.008,0.597 0.136,1.117 0.432,1.557 0.301,0.446 0.433,0.721 0.397,0.834 -0.065,0.196 -0.27,0.284 -0.61,0.266 -0.625,-0.017 -1.031,-0.091 -1.223,-0.226 -0.192,-0.14 -0.322,-0.262 -0.392,-0.372l-0.459 -0.846c-0.17,-0.118 -0.698,-0.144 -1.584,-0.074l-4.426 0.344c-1.161,0.092 -1.951,-0.035 -2.374,-0.392 -0.419,-0.354 -0.624,-0.887 -0.607,-1.602 0.009,-0.446 0.109,-0.782 0.297,-1.013 0.188,-0.227 0.384,-0.389 0.585,-0.471l0.921 -0.232c0.087,-0.034 0.179,-0.091 0.275,-0.17 0.1,-0.083 0.148,-0.781 0.148,-2.091l0 -2.496c0,-1.388 0,-2.165 0,-2.331 0,-0.166 -0.048,-0.301 -0.14,-0.406 -0.078,-0.074 -0.2,-0.135 -0.37,-0.178l-1.087 -0.18c-0.232,-0.074 -0.415,-0.192 -0.55,-0.349 -0.136,-0.157 -0.244,-0.358 -0.319,-0.593 -0.079,-0.24 -0.127,-0.677 -0.144,-1.305 -0.013,-0.633 0.113,-1.083 0.384,-1.358 0.275,-0.27 0.533,-0.401 0.781,-0.384 0.171,0.017 0.332,0.096 0.485,0.231l0.589 0.948c0.113,0.161 0.349,0.366 0.712,0.611 0.362,0.248 0.947,0.384 1.758,0.41l2.314 0.078 4.757 0.048zm-3.299 8.52l-1.458 0c-0.223,0 -0.371,0.053 -0.45,0.166 -0.074,0.109 -0.117,0.24 -0.126,0.397 -0.009,0.153 0.039,0.275 0.139,0.371 0.053,0.057 0.175,0.105 0.367,0.144 0.192,0.039 0.319,0.053 0.375,0.048 1.227,-0.087 1.886,-0.183 1.977,-0.288 0.088,-0.109 0.136,-0.227 0.14,-0.353 0.005,-0.127 -0.039,-0.24 -0.135,-0.341 -0.092,-0.096 -0.371,-0.144 -0.829,-0.144zm-2.021 -6.307c-0.009,0.018 -0.013,0.066 -0.009,0.136 0.005,0.074 0.065,0.17 0.179,0.288 0.118,0.118 0.563,0.161 1.34,0.126l0.65 0.013c0.349,0 0.581,-0.056 0.69,-0.179 0.113,-0.117 0.166,-0.231 0.166,-0.344 -0.018,-0.314 -0.293,-0.476 -0.829,-0.485 -0.018,0 -0.044,0 -0.079,0.005 -0.031,0.004 -0.057,0.004 -0.074,-0.005l-1.406 -0.013c-0.222,0.009 -0.375,0.044 -0.462,0.109 -0.088,0.061 -0.14,0.179 -0.166,0.349zm0.013 3.378c-0.017,0.154 0.026,0.28 0.135,0.376 0.105,0.1 0.616,0.153 1.528,0.162 0.912,0.008 1.362,-0.162 1.353,-0.511 -0.009,-0.096 -0.061,-0.192 -0.166,-0.297 -0.1,-0.1 -0.367,-0.157 -0.79,-0.166l-1.436 -0.013c-0.288,0.026 -0.463,0.083 -0.524,0.166 -0.057,0.087 -0.091,0.179 -0.1,0.283zm0.576 -6.472l-2.126 -0.061c-1.217,-0.035 -1.911,-0.402 -2.081,-1.096 -0.171,-0.694 -0.254,-1.492 -0.245,-2.396l0.013 -2.326c0,-1.043 0.21,-1.75 0.629,-2.13 0.414,-0.38 1.182,-0.568 2.3,-0.568l10.972 0.075c1.847,0.017 2.99,0.074 3.427,0.174 0.432,0.096 0.781,0.288 1.043,0.567 0.257,0.284 0.427,0.607 0.502,0.978 0.078,0.371 0.113,0.891 0.105,1.554l-0.014 1.305 -0.039 1.929c-0.017,0.607 -0.192,1.074 -0.524,1.401 -0.331,0.328 -0.702,0.515 -1.104,0.559 -0.406,0.039 -0.947,0.057 -1.619,0.048l-11.239 -0.013zm2.248 -2.392l5.744 0.066c0.187,0.008 0.502,0.021 0.951,0.034 0.449,0.009 0.738,-0.043 0.869,-0.17 0.135,-0.122 0.196,-0.292 0.187,-0.511 -0.008,-0.218 -0.327,-0.327 -0.96,-0.336l-6.268 -0.026c-1.335,0 -2.073,0.018 -2.208,0.048 -0.14,0.035 -0.236,0.088 -0.288,0.162 -0.057,0.074 -0.087,0.157 -0.092,0.257 -0.004,0.096 0.04,0.201 0.131,0.306 0.088,0.105 0.734,0.166 1.934,0.17zm-0.114 -2.758l6.687 0.034c0.537,0.009 0.855,-0.03 0.951,-0.117 0.101,-0.092 0.149,-0.192 0.144,-0.301 -0.004,-0.114 -0.048,-0.214 -0.122,-0.315 -0.078,-0.096 -0.572,-0.153 -1.484,-0.161l-7.097 -0.061c-0.528,0 -0.833,0.052 -0.921,0.165 -0.083,0.11 -0.126,0.21 -0.122,0.293 0.005,0.087 0.057,0.183 0.153,0.297 0.1,0.109 0.703,0.166 1.811,0.166zm4.26 16.083l1.161 -0.663c0.196,-0.109 0.292,-0.232 0.288,-0.358 -0.004,-0.127 -0.052,-0.266 -0.148,-0.41l-1.1 -1.524c-0.271,-0.366 -0.502,-0.824 -0.69,-1.383 -0.187,-0.559 -0.27,-1.017 -0.253,-1.375 0.018,-0.624 0.179,-1.074 0.485,-1.349 0.305,-0.279 0.637,-0.462 0.99,-0.55 0.354,-0.091 1.449,-0.126 3.283,-0.109l3.168 0.04c1.021,0.013 1.663,0.152 1.921,0.405 0.253,0.258 0.436,0.507 0.541,0.756 0.105,0.248 0.161,0.497 0.166,0.75 0.004,0.249 -0.07,0.637 -0.223,1.161 -0.153,0.524 -0.327,0.947 -0.524,1.275l-1.012 1.636c-0.127,0.21 -0.192,0.371 -0.197,0.472 -0.004,0.1 0.175,0.253 0.541,0.449l1.231 0.69c0.441,0.244 0.738,0.515 0.895,0.803 0.153,0.292 0.231,0.681 0.236,1.17 0.004,0.493 -0.205,0.934 -0.629,1.331 -0.419,0.397 -0.873,0.602 -1.361,0.62 -0.485,0.017 -0.987,-0.14 -1.506,-0.472l-1.947 -1.226c-0.213,-0.131 -0.397,-0.201 -0.563,-0.214 -0.161,-0.013 -0.646,0.332 -1.449,1.03 -0.807,0.698 -1.632,0.995 -2.475,0.882 -0.484,-0.052 -0.934,-0.258 -1.344,-0.624 -0.406,-0.367 -0.615,-0.782 -0.624,-1.235 -0.009,-0.459 0.043,-0.826 0.153,-1.1 0.109,-0.28 0.44,-0.568 0.986,-0.878zm3.618 -4.307c-0.008,0.034 0.075,0.192 0.254,0.48 0.179,0.283 0.357,0.44 0.536,0.466 0.179,0.027 0.397,-0.104 0.655,-0.392 0.253,-0.284 0.367,-0.476 0.336,-0.581 -0.026,-0.1 -0.083,-0.183 -0.157,-0.244 -0.079,-0.048 -0.245,-0.075 -0.502,-0.075l-0.419 -0.012c-0.436,0 -0.672,0.117 -0.703,0.358z" fill="#8E8E93"/>
  <path id="3" class="fil0" d="M169.243 12.869l-1.829 0c-1.03,0 -1.532,-0.637 -1.506,-1.916 0.004,-0.65 0.113,-1.095 0.323,-1.335 0.209,-0.245 0.401,-0.397 0.571,-0.454l1.148 -0.284c0.105,-0.1 0.158,-0.196 0.162,-0.288 0.004,-0.087 0,-0.17 -0.009,-0.249 -0.039,-0.305 -0.096,-0.497 -0.157,-0.576 -0.065,-0.074 -0.131,-0.14 -0.201,-0.192l-0.689 -0.266c-0.11,-0.061 -0.266,-0.223 -0.467,-0.493 -0.201,-0.266 -0.28,-0.804 -0.236,-1.602 0.026,-0.685 0.161,-1.144 0.41,-1.375 0.245,-0.236 0.485,-0.358 0.716,-0.367l2.405 -0.074c0.109,0 0.196,-0.03 0.262,-0.087 0.061,-0.053 0.113,-0.114 0.144,-0.183l0.105 -0.69c0.043,-0.214 0.222,-0.467 0.537,-0.755 0.314,-0.288 0.977,-0.437 1.981,-0.437 0.982,0.009 1.611,0.136 1.894,0.38 0.279,0.24 0.445,0.445 0.498,0.607l0.166 0.794c0.126,0.188 0.379,0.284 0.755,0.293l1.431 0.039c1.091,0.035 1.62,0.772 1.585,2.221 -0.026,0.712 -0.206,1.21 -0.537,1.498l-0.869 0.563c-0.144,0.178 -0.209,0.427 -0.192,0.742 0,0.187 0.031,0.314 0.088,0.384 0.061,0.07 0.135,0.118 0.218,0.152l0.69 0.271c0.427,0.271 0.641,0.847 0.641,1.724 -0.009,1.218 -0.493,1.842 -1.458,1.868l-2.034 0.065c-0.375,0.014 -0.558,0.153 -0.549,0.406 0,0.258 0.196,0.389 0.589,0.398l1.61 0.052c0.598,0.026 1.035,0.175 1.309,0.445 0.28,0.275 0.446,0.834 0.507,1.685 0.061,0.847 -0.044,1.397 -0.315,1.65 -0.266,0.249 -0.475,0.358 -0.619,0.323 -0.083,-0.009 -0.367,-0.223 -0.842,-0.651 -0.481,-0.427 -1.052,-0.676 -1.729,-0.755 -0.493,-0.043 -0.982,0.048 -1.462,0.271 -0.48,0.218 -0.886,0.506 -1.213,0.86 -0.332,0.353 -0.52,0.772 -0.572,1.253 -0.048,0.484 -0.04,0.859 0.035,1.134 0.069,0.271 0.349,0.629 0.833,1.074l1.484 1.405c0.214,0.214 0.315,0.411 0.297,0.589l-0.192 0.459 -0.039 0.846c-0.035,0.21 -0.153,0.428 -0.358,0.651 -0.205,0.223 -0.781,0.353 -1.728,0.397 -1.271,0.07 -2.113,0.013 -2.523,-0.166 -0.415,-0.179 -0.677,-0.38 -0.795,-0.594 -0.113,-0.218 -0.192,-0.493 -0.231,-0.824 -0.035,-0.336 -0.052,-0.625 -0.043,-0.873 0,-0.69 0.113,-1.187 0.331,-1.489 0.223,-0.301 0.445,-0.484 0.668,-0.541l0.332 -0.091c0.091,-0.053 0.2,-0.214 0.318,-0.485 0.118,-0.275 0.188,-0.593 0.201,-0.96 0.009,-0.367 -0.161,-0.79 -0.519,-1.266 -0.546,-0.689 -1.257,-1.034 -2.135,-1.034 -0.366,0.009 -0.694,0.105 -0.982,0.288 -0.283,0.183 -0.484,0.279 -0.598,0.283 -0.117,0.009 -0.301,-0.148 -0.558,-0.471 -0.253,-0.323 -0.38,-0.803 -0.371,-1.431 0,-0.275 0.035,-0.555 0.096,-0.843 0.065,-0.292 0.231,-0.572 0.493,-0.838 0.266,-0.27 0.999,-0.375 2.208,-0.314 1.205,0.061 1.812,-0.009 1.816,-0.197 0.005,-0.192 -0.039,-0.331 -0.122,-0.418 -0.096,-0.075 -0.197,-0.127 -0.31,-0.158 -0.109,-0.03 -0.397,-0.048 -0.868,-0.048zm3.736 -5.778c-0.529,0 -0.838,0.048 -0.921,0.148 -0.088,0.096 -0.131,0.188 -0.136,0.275 -0.004,0.083 -0.004,0.131 0.005,0.14 0,0.222 0.052,0.519 0.148,0.895 0.1,0.375 0.205,0.615 0.319,0.715 0.117,0.105 0.314,0.144 0.597,0.131 0.236,-0.009 0.45,-0.083 0.638,-0.227 0.188,-0.139 0.31,-0.449 0.371,-0.925 0.061,-0.48 0.009,-0.786 -0.149,-0.93 -0.157,-0.139 -0.449,-0.214 -0.872,-0.222zm-4.684 16.79c-0.349,-0.087 -0.619,-0.174 -0.811,-0.262 -0.192,-0.091 -0.415,-0.257 -0.673,-0.497 -0.253,-0.244 -0.445,-0.506 -0.571,-0.79 -0.131,-0.28 -0.184,-0.594 -0.166,-0.939 0.017,-0.344 0.109,-0.685 0.279,-1.016l0.615 -1.24c0.171,-0.349 0.42,-0.629 0.747,-0.838 0.327,-0.209 0.668,-0.306 1.017,-0.288 0.288,0.026 0.593,0.161 0.912,0.401 0.323,0.245 0.484,0.528 0.489,0.852 0.004,0.322 -0.118,0.584 -0.367,0.781l-0.763 0.423c-0.184,0.135 -0.332,0.349 -0.459,0.646 -0.122,0.293 -0.205,0.585 -0.253,0.873 -0.048,0.293 -0.061,0.524 -0.044,0.703l0.048 1.191zm5.46 -3.876l-0.266 -0.536c-0.044,-0.075 -0.078,-0.249 -0.104,-0.515 -0.022,-0.271 0.2,-0.62 0.68,-1.044 0.476,-0.427 0.943,-0.637 1.393,-0.628 0.248,0.009 0.493,0.079 0.742,0.209 0.248,0.136 0.537,0.341 0.864,0.616 0.327,0.279 0.655,0.576 0.977,0.903 0.323,0.323 0.485,0.712 0.485,1.161 -0.009,0.428 -0.223,0.86 -0.637,1.301 -0.419,0.436 -0.847,0.65 -1.279,0.633 -0.266,0 -0.511,-0.066 -0.738,-0.188 -0.227,-0.122 -0.541,-0.388 -0.951,-0.798l-1.166 -1.114zm8.481 0.756l-0.437 1.562c-0.536,1.925 -1.466,2.898 -2.789,2.924 -0.262,0.009 -0.68,-0.052 -1.252,-0.192 -0.572,-0.135 -0.973,-0.301 -1.209,-0.497 -0.232,-0.197 -0.358,-0.424 -0.376,-0.685 -0.017,-0.258 0.031,-0.454 0.14,-0.581 0.061,-0.065 0.301,-0.135 0.716,-0.205 0.419,-0.065 0.847,-0.257 1.287,-0.576 0.437,-0.315 0.756,-0.664 0.952,-1.048 0.196,-0.384 0.301,-0.807 0.318,-1.278 0.009,-0.385 -0.052,-0.729 -0.192,-1.035 -0.135,-0.306 -0.2,-0.498 -0.192,-0.576 0.009,-0.083 0.158,-0.292 0.441,-0.629 0.288,-0.331 0.459,-0.724 0.52,-1.174 0.061,-0.454 0.1,-0.833 0.113,-1.152 0.009,-0.367 -0.091,-0.838 -0.305,-1.419 -0.214,-0.58 -0.31,-0.881 -0.293,-0.907 0.009,-0.018 0.053,-0.092 0.136,-0.223 0.078,-0.131 0.161,-0.31 0.248,-0.533 0.083,-0.222 0.157,-0.453 0.214,-0.693 0.061,-0.245 0.092,-0.563 0.092,-0.956 -0.009,-0.581 -0.07,-1.008 -0.179,-1.283 -0.109,-0.28 -0.188,-0.459 -0.231,-0.546l-0.42 -0.624c-0.052,-0.07 -0.087,-0.136 -0.104,-0.201 -0.018,-0.061 0.148,-0.423 0.497,-1.078 0.079,-0.153 0.157,-0.423 0.232,-0.812 0.078,-0.388 0.113,-0.759 0.104,-1.108 -0.008,-0.101 -0.017,-0.192 -0.026,-0.267l-0.283 -1.584c0.069,-0.122 0.2,-0.236 0.397,-0.345l2.086 -0.476 3.13 -0.755 1.78 -0.432c0.537,-0.131 1.052,0.022 1.545,0.454 0.493,0.428 0.777,0.886 0.851,1.375 0.07,0.485 0.109,0.816 0.109,0.995 -0.017,0.642 -0.209,1.192 -0.576,1.65 -0.366,0.458 -1.248,0.821 -2.645,1.074l-3.225 0.602c-0.126,0.026 -0.232,0.092 -0.318,0.196 -0.084,0.11 -0.127,0.236 -0.123,0.393 0.005,0.153 0.053,0.279 0.149,0.38 0.091,0.105 0.493,0.153 1.2,0.144l4.094 -0.026c0.571,0 1.043,0.157 1.414,0.467 0.366,0.31 0.541,0.986 0.515,2.025 -0.035,1.056 -0.297,1.737 -0.794,2.034l-0.677 0.266c-0.091,0.053 -0.183,0.122 -0.266,0.214 -0.087,0.087 -0.123,0.515 -0.105,1.283l0.092 4.299 0.013 4.308c0,0.393 -0.157,0.76 -0.467,1.105 -0.31,0.344 -0.908,0.514 -1.785,0.506 -0.886,0 -1.511,-0.175 -1.873,-0.52 -0.362,-0.344 -0.545,-0.877 -0.545,-1.601l-0.035 -6.613c-0.009,-1.065 -0.009,-1.715 0.004,-1.942 0.013,-0.231 0.005,-0.415 -0.03,-0.55 -0.079,-0.284 -0.232,-0.423 -0.463,-0.423 -0.205,0.008 -0.345,0.157 -0.419,0.449l-0.144 2.121 -0.253 2.61 -0.358 2.109z" fill="#8E8E93"/>
  <path id="4" class="fil0" d="M198.446 7.156c0.493,0.314 1.021,0.471 1.584,0.471 0.537,0.009 0.969,-0.082 1.292,-0.275 0.323,-0.192 0.646,-0.44 0.96,-0.746 0.162,0.118 0.346,0.28 0.55,0.48 0.206,0.201 0.319,0.55 0.345,1.048 0.027,0.497 -0.048,0.881 -0.218,1.143 -0.179,0.284 -0.829,0.672 -1.951,1.179 -1.117,0.502 -1.986,0.855 -2.601,1.065 -0.611,0.209 -1.056,0.301 -1.332,0.275 -0.824,-0.048 -1.344,-0.411 -1.558,-1.078 -0.213,-0.672 -0.314,-1.122 -0.305,-1.349 0.009,-0.31 0.096,-0.58 0.266,-0.82 0.17,-0.241 0.384,-0.42 0.633,-0.538 0.253,-0.117 0.772,-0.314 1.554,-0.589l0.781 -0.266zm5.05 -2.942l0.677 -0.908 0.833 -1.304c0.349,-0.555 0.716,-0.891 1.091,-1.009 0.38,-0.122 0.947,-0.192 1.702,-0.214 0.756,-0.017 1.327,0.236 1.72,0.764l0.41 0.563c0.153,0.127 0.502,0.188 1.048,0.179l1.65 -0.026 3.71 0.026c0.628,0.009 1.113,0.188 1.449,0.541 0.336,0.354 0.514,0.764 0.536,1.227 0.022,0.467 -0.135,0.978 -0.466,1.527 -0.289,0.472 -0.664,0.922 -1.118,1.358 -0.458,0.436 -0.816,0.724 -1.082,0.864 -0.262,0.14 -0.568,0.209 -0.908,0.209 -0.271,0.009 -0.607,-0.052 -1.008,-0.178 -0.402,-0.127 -0.725,-0.328 -0.965,-0.594 -0.244,-0.271 -0.354,-0.537 -0.327,-0.799 0,-0.044 0.009,-0.092 0.026,-0.14l0.423 -0.82c0.022,-0.07 0.04,-0.135 0.044,-0.196 0.004,-0.066 -0.035,-0.153 -0.109,-0.258 -0.079,-0.105 -0.201,-0.161 -0.371,-0.166 -0.17,-0.004 -0.345,0.066 -0.524,0.21 -0.153,0.139 -0.314,0.358 -0.489,0.668 -0.17,0.305 -0.248,0.589 -0.24,0.855 0,0.437 0.136,0.786 0.402,1.048 0.27,0.266 0.698,0.576 1.292,0.942 0.593,0.362 1.274,0.515 2.038,0.463 0.318,-0.013 0.567,-0.061 0.751,-0.14 0.183,-0.074 0.563,-0.283 1.143,-0.619 0.581,-0.336 1.043,-0.332 1.392,0.021 0.35,0.349 0.524,0.76 0.524,1.24 -0.008,0.654 -0.196,1.165 -0.567,1.532 -0.371,0.366 -0.733,0.598 -1.091,0.689 -0.411,0.123 -0.961,0.105 -1.65,-0.048 -0.694,-0.152 -1.401,-0.41 -2.126,-0.763 -0.724,-0.354 -1.418,-0.703 -2.082,-1.048 -0.668,-0.345 -1.091,-0.502 -1.278,-0.467 -0.188,0.035 -0.489,0.175 -0.895,0.423l-1.432 0.869c-0.41,0.257 -0.881,0.463 -1.409,0.62 -0.529,0.157 -0.956,0.244 -1.293,0.262 -0.654,0.043 -1.152,-0.031 -1.488,-0.227 -0.336,-0.197 -0.502,-0.345 -0.493,-0.437 0,-0.069 0.061,-0.148 0.179,-0.244l0.297 -0.179c0.135,-0.083 0.279,-0.24 0.432,-0.467 0.153,-0.223 0.262,-0.423 0.319,-0.594l0.257 -0.947c0.061,-0.109 0.157,-0.187 0.293,-0.227l1.344 -0.039c0.607,-0.061 1.196,-0.415 1.763,-1.061l0.463 -0.523c0.384,-0.384 0.55,-0.681 0.497,-0.886 -0.052,-0.206 -0.183,-0.31 -0.401,-0.319 -0.218,-0.009 -0.411,0.061 -0.581,0.205l-0.72 0.808c-0.546,0.576 -1.13,0.855 -1.763,0.829 -0.153,0 -0.428,-0.053 -0.825,-0.153 -0.397,-0.105 -0.725,-0.279 -0.982,-0.524 -0.262,-0.248 -0.41,-0.44 -0.441,-0.576l-0.118 -0.345c0.105,-0.179 0.205,-0.388 0.301,-0.628 0.096,-0.236 0.157,-0.406 0.175,-0.498l0.061 -0.371zm12.483 8.813c0.218,0.349 0.336,0.698 0.344,1.047l0.036 4.487c0,0.266 -0.009,0.523 -0.022,0.781 -0.018,0.253 -0.066,0.454 -0.144,0.602l-0.14 0.293c-0.41,-0.197 -0.978,-0.485 -1.711,-0.869 -0.733,-0.384 -1.2,-0.611 -1.397,-0.68l-1.305 -0.446 0.013 -1.239c0,-0.52 -0.078,-0.9 -0.235,-1.135 -0.158,-0.231 -0.515,-0.45 -1.065,-0.65 -0.555,-0.201 -1.284,-0.284 -2.187,-0.249l-2.008 0.087c-1.082,0.052 -1.824,0.153 -2.226,0.297 -0.401,0.144 -0.667,0.362 -0.807,0.659 -0.135,0.292 -0.209,0.672 -0.218,1.143l-0.061 2.047c-0.026,0.577 -0.105,0.978 -0.232,1.201 -0.126,0.222 -0.349,0.397 -0.659,0.524 -0.31,0.126 -0.96,0.196 -1.951,0.2 -0.986,0 -1.584,-0.135 -1.789,-0.41 -0.205,-0.28 -0.301,-0.594 -0.293,-0.952l0.053 -5.691c0,-0.65 0.105,-1.061 0.318,-1.239l0.219 -0.206c0.519,-0.161 0.934,-0.31 1.239,-0.436 1.192,-0.044 1.982,-0.066 2.366,-0.066l0.729 0c0.126,0.07 0.327,0.175 0.602,0.31 0.271,0.136 0.689,0.214 1.253,0.236 0.563,0.022 1.043,-0.052 1.444,-0.223l0.358 -0.165 0.345 -0.144 5.844 0.012 0.445 0c0.681,0.328 1.628,0.616 2.842,0.874zm-0.563 12.465c-0.376,0.017 -0.869,-0.109 -1.471,-0.375 -0.607,-0.271 -1.183,-0.564 -1.728,-0.886 -0.546,-0.319 -1.092,-0.616 -1.642,-0.895 -0.55,-0.275 -0.947,-0.59 -1.191,-0.943 -0.24,-0.354 -0.293,-0.799 -0.144,-1.327 0.074,-0.279 0.257,-0.572 0.541,-0.881 0.288,-0.306 0.593,-0.52 0.921,-0.647 0.327,-0.122 0.742,-0.117 1.248,0.022 0.288,0.083 0.629,0.24 1.021,0.467 0.393,0.223 1.109,0.612 2.148,1.161 1.043,0.55 1.654,0.974 1.837,1.266 0.184,0.297 0.275,0.616 0.275,0.965 -0.008,0.711 -0.253,1.23 -0.728,1.562 -0.481,0.332 -0.843,0.502 -1.087,0.511zm-17.943 -3.876c0.292,0.148 0.576,0.271 0.859,0.371 0.28,0.105 0.747,0.161 1.393,0.179 1.903,0.078 3.055,-0.066 3.457,-0.428 0.406,-0.362 0.654,-0.659 0.75,-0.886 0.092,-0.231 0.162,-0.637 0.205,-1.217l0.088 -1.319c0.026,-0.388 0.056,-0.715 0.096,-0.977 0.039,-0.258 0.135,-0.502 0.288,-0.729 0.153,-0.223 0.493,-0.384 1.026,-0.476 0.004,0 0.654,-0.009 1.942,-0.022 1.288,-0.013 2.042,0.105 2.261,0.354 0.222,0.244 0.331,0.58 0.331,1.008l0 0.834c-0.371,0.253 -0.75,0.541 -1.13,0.86 -0.38,0.322 -0.664,0.724 -0.851,1.217 -0.188,0.489 -0.275,1.07 -0.266,1.746l0 0.895c-0.428,0.432 -0.838,0.785 -1.236,1.06 -0.397,0.271 -1.065,0.489 -2.007,0.647 -0.943,0.156 -2.51,0.266 -4.71,0.322 -1.671,0.053 -2.623,-0.13 -2.858,-0.55 -0.236,-0.414 -0.35,-0.798 -0.341,-1.147 0,-0.223 0.031,-0.485 0.092,-0.786 0.057,-0.306 0.139,-0.498 0.24,-0.585l0.371 -0.371zm-1.685 -18.27c-0.061,-0.214 -0.048,-0.472 0.044,-0.773 0.087,-0.305 0.309,-0.689 0.659,-1.161 0.349,-0.467 0.785,-0.733 1.318,-0.79 0.297,-0.026 0.585,0.018 0.86,0.135 0.279,0.114 0.763,0.367 1.453,0.764 0.69,0.397 1.205,0.742 1.545,1.031 0.341,0.292 0.555,0.698 0.642,1.226 0.083,0.532 -0.096,1.091 -0.537,1.685 -0.445,0.589 -0.917,0.903 -1.423,0.938 -0.663,0.061 -1.563,-0.327 -2.702,-1.157 -1.139,-0.833 -1.759,-1.466 -1.859,-1.898z" fill="#8E8E93"/>
  <path id="5" class="fil0" d="M231.076 23l-1.955 0.96c-1.109,0.541 -1.868,0.725 -2.27,0.545 -0.406,-0.178 -0.707,-0.406 -0.903,-0.68 -0.197,-0.28 -0.345,-0.594 -0.446,-0.947 -0.104,-0.354 -0.152,-0.682 -0.144,-0.978 0,-0.402 0.092,-0.716 0.271,-0.947l0.41 -0.45c0.205,-0.244 0.306,-0.537 0.306,-0.868l0 -3.772c0,-0.999 -0.022,-1.514 -0.07,-1.549 -0.048,-0.03 -0.101,-0.061 -0.161,-0.087l-1.406 -0.179c-0.341,-0.044 -0.607,-0.153 -0.795,-0.328 -0.187,-0.174 -0.296,-0.423 -0.322,-0.755 -0.031,-0.327 -0.048,-0.72 -0.048,-1.174 0,-0.458 0.048,-0.864 0.144,-1.222 0.1,-0.393 0.283,-0.707 0.541,-0.938 0.262,-0.236 0.799,-0.354 1.619,-0.354l2.619 0c0.65,0 1.135,0.17 1.458,0.507 0.327,0.336 0.493,0.79 0.502,1.361l0.008 1.69c-0.065,0.161 -0.126,0.331 -0.183,0.51 -0.057,0.179 -0.101,0.533 -0.139,1.061 -0.04,0.528 0.074,1.196 0.336,2.007l0.012 1.943c0.393,-0.136 0.703,-0.206 0.935,-0.206 0.248,0.009 0.488,0.11 0.724,0.297 0.232,0.188 0.428,0.38 0.585,0.581 0.161,0.201 0.271,0.519 0.327,0.96 0.061,0.437 0.074,0.759 0.04,0.965 -0.11,0.598 -0.328,0.982 -0.651,1.152l-1.344 0.895zm3.274 -11.802l0.052 -2.523c0.008,-0.467 0.183,-0.873 0.528,-1.213 0.345,-0.341 1.008,-0.52 1.99,-0.528 0.978,-0.014 1.65,0.148 2.008,0.488 0.358,0.341 0.541,0.812 0.55,1.41l0.026 2.414c0,0.139 0.035,0.244 0.109,0.323 0.07,0.074 0.175,0.131 0.31,0.166l0.882 0.113c0.344,0.061 0.633,0.205 0.873,0.441 0.235,0.236 0.388,0.75 0.445,1.549 0.061,0.794 -0.127,1.471 -0.563,2.025 -0.218,0.28 -0.419,0.45 -0.594,0.507 -0.175,0.052 -0.415,0.091 -0.715,0.113 -0.302,0.022 -0.498,0.07 -0.581,0.148 -0.114,0.101 -0.153,0.337 -0.122,0.703 0.03,0.367 0.021,0.908 -0.022,1.624 -0.013,0.179 -0.031,0.58 -0.048,1.2 -0.018,0.625 -0.044,1.349 -0.083,2.174 -0.039,0.829 -0.153,1.397 -0.345,1.706 -0.192,0.315 -0.471,0.533 -0.838,0.659 -0.366,0.132 -0.851,0.188 -1.445,0.18 -0.606,0 -1.078,-0.053 -1.422,-0.158 -0.341,-0.109 -0.616,-0.301 -0.83,-0.576 -0.213,-0.279 -0.314,-0.759 -0.305,-1.453l0.113 -2.545 0.027 -2.427c0.043,-0.436 0.026,-0.733 -0.053,-0.894 -0.057,-0.114 -0.135,-0.193 -0.227,-0.241 -0.096,-0.043 -0.393,-0.056 -0.899,-0.03 -0.502,0.026 -0.89,-0.1 -1.17,-0.375 -0.275,-0.28 -0.462,-0.598 -0.563,-0.96 -0.096,-0.363 -0.135,-0.76 -0.118,-1.196 0.018,-0.803 0.171,-1.345 0.467,-1.624 0.293,-0.279 0.712,-0.454 1.253,-0.511 0.541,-0.061 0.89,-0.122 1.052,-0.179 0.166,-0.061 0.249,-0.231 0.258,-0.51zm7.376 9.296l-0.319 -2.239c-0.026,-0.161 -0.039,-0.301 -0.044,-0.414 -0.004,-0.118 0.013,-0.223 0.057,-0.315 0.044,-0.104 0.275,-0.296 0.69,-0.58 0.419,-0.288 0.702,-0.703 0.851,-1.248 0.148,-0.546 0.231,-1.126 0.249,-1.746 0.017,-0.62 0.008,-1.052 -0.027,-1.297 -0.109,-0.624 -0.349,-1.064 -0.72,-1.318 -0.371,-0.257 -0.707,-0.427 -1.004,-0.51 -0.296,-0.087 -0.488,-0.175 -0.571,-0.262 -0.079,-0.092 -0.123,-0.297 -0.131,-0.62 -0.009,-0.044 0,-0.332 0.026,-0.864 0.022,-0.532 0.03,-0.895 0.022,-1.082 -0.048,-0.834 -0.41,-1.341 -1.087,-1.519l-1.466 -0.384c-0.328,-0.079 -0.834,-0.127 -1.533,-0.144 -0.694,-0.014 -1.344,0.1 -1.946,0.353 -0.607,0.253 -0.987,0.367 -1.139,0.341 -0.555,-0.062 -0.904,-0.267 -1.048,-0.616 -0.148,-0.349 -0.24,-0.672 -0.283,-0.973 -0.044,-0.297 -0.066,-0.581 -0.07,-0.847 -0.005,-0.271 0.03,-0.572 0.109,-0.904 0.117,-0.528 0.314,-0.912 0.589,-1.143 0.27,-0.236 0.886,-0.354 1.842,-0.354l6.634 0.027c0.982,0.008 1.685,0.07 2.117,0.187 0.432,0.114 0.899,0.423 1.405,0.925 0.511,0.503 0.768,1.135 0.777,1.895l0.048 6.197 0.078 2.24 0.28 3.351c0.009,0.127 0.009,0.219 0,0.276 -0.009,0.052 -0.039,0.109 -0.096,0.157 -0.052,0.052 -0.332,0.131 -0.838,0.231 -0.502,0.1 -0.864,0.227 -1.087,0.371 -0.218,0.144 -0.397,0.297 -0.528,0.463 -0.131,0.161 -0.196,0.288 -0.188,0.388 0.009,0.096 0.088,0.223 0.232,0.375 0.144,0.153 0.336,0.223 0.576,0.206 0.092,0 0.2,-0.031 0.318,-0.088l0.616 -0.384c0.161,-0.078 0.349,-0.126 0.563,-0.14 0.375,-0.017 0.724,0.07 1.052,0.267 0.331,0.196 0.619,0.432 0.864,0.703 0.249,0.275 0.384,0.611 0.401,1.017 0.022,0.406 -0.034,0.89 -0.17,1.453 -0.323,1.252 -0.711,2.077 -1.165,2.475 -0.45,0.392 -0.978,0.593 -1.58,0.598 -0.598,0.004 -1.117,-0.175 -1.554,-0.542 -0.279,-0.231 -0.519,-0.523 -0.716,-0.877 -0.192,-0.353 -0.375,-0.746 -0.55,-1.174 -0.17,-0.432 -0.27,-0.738 -0.305,-0.917l-0.231 -0.995zm-11.226 -14.617c-0.009,0.245 -0.136,0.572 -0.384,0.978 -0.245,0.406 -0.59,0.711 -1.035,0.912 -0.445,0.205 -0.781,0.31 -1.012,0.31 -0.55,0.009 -1.113,-0.31 -1.681,-0.951 -0.567,-0.646 -1.017,-1.262 -1.353,-1.842 -0.336,-0.585 -0.502,-1.052 -0.493,-1.401 0.009,-0.358 0.127,-0.694 0.349,-1.004 0.227,-0.31 0.524,-0.589 0.886,-0.834 0.363,-0.24 0.76,-0.362 1.196,-0.362 0.389,0.009 0.742,0.118 1.061,0.331 0.314,0.214 0.711,0.642 1.196,1.288 0.48,0.642 0.816,1.165 1.004,1.563 0.187,0.401 0.274,0.737 0.266,1.012z" fill="#8E8E93"/>
  <path class="fil0" d="M99.13 41.05l0 4.646 -1.603 0 0 -3.126 -14.773 0 0 3.126 -1.52 0 0 -4.646 8.187 0c-0.338,-0.731 -0.673,-1.405 -1.012,-2.025l1.69 -0.252c0.392,0.674 0.731,1.434 1.012,2.277l8.019 0zm-18.487 5.997l6.077 0c0.789,-1.408 1.408,-2.589 1.859,-3.548l1.603 0.508c-0.562,1.07 -1.099,2.082 -1.603,3.04l11.141 0 0 1.517 -4.218 0c-0.9,2.251 -1.916,4.052 -3.04,5.403 2.251,0.958 4.503,2.086 6.754,3.379l-1.012 1.351c-2.421,-1.408 -4.73,-2.59 -6.924,-3.545 -2.366,2.137 -5.572,3.264 -9.625,3.376l-0.929 -1.434c3.714,0 6.725,-0.875 9.034,-2.619 -2.082,-0.901 -4.11,-1.661 -6.08,-2.28 0.731,-1.182 1.466,-2.392 2.197,-3.631l-5.234 0 0 -1.517zm7.089 1.517c-0.673,1.127 -1.293,2.111 -1.855,2.957 1.574,0.451 3.264,1.07 5.065,1.855 1.124,-1.293 2.053,-2.896 2.784,-4.812l-5.994 0z" fill="#8E8E93"/>
  <path id="1" class="fil0" d="M112.507 58.02c-1.52,0 -2.28,-0.731 -2.28,-2.194l0 -12.41 1.52 0 0 12.071c0,0.678 0.392,1.016 1.181,1.016l4.053 0c0.562,0 0.929,-0.198 1.095,-0.594 0.285,-0.562 0.479,-2.082 0.591,-4.557l1.52 0.422c-0.224,2.982 -0.533,4.783 -0.926,5.403 -0.45,0.562 -1.098,0.843 -1.945,0.843l-4.809 0zm-3.97 -11.988c-0.619,3.717 -1.491,6.923 -2.619,9.625l-1.35 -0.843c1.127,-2.702 1.941,-5.713 2.449,-9.034l1.52 0.252zm12.41 -0.93c1.351,2.702 2.561,5.688 3.631,8.952l-1.434 0.673c-1.127,-3.487 -2.366,-6.527 -3.717,-9.117l1.52 -0.508zm-7.767 -6.077c2.028,2.14 3.545,3.97 4.561,5.487l-1.268 0.929c-1.181,-1.801 -2.702,-3.685 -4.56,-5.656l1.267 -0.76z" fill="#8E8E93"/>
  <path id="2" class="fil0" d="M140.063 42.826c-0.732,1.293 -1.55,2.362 -2.45,3.206l-1.095 -1.013c1.574,-1.574 2.785,-3.66 3.631,-6.246l1.434 0.591c-0.281,0.843 -0.533,1.52 -0.76,2.024l7.262 0 0 1.438 -8.022 0zm8.526 6.837c-0.955,0.958 -2.111,1.772 -3.462,2.449 0.901,2.082 2.169,3.825 3.801,5.234l-1.013 1.351c-3.098,-2.702 -4.953,-6.643 -5.572,-11.819 -0.843,0.169 -1.492,0.281 -1.942,0.335l0 9.456c1.351,-0.393 2.533,-0.732 3.545,-1.012l0.256 1.437c-1.352,0.45 -3.127,0.926 -5.321,1.434l-0.338 -1.434c0.226,-0.115 0.338,-0.367 0.338,-0.76l0 -10.302c2.813,-0.336 5.403,-0.955 7.766,-1.856l0.76 1.351c-1.07,0.393 -2.305,0.76 -3.713,1.095 0.169,1.521 0.479,2.9 0.929,4.139 1.124,-0.562 2.111,-1.296 2.954,-2.197l1.012 1.099zm-19.247 -7.684l3.462 0c-0.339,-1.012 -0.735,-1.942 -1.185,-2.784l1.52 -0.422c0.508,1.07 0.872,2.054 1.099,2.954l-0.678 0.252 3.632 0 0 1.52 -4.557 0 0 2.954 4.221 0c0,5.461 -0.115,8.865 -0.338,10.216 -0.227,1.297 -1.21,1.941 -2.958,1.945 -0.165,-0.004 -0.45,-0.029 -0.842,-0.086l-0.339 -1.351c0.508,0.058 0.818,0.083 0.929,0.086 1.012,-0.003 1.604,-0.396 1.772,-1.185 0.17,-0.843 0.282,-3.573 0.339,-8.188l-2.784 0c-0.17,4.842 -1.016,8.444 -2.533,10.807l-1.268 -1.012c1.521,-2.252 2.309,-5.883 2.363,-10.893l0 -3.293 -1.855 0 0 -1.52z" fill="#8E8E93"/>
  <path id="3" class="fil0" d="M155.043 39.108c1.516,1.185 2.784,2.338 3.796,3.462l-1.095 1.098c-0.9,-1.069 -2.139,-2.251 -3.717,-3.544l1.016 -1.016zm12.662 19.25c-0.732,0 -1.996,-0.028 -3.797,-0.083 -1.351,0 -2.45,-0.115 -3.296,-0.338 -0.843,-0.281 -1.603,-0.818 -2.277,-1.603 -0.281,-0.339 -0.565,-0.508 -0.846,-0.508 -0.505,0 -1.38,0.983 -2.615,2.954l-1.099 -1.012c1.127,-1.859 2.139,-2.983 3.04,-3.376l0 -6.502 -3.04 0 0 -1.437 4.474 0 0 8.105c0.169,0.115 0.338,0.256 0.508,0.425 0.562,0.674 1.124,1.124 1.689,1.351 0.616,0.335 1.574,0.533 2.868,0.591 1.52,0 2.899,0 4.139,0l1.602 0 1.607 0c1.182,-0.058 1.996,-0.087 2.446,-0.087l-0.422 1.52 -4.981 0zm-6.499 -18.234l9.96 0 0 1.433 -9.96 0 0 -1.433zm-1.268 4.978l12.831 0 0 1.438 -6.754 0c-1.181,3.094 -2.251,5.291 -3.206,6.584 2.702,-0.281 5.007,-0.673 6.924,-1.181 -0.451,-1.128 -1.016,-2.28 -1.69,-3.462l1.268 -0.421c1.182,1.97 2.223,4.246 3.123,6.837l-1.437 0.338c-0.223,-0.677 -0.45,-1.322 -0.674,-1.941 -2.309,0.562 -5.432,1.041 -9.373,1.433l-0.338 -1.351c0.9,-0.28 2.197,-2.561 3.886,-6.836l-4.56 0 0 -1.438z" fill="#8E8E93"/>
  <path id="4" class="fil0" d="M180.909 49.749c-0.731,0.785 -1.657,1.657 -2.785,2.615l-0.421 -1.603c2.871,-2.532 4.813,-4.953 5.825,-7.262l-5.321 0 0 -1.52 3.379 0c-0.393,-0.954 -0.843,-1.884 -1.351,-2.784l1.52 -0.422c0.505,1.012 0.901,1.996 1.182,2.954l-0.591 0.252 2.702 0 0 1.351c-0.562,1.578 -1.437,3.123 -2.619,4.643 1.182,0.732 2.251,1.578 3.21,2.533l-0.843 1.268c-0.735,-0.789 -1.52,-1.521 -2.367,-2.194l0 9.2 -1.52 0 0 -9.031zm14.946 -9.964l0 11.989 -1.603 0 0 -10.469 -6.081 0 0 10.469 -1.52 0 0 -11.989 9.204 0zm-2.533 18.66c-1.181,0 -1.772,-0.649 -1.772,-1.942l0 -4.812 1.516 0 0 4.474c0,0.562 0.227,0.842 0.678,0.842l1.351 0c0.338,0 0.562,-0.111 0.673,-0.338 0.169,-0.335 0.285,-1.153 0.339,-2.446l1.52 0.421c-0.169,1.801 -0.422,2.9 -0.76,3.293 -0.339,0.338 -0.843,0.508 -1.52,0.508l-2.025 0zm-2.871 -15.619l1.521 0 0 4.135c-0.112,3.21 -0.678,5.771 -1.69,7.683 -1.07,1.859 -2.759,3.264 -5.065,4.222l-0.846 -1.351c2.309,-1.012 3.886,-2.338 4.73,-3.969 0.842,-1.69 1.293,-3.883 1.35,-6.585l0 -4.135z" fill="#8E8E93"/>
  <path id="5" class="fil0" d="M206.444 38.942l1.516 0 0 2.533 2.958 0 0 1.433 -2.958 0 0 2.533 3.21 0 0 1.52 -9.117 0 0 -1.52 1.264 0 0 -4.726 1.52 0 0 4.726 1.607 0 0 -6.499zm4.978 10.13c-0.955,4.841 -3.714,8.022 -8.271,9.542l-0.929 -1.437c4.333,-1.351 6.949,-4.135 7.849,-8.357l1.351 0.252zm-6.164 0.339c-0.561,2.081 -1.235,3.631 -2.024,4.643l-1.099 -0.93c0.789,-1.124 1.38,-2.532 1.773,-4.221l1.35 0.508zm1.186 -1.607l1.516 0 0 5.659 -1.516 0 0 -5.659zm5.064 -8.019l10.216 0 0 1.434 -4.308 0c-0.111,0.789 -0.223,1.607 -0.335,2.449l3.797 0 0 10.216 -1.434 0 0 -8.782 -5.656 0 0 8.782 -1.436 0 0 -10.216 3.123 0c0.115,-0.731 0.226,-1.549 0.338,-2.449l-4.305 0 0 -1.434zm6.668 14.269c1.52,1.239 2.788,2.449 3.8,3.631l-1.181 1.095c-0.901,-1.182 -2.111,-2.446 -3.631,-3.797l1.012 -0.929zm-2.363 -7.684l1.52 0 0 3.801c-0.058,2.305 -0.533,4.164 -1.434,5.572 -0.9,1.293 -2.366,2.277 -4.391,2.954l-0.846 -1.351c1.916,-0.677 3.238,-1.549 3.97,-2.619 0.731,-1.181 1.127,-2.701 1.181,-4.556l0 -3.801z" fill="#8E8E93"/>
  <path id="6" class="fil0" d="M229.947 39.699l12.665 0 0 5.828 -12.665 0 0 -5.828zm11.062 4.477l0 -3.04 -9.456 0 0 3.04 9.456 0zm-14.437 4.727l0 -1.521 19.415 0 0 1.521 -12.917 0 -0.76 2.532 10.641 0c-0.169,3.433 -0.508,5.49 -1.016,6.163 -0.504,0.677 -1.52,1.012 -3.037,1.016 -1.069,-0.004 -2.028,-0.058 -2.871,-0.169l-0.508 -1.438c1.182,0.112 2.194,0.17 3.041,0.17 1.181,0 1.912,-0.252 2.194,-0.76 0.28,-0.45 0.478,-1.661 0.59,-3.631l-10.889 0 1.012 -3.883 -4.895 0z" fill="#8E8E93"/>
  <ellipse class="fil1" cx="30.369" cy="29.882" rx="29.725" ry="29.723" fill="#ededed"/>
  <path class="fil2" d="M14.431 21.981c0,-0.585 0.078,-3.209 0.838,-3.209 1.231,0 4.117,3.67 4.843,4.643 2.144,2.874 3.028,4.431 4.81,7.188l2.72 4.535c0.67,1.188 0.892,0.754 -0.487,3.054 -1.194,1.992 -3.361,5.403 -5.268,6.732 -1.463,1.018 -1.961,-0.183 -3.131,-3.132 -2.196,-5.536 -4.325,-13.756 -4.325,-19.811zm26.229 23.299c-1.553,0 -3.537,-2.896 -4.426,-4.085 -0.658,-0.879 -2.73,-4.099 -2.968,-5.124 2.901,-4.331 5.049,-8.966 8.908,-13.693 0.647,-0.792 2.973,-3.606 4.067,-3.606 1.654,0 0.233,9.339 0.179,9.666 -0.673,4.074 -1.721,8.066 -3.125,11.943 -0.317,0.874 -1.804,4.899 -2.635,4.899zm-30.554 -23.299c0,5.455 1.432,11.314 2.82,16.294 0.295,1.058 0.76,2.479 1.185,3.559 0.927,2.359 1.073,2.873 2.279,4.975 2.23,3.884 5.602,3.986 9.03,0.809 1.33,-1.233 2.361,-2.447 3.409,-3.985 0.347,-0.51 0.642,-0.86 0.976,-1.395 0.683,-1.091 0.506,-1.267 1.089,-1.423 0.424,1.588 4.35,6.356 6.444,7.787 2.572,1.759 4.618,1.813 6.708,-0.355 0.411,-0.426 0.68,-0.836 1.001,-1.371 3.102,-5.171 5.21,-14.305 6.019,-20.21 0.466,-3.402 0.845,-9.401 -2.089,-11.607 -3.827,-2.876 -7.636,1.827 -9.747,4.096 -1.851,1.99 -5.271,7.363 -6.809,9.933 -0.259,0.432 -0.5,0.83 -0.785,1.308 -0.246,0.411 -0.627,0.92 -0.742,1.351 -0.53,-0.142 -0.339,-0.161 -0.933,-1.16 -1.281,-2.157 -3.394,-5.664 -4.868,-7.689 -2.027,-2.785 -6.014,-8.73 -10.103,-8.73 -1.8,0 -3.14,1.297 -3.77,2.508 -0.72,1.384 -1.114,3.201 -1.114,5.305z" fill="#FA9D3B"/>
 </g>
</svg>