<?xml version="1.0" encoding="UTF-8"?>
<!DOCTYPE svg PUBLIC "-//W3C//DTD SVG 1.1//EN" "http://www.w3.org/Graphics/SVG/1.1/DTD/svg11.dtd">
<!-- Creator: CorelDRAW 2019 (64-Bit) -->
<svg xmlns="http://www.w3.org/2000/svg" xmlns:xlink="http://www.w3.org/1999/xlink" xmlns:xodm="http://www.corel.com/coreldraw/odm/2003" xml:space="preserve" width="400px" height="60px" version="1.1" style="shape-rendering:geometricPrecision; text-rendering:geometricPrecision; image-rendering:optimizeQuality; fill-rule:evenodd; clip-rule:evenodd" viewBox="0 0 400 60">
 <g id="图层_x0020_1">
  <path class="fil0" d="M86.301 18.74c-0.24,0.65 -0.449,1.2 -0.628,1.649 -0.179,0.454 -0.436,1.044 -0.772,1.777 -0.337,0.733 -0.642,1.327 -0.913,1.781 -0.275,0.449 -0.545,0.759 -0.82,0.93 -0.271,0.17 -0.559,0.261 -0.855,0.27 -0.258,0.018 -0.721,-0.087 -1.389,-0.314 -0.668,-0.227 -1.016,-0.668 -1.047,-1.323 -0.031,-0.654 0.035,-1.156 0.196,-1.497l1.611 -3.221c0.214,-0.428 0.336,-0.642 0.367,-0.646 0.03,-0.004 0.2,0.092 0.519,0.288 0.314,0.196 0.847,0.293 1.597,0.293l2.134 0.013zm1.38 -11.881l0.013 -3.937c0,-0.75 0.153,-1.313 0.45,-1.693 0.296,-0.38 0.999,-0.559 2.107,-0.546 0.708,0.018 1.188,0.066 1.432,0.144 0.249,0.074 0.445,0.188 0.589,0.336 0.144,0.149 0.228,0.306 0.245,0.467l0.1 0.782 5.639 0c1.244,0 2.004,0.017 2.27,0.056 0.27,0.04 0.519,0.171 0.755,0.398 0.236,0.227 0.375,0.589 0.423,1.091 0.048,0.506 0.031,0.912 -0.043,1.231 -0.105,0.406 -0.258,0.702 -0.467,0.881 -0.21,0.179 -0.507,0.293 -0.891,0.345l-2.479 -0.026 -4.591 0c-0.249,0 -0.402,0.004 -0.463,0.013 -0.057,0.009 -0.122,0.043 -0.196,0.101 -0.074,0.06 -0.11,0.209 -0.114,0.444 -0.004,0.232 0.026,0.38 0.088,0.441 0.065,0.057 0.192,0.088 0.379,0.088l4.753 0.052c1.27,0.018 2.052,0.179 2.344,0.484 0.288,0.306 0.436,0.69 0.445,1.153l0.026 5.613c0,0.742 -0.117,1.422 -0.353,2.038 -0.232,0.62 -0.873,0.925 -1.925,0.917l-11.147 -0.04c-1.75,0 -2.837,-0.026 -3.269,-0.083 -0.428,-0.056 -0.755,-0.2 -0.978,-0.427 -0.222,-0.232 -0.358,-0.459 -0.41,-0.681 -0.048,-0.218 -0.074,-0.843 -0.074,-1.864l0 -4.413c0,-0.982 0.187,-1.685 0.563,-2.117 0.375,-0.432 1.043,-0.65 2.007,-0.659l2.414 -0.013c0.131,0 0.218,-0.017 0.271,-0.056 0.052,-0.04 0.078,-0.21 0.087,-0.52zm-0.24 7.302l7.262 0.027c0.306,0.008 0.498,-0.031 0.568,-0.114 0.074,-0.087 0.118,-0.201 0.135,-0.345l-0.052 -0.868c-0.009,-0.018 -0.009,-0.048 0,-0.092l0.026 -0.781c0,-0.048 0,-0.105 0,-0.166 -0.009,-0.214 -0.048,-0.358 -0.113,-0.432 -0.07,-0.079 -0.184,-0.127 -0.345,-0.144 -0.018,0 -0.127,0.008 -0.323,0.026 -0.196,0.017 -0.45,0.017 -0.76,0 -0.31,-0.018 -0.995,-0.026 -2.051,-0.026l-3.234 0 -0.921 -0.022c-0.179,0.065 -0.284,0.144 -0.314,0.227 -0.031,0.087 -0.044,0.166 -0.044,0.244 -0.009,0.109 -0.009,0.223 0.004,0.341 0.013,0.113 0.018,0.192 0.013,0.235 -0.004,0.04 -0.03,0.284 -0.083,0.72 -0.052,0.441 -0.017,0.76 0.101,0.956l0.131 0.214zm2.618 4.671l0.694 0.034 0.293 3.121c0.052,0.607 0.065,1.104 0.044,1.497 -0.022,0.393 -0.184,0.777 -0.493,1.153 -0.306,0.375 -1.009,0.532 -2.109,0.471 -1.2,-0.053 -1.793,-0.559 -1.776,-1.524l0.026 -2.671 0.869 -2.047 2.452 -0.034zm1.869 0.034l3.95 0c-0.048,0.258 -0.066,0.402 -0.048,0.437l0.126 0.563 0.65 1.789c0.24,0.673 0.363,1.209 0.372,1.611 0.008,0.401 -0.149,0.79 -0.48,1.169 -0.328,0.38 -0.847,0.581 -1.563,0.603 -0.716,0.022 -1.283,-0.157 -1.698,-0.533 -0.41,-0.375 -0.677,-1.012 -0.799,-1.915l-0.51 -3.724zm9.514 -0.139l1.113 1.854c0.638,1.066 0.947,1.891 0.926,2.467 -0.022,0.58 -0.232,1.078 -0.624,1.483 -0.398,0.411 -0.86,0.642 -1.384,0.694 -0.524,0.049 -0.951,-0.048 -1.283,-0.296 -0.196,-0.136 -0.537,-0.598 -1.026,-1.379 -0.484,-0.786 -0.729,-1.183 -0.729,-1.192l-0.921 -1.763c-0.161,-0.258 -0.253,-0.441 -0.279,-0.55l-0.192 -0.908c-0.017,-0.026 -0.026,-0.057 -0.031,-0.092 -0.004,-0.03 0.075,-0.065 0.236,-0.1l0.795 0.026c0.065,0 0.2,-0.022 0.401,-0.065 0.201,-0.044 0.485,-0.083 0.855,-0.127 0.371,-0.043 0.734,-0.197 1.083,-0.467 0.349,-0.271 0.528,-0.402 0.541,-0.397 0.013,0.004 0.188,0.275 0.519,0.812z" fill="#8E8E93"/>
  <path id="1" class="fil0" d="M126.744 20.197l0 -2.684c0,-0.428 0.074,-0.829 0.223,-1.204 0.153,-0.371 0.34,-0.659 0.563,-0.856 0.227,-0.196 0.733,-0.292 1.514,-0.292 0.616,0.009 1.074,0.078 1.375,0.218 0.306,0.135 0.576,0.358 0.812,0.663 0.24,0.306 0.362,0.638 0.371,0.995l0.013 5.949c0,0.42 -0.061,0.83 -0.183,1.236 -0.127,0.401 -0.38,0.676 -0.764,0.816 -0.38,0.139 -0.86,0.209 -1.432,0.209l-16.354 0c-1.244,0 -1.977,-0.118 -2.204,-0.362 -0.227,-0.244 -0.371,-0.489 -0.428,-0.742 -0.061,-0.253 -0.087,-0.672 -0.078,-1.261l0.013 -5.395c0,-0.419 0.052,-0.764 0.161,-1.043 0.105,-0.275 0.341,-0.554 0.707,-0.829 0.367,-0.28 0.882,-0.406 1.537,-0.393 0.545,0.026 1.034,0.161 1.471,0.406 0.432,0.24 0.72,0.463 0.855,0.659 0.135,0.196 0.21,0.563 0.218,1.1l0.026 2.531c0,0.367 0.035,0.581 0.11,0.651 0.069,0.07 0.274,0.1 0.606,0.1l2.148 0c0.153,0 0.257,-0.018 0.305,-0.061 0.052,-0.044 0.079,-0.297 0.079,-0.755l-0.013 -4.858c-0.009,-0.341 -0.053,-0.555 -0.127,-0.642 -0.079,-0.083 -0.371,-0.126 -0.881,-0.126l-6.87 0c-0.716,0 -1.218,-0.14 -1.506,-0.415 -0.293,-0.279 -0.472,-0.812 -0.546,-1.606 -0.074,-0.794 0.057,-1.384 0.389,-1.776 0.427,-0.502 1.143,-0.756 2.151,-0.756l6.726 0c0.28,0 0.458,-0.021 0.528,-0.065 0.074,-0.039 0.118,-0.087 0.131,-0.14 0.009,-0.052 0.018,-0.174 0.018,-0.371l0 -0.523c-0.035,-0.092 -0.079,-0.162 -0.135,-0.197 -0.057,-0.039 -0.236,-0.061 -0.542,-0.061l-5.935 0c-0.442,0 -0.795,-0.074 -1.053,-0.227 -0.261,-0.153 -0.454,-0.388 -0.584,-0.698 -0.127,-0.31 -0.192,-0.624 -0.197,-0.948 -0.004,-0.318 0.027,-0.672 0.096,-1.051 0.092,-0.537 0.253,-0.908 0.48,-1.109 0.223,-0.201 0.607,-0.301 1.144,-0.301l5.739 0c0.41,0 0.681,-0.074 0.808,-0.223 0.126,-0.148 0.188,-0.358 0.179,-0.619l-0.027 -0.306c-0.017,-0.196 0.014,-0.41 0.092,-0.641 0.127,-0.42 0.349,-0.742 0.664,-0.978 0.314,-0.236 0.799,-0.367 1.457,-0.389 0.69,-0.017 1.262,0.07 1.711,0.267 0.454,0.196 0.755,0.419 0.908,0.667 0.157,0.245 0.24,0.585 0.258,1.022 0,0.052 -0.005,0.235 -0.013,0.554 -0.009,0.323 0.008,0.511 0.043,0.563 0.039,0.057 0.476,0.083 1.314,0.083l4.565 0c1.432,0 2.156,0.424 2.178,1.266 0.022,0.847 -0.017,1.462 -0.122,1.855 -0.118,0.41 -0.288,0.715 -0.502,0.916 -0.218,0.201 -0.637,0.297 -1.248,0.297l-5.395 0c-0.463,0 -0.724,0.03 -0.79,0.083 -0.061,0.057 -0.105,0.135 -0.118,0.24 -0.017,0.101 -0.017,0.231 0,0.397 0.022,0.314 0.066,0.498 0.127,0.555 0.057,0.056 0.318,0.082 0.781,0.082l5.316 0c0.607,0 1.153,0.083 1.646,0.245 0.489,0.161 0.859,0.415 1.117,0.759 0.258,0.345 0.332,0.926 0.231,1.746 -0.078,0.546 -0.253,0.982 -0.532,1.31 -0.275,0.327 -0.807,0.493 -1.589,0.493l-6.267 0c-0.385,0 -0.594,0.021 -0.629,0.065 -0.03,0.04 -0.048,0.232 -0.048,0.572l0 5.307c0,0.266 0.018,0.415 0.057,0.45 0.039,0.035 0.183,0.048 0.441,0.048l2.226 0c0.205,0 0.336,-0.018 0.397,-0.057 0.057,-0.035 0.087,-0.175 0.087,-0.415z" fill="#8E8E93"/>
  <path id="2" class="fil0" d="M144.783 7.745l10.536 0.048c0.598,0.009 1.074,0.188 1.428,0.533 0.353,0.345 0.532,0.851 0.532,1.514 -0.009,1.227 -0.611,1.855 -1.807,1.881l-2.619 0.062c-0.275,0.008 -0.449,0.056 -0.532,0.144 -0.079,0.082 -0.131,0.178 -0.157,0.288 -0.026,0.104 -0.044,0.375 -0.053,0.812l-0.026 0.571c0,0.345 0.061,0.585 0.188,0.725 0.122,0.139 0.641,0.205 1.554,0.196l3.308 -0.021c1.253,-0.01 1.872,0.497 1.855,1.518 -0.018,0.615 -0.218,1.026 -0.602,1.235 -0.38,0.21 -0.935,0.31 -1.659,0.302l-3.775 -0.014c-0.288,0 -0.489,0.044 -0.598,0.127 -0.114,0.087 -0.179,0.183 -0.205,0.292 -0.027,0.114 -0.053,0.48 -0.079,1.1l-0.026 0.537c0.008,0.275 0.087,0.485 0.24,0.633 0.148,0.153 0.764,0.214 1.846,0.188l4.897 -0.092c0.476,-0.009 0.882,0.166 1.209,0.515 0.327,0.349 0.485,0.882 0.467,1.597 -0.035,0.922 -0.231,1.546 -0.589,1.877 -0.358,0.336 -1.31,0.498 -2.85,0.489 -3.129,0 -5.347,-0.021 -6.652,-0.065 -1.305,-0.044 -2.313,-0.223 -3.029,-0.537 -0.716,-0.314 -1.209,-0.554 -1.484,-0.716 -0.27,-0.161 -0.69,-0.436 -1.252,-0.816 -0.563,-0.384 -0.887,-0.568 -0.974,-0.55 -0.083,0.022 -0.205,0.162 -0.362,0.406 -0.157,0.249 -0.406,0.585 -0.742,1.004 -0.336,0.423 -0.676,0.768 -1.017,1.039 -0.341,0.266 -0.842,0.366 -1.51,0.296 -0.716,-0.056 -1.288,-0.301 -1.72,-0.724 -0.427,-0.428 -0.698,-0.755 -0.799,-0.982 -0.1,-0.223 -0.152,-0.498 -0.152,-0.825 0.008,-0.397 0.135,-0.838 0.384,-1.314l1.663 -2.366c0.397,-0.606 0.768,-1.344 1.104,-2.208 0.336,-0.864 0.602,-1.615 0.795,-2.248 0.192,-0.637 0.396,-1.244 0.61,-1.824 0.219,-0.581 0.887,-0.869 2.004,-0.869 0.842,0.009 1.475,0.249 1.898,0.72 0.424,0.476 0.642,0.926 0.664,1.358 0.022,0.432 -0.013,0.864 -0.109,1.296 -0.048,0.231 -0.136,0.572 -0.253,1.017 -0.123,0.449 -0.236,0.799 -0.354,1.056 -0.114,0.258 -0.17,0.463 -0.166,0.62 0.004,0.157 0.083,0.288 0.232,0.397 0.148,0.105 0.292,0.14 0.427,0.096 0.109,-0.026 0.21,-0.109 0.293,-0.257 0.087,-0.144 0.179,-0.376 0.283,-0.69l0.384 -1.174c0.11,-0.367 0.201,-0.759 0.276,-1.178 0.069,-0.42 0.113,-0.812 0.122,-1.183 0.004,-0.371 -0.088,-0.755 -0.284,-1.157 -0.127,-0.249 -0.319,-0.502 -0.568,-0.768 -0.253,-0.262 -0.506,-0.467 -0.768,-0.616 -0.261,-0.144 -0.585,-0.261 -0.977,-0.357 -0.393,-0.092 -0.734,-0.145 -1.026,-0.153 -0.725,-0.018 -1.292,0.066 -1.707,0.244 -0.41,0.179 -0.663,0.245 -0.755,0.197 -0.087,-0.044 -0.174,-0.175 -0.253,-0.385 -0.083,-0.204 -0.105,-0.492 -0.069,-0.859 0.026,-0.349 0.108,-0.698 0.252,-1.043 0.149,-0.345 0.354,-0.577 0.629,-0.699 0.271,-0.118 0.524,-0.187 0.755,-0.209 0.227,-0.022 0.803,-0.031 1.724,-0.031zm-6.966 0.729l0 -1.794c0,-0.672 0.101,-1.252 0.297,-1.737 0.201,-0.484 0.541,-0.829 1.017,-1.034 0.48,-0.205 1.161,-0.31 2.047,-0.31l4.207 0.026c0.358,0.009 0.581,-0.026 0.664,-0.109 0.087,-0.079 0.148,-0.144 0.179,-0.196l0.144 -0.882c0.048,-0.332 0.253,-0.646 0.606,-0.943 0.354,-0.292 1.179,-0.458 2.475,-0.502 0.952,-0.026 1.633,0.079 2.03,0.319 0.401,0.24 0.676,0.489 0.82,0.755 0.144,0.262 0.236,0.541 0.267,0.838 0.035,0.292 0.078,0.489 0.122,0.58 0.048,0.096 0.628,0.14 1.746,0.14l3.212 0c0.781,0 1.475,0.114 2.082,0.34 0.607,0.228 0.965,0.586 1.082,1.074 0.114,0.489 0.175,0.856 0.183,1.1 0.009,0.245 0.018,0.851 0.027,1.82 0.009,0.974 -0.027,1.598 -0.101,1.868 -0.096,0.315 -0.226,0.55 -0.392,0.703 -0.166,0.153 -0.406,0.288 -0.716,0.397 -0.31,0.109 -0.537,0.157 -0.685,0.14 -0.271,-0.018 -0.489,-0.131 -0.651,-0.345l-0.166 -1.868c-0.043,-0.349 -0.196,-0.694 -0.454,-1.039 -0.262,-0.345 -0.58,-0.607 -0.964,-0.781 -0.384,-0.175 -1.026,-0.266 -1.921,-0.275l-11.583 -0.039c-0.834,0 -1.445,0.13 -1.829,0.392 -0.384,0.258 -0.681,0.616 -0.895,1.065 -0.214,0.454 -0.318,0.908 -0.318,1.371 -0.009,0.092 0.004,0.301 0.043,0.624 0.04,0.328 0.057,0.498 0.057,0.511 -0.026,0.139 -0.07,0.244 -0.14,0.323 -0.069,0.074 -0.205,0.113 -0.41,0.113 -0.187,0.009 -0.454,-0.03 -0.799,-0.113 -0.344,-0.088 -0.602,-0.218 -0.768,-0.398 -0.166,-0.178 -0.292,-0.388 -0.384,-0.628 -0.087,-0.236 -0.131,-0.742 -0.131,-1.506z" fill="#8E8E93"/>
  <path id="3" class="fil0" d="M177.553 3.359l1.562 0.048c1.34,0.052 1.964,0.851 1.881,2.392 -0.052,0.768 -0.253,1.318 -0.602,1.649 -0.349,0.332 -0.76,0.503 -1.226,0.503l-1.497 0.021c-0.555,0.018 -0.83,0.144 -0.821,0.371 0,0.266 0.293,0.398 0.873,0.398l1.445 0.012c0.466,0.009 0.99,0.07 1.571,0.18 0.58,0.109 0.842,0.807 0.794,2.086 -0.035,0.689 -0.179,1.156 -0.436,1.396 -0.258,0.245 -0.507,0.402 -0.755,0.476 -0.249,0.07 -0.638,0.109 -1.174,0.109l-1.677 0c-0.444,0 -0.663,0.136 -0.654,0.406 0,0.087 0.035,0.17 0.104,0.245 0.066,0.078 0.188,0.117 0.358,0.126l1.533 0.092c1.06,0.07 1.684,0.379 1.881,0.938 0.196,0.559 0.292,1.205 0.292,1.938l0 2.073c0,1.532 -0.039,2.44 -0.126,2.715 -0.084,0.279 -0.236,0.524 -0.454,0.742 -0.219,0.218 -0.524,0.363 -0.921,0.428 -0.398,0.07 -0.869,0.105 -1.415,0.105 -1.174,0.008 -1.92,-0.136 -2.243,-0.424 -0.318,-0.288 -0.471,-0.855 -0.454,-1.702 0,-0.738 0.17,-1.248 0.515,-1.519l0.598 -0.397c0.122,-0.136 0.184,-0.319 0.188,-0.55 0.004,-0.231 -0.044,-0.388 -0.144,-0.471 -0.096,-0.088 -0.188,-0.131 -0.271,-0.131 -0.105,0.008 -0.205,0.056 -0.31,0.144l-0.344 0.38 -0.69 0.654c-0.34,0.432 -0.498,1.126 -0.476,2.069 0.018,0.838 0.144,1.44 0.371,1.811 0.231,0.371 0.48,0.611 0.742,0.725l0.873 0.371c0.118,0.118 0.179,0.262 0.183,0.427 0.005,0.166 -0.082,0.332 -0.262,0.502 -0.392,0.367 -1.182,0.528 -2.365,0.489 -0.646,-0.017 -1.126,-0.074 -1.432,-0.174 -0.305,-0.096 -0.572,-0.253 -0.794,-0.472 -0.223,-0.218 -0.323,-0.471 -0.306,-0.763 0,-0.11 0.035,-0.232 0.101,-0.367l0.55 -0.921c0.113,-0.257 0.17,-0.581 0.179,-0.973l0.013 -2.135 0 -0.449c0.008,-0.45 0.004,-0.734 -0.013,-0.842 -0.031,-0.171 -0.088,-0.289 -0.166,-0.345 -0.074,-0.061 -0.223,-0.092 -0.441,-0.096 -0.218,-0.005 -0.319,0.275 -0.301,0.837l0.039 1.074 0.013 0.651c0.018,1.235 -0.14,2.016 -0.471,2.335 -0.336,0.318 -0.908,0.476 -1.728,0.467 -0.734,0 -1.249,-0.153 -1.554,-0.45 -0.301,-0.297 -0.463,-0.615 -0.485,-0.96 -0.022,-0.34 -0.03,-0.598 -0.03,-0.777l0 -0.31c-0.009,-0.458 -0.009,-0.698 0,-0.716l0.022 -3.081c0,-0.646 0.017,-1.126 0.052,-1.432 0.035,-0.305 0.236,-0.633 0.602,-0.982 0.367,-0.353 1.052,-0.528 2.056,-0.528 0.589,0.009 1.06,0.026 1.414,0.048 0.354,0.022 0.532,-0.091 0.537,-0.332 0.004,-0.244 -0.083,-0.388 -0.262,-0.436 -0.179,-0.048 -0.585,-0.078 -1.213,-0.096l-1.777 -0.026c-0.659,-0.009 -1.073,-0.109 -1.253,-0.306 -0.178,-0.196 -0.318,-0.41 -0.418,-0.632 -0.096,-0.228 -0.153,-0.572 -0.171,-1.031 -0.017,-0.462 0.227,-0.654 0.729,-0.576l1.34 0.232c0.428,0.074 0.886,0.043 1.371,-0.096 0.484,-0.14 0.881,-0.376 1.187,-0.699l0.602 -0.803c0.288,-0.367 0.406,-0.655 0.354,-0.86 -0.057,-0.205 -0.175,-0.305 -0.354,-0.31 -0.179,-0.004 -0.336,0.07 -0.471,0.223l-0.629 0.982c-0.366,0.471 -0.881,0.72 -1.545,0.755 -0.284,0.018 -0.711,-0.048 -1.279,-0.205 -0.572,-0.153 -0.995,-0.375 -1.274,-0.664 -0.275,-0.288 -0.428,-0.628 -0.454,-1.016 -0.026,-0.389 0.096,-0.908 0.358,-1.567 0.445,-1.109 0.733,-1.886 0.864,-2.331 0.131,-0.45 0.253,-0.812 0.358,-1.095 0.105,-0.28 0.305,-0.538 0.593,-0.76 0.293,-0.227 0.895,-0.375 1.816,-0.45 0.921,-0.069 1.585,0.214 1.982,0.852 0.266,0.436 0.462,0.702 0.598,0.807 0.13,0.1 0.262,0.074 0.388,-0.079 0.127,-0.152 0.192,-0.322 0.192,-0.51 -0.017,-0.214 -0.092,-0.424 -0.218,-0.629l-0.472 -0.624c-0.034,-0.061 -0.056,-0.118 -0.06,-0.166 -0.005,-0.052 0.026,-0.113 0.082,-0.179 0.158,-0.187 0.62,-0.279 1.397,-0.27 0.628,0.017 1.104,0.078 1.423,0.179 0.323,0.104 0.58,0.244 0.777,0.423 0.196,0.179 0.336,0.428 0.419,0.755l0.104 0.624c0.027,0.144 0.075,0.258 0.154,0.332 0.078,0.079 0.231,0.118 0.458,0.118zm8.004 4.805l-0.061 9.415c-0.009,0.358 -0.201,0.715 -0.571,1.073 -0.372,0.358 -1.079,0.52 -2.126,0.485 -0.327,-0.009 -0.55,-0.065 -0.672,-0.175 -0.122,-0.104 -0.188,-0.467 -0.188,-1.091l0 -1.689c0,-0.34 -0.013,-0.646 -0.044,-0.921 -0.03,-0.271 -0.117,-0.58 -0.266,-0.921 -0.152,-0.34 -0.209,-0.567 -0.174,-0.676 0.008,-0.035 0.026,-0.079 0.052,-0.127l0.563 -0.86c0.253,-0.449 0.384,-1.143 0.384,-2.081 -0.009,-0.634 -0.183,-1.205 -0.528,-1.729 -0.341,-0.52 -0.502,-0.82 -0.485,-0.908 0,-0.017 0.057,-0.222 0.166,-0.62 0.114,-0.397 0.188,-0.685 0.223,-0.868 0.039,-0.183 0.061,-0.363 0.061,-0.541 -0.009,0 -0.013,-0.114 -0.013,-0.336l-0.026 -0.651 -0.127 -0.729c-0.017,-0.052 -0.022,-0.096 -0.013,-0.139 0.009,-0.502 0.554,-0.69 1.637,-0.563 0.868,0.109 1.414,0.279 1.641,0.51 0.227,0.231 0.38,0.524 0.463,0.877 0.078,0.354 0.113,1.441 0.104,3.265zm0.947 8.926l0.027 -10.994c0,-0.642 -0.053,-1.209 -0.162,-1.703 -0.105,-0.493 -0.323,-0.873 -0.654,-1.139l-1.114 -0.742c-0.069,-0.083 -0.109,-0.183 -0.117,-0.292 -0.009,-0.11 0.078,-0.254 0.257,-0.424 0.262,-0.262 0.59,-0.427 0.974,-0.489 0.384,-0.065 0.859,-0.096 1.431,-0.096 0.502,0.005 0.938,0.092 1.305,0.249 0.366,0.157 0.628,0.319 0.786,0.489 0.157,0.17 0.288,0.445 0.388,0.825 0.105,0.38 0.153,0.986 0.153,1.811l-0.013 15.678c-0.009,1.327 -0.053,2.209 -0.14,2.641 -0.083,0.427 -0.292,0.811 -0.62,1.147 -0.327,0.341 -0.728,0.55 -1.196,0.642 -0.467,0.088 -1.313,0.127 -2.531,0.109l-1.982 -0.026c-0.484,0 -0.912,-0.188 -1.278,-0.563 -0.367,-0.375 -0.537,-0.803 -0.511,-1.279 0,-0.083 0.013,-0.183 0.039,-0.292l0.214 -0.768 0.192 -1.432c0.053,-0.223 0.179,-0.341 0.384,-0.358l1.702 -0.14c0.791,-0.061 1.401,-0.331 1.821,-0.816 0.423,-0.48 0.637,-1.161 0.645,-2.038z" fill="#8E8E93"/>
  <path id="4" class="fil0" d="M200.877 7.667l-2.881 2.034c-0.109,0.074 -0.336,0.135 -0.68,0.179 -0.345,0.043 -0.829,-0.284 -1.454,-0.974 -0.62,-0.689 -0.908,-1.388 -0.855,-2.095 0.026,-0.436 0.135,-0.777 0.331,-1.025 0.197,-0.245 0.476,-0.52 0.843,-0.817l1.052 -0.855c0.698,-0.533 1.056,-0.803 1.073,-0.821l1.79 -1.584c0.485,-0.428 1.087,-0.642 1.807,-0.646 0.725,-0.004 1.183,0.118 1.383,0.371 0.201,0.249 0.31,0.423 0.328,0.511 0.017,0.091 -0.096,0.419 -0.336,0.991 -0.092,0.213 -0.149,0.515 -0.17,0.903 -0.022,0.384 -0.022,0.668 -0.009,0.847 0.009,0.196 0.07,0.545 0.187,1.052 0.114,0.502 0.175,0.776 0.179,0.824 0.005,0.044 -0.026,0.11 -0.096,0.184 -0.078,0.087 -0.17,0.148 -0.283,0.192l-0.982 0.153c-0.367,0.069 -0.777,0.261 -1.227,0.576zm-2.889 3.173l3.208 -2.265c1.152,-0.812 2.239,-0.686 3.26,0.37 0.249,0.271 0.471,0.612 0.672,1.017 0.201,0.406 0.297,0.874 0.288,1.406 -0.008,0.532 -0.283,1.021 -0.82,1.467l-1.2 0.995c-0.293,0.248 -0.424,0.79 -0.406,1.623 0.022,0.838 0.034,1.449 0.034,1.842l-0.052 3.387 -0.013 0.437c-0.009,0.161 0,0.418 0.026,0.772 0.027,0.353 0.027,0.747 0.005,1.179 -0.018,0.427 -0.197,0.833 -0.528,1.209 -0.332,0.375 -1.048,0.55 -2.148,0.523 -1.196,-0.017 -1.912,-0.24 -2.156,-0.672 -0.244,-0.432 -0.354,-1.34 -0.327,-2.728l0.052 -3.684c0,-0.266 -0.083,-0.48 -0.257,-0.641l-0.969 -0.306c-0.302,-0.096 -0.638,-0.41 -1.017,-0.947 -0.38,-0.537 -0.559,-1.178 -0.533,-1.929 0.009,-0.511 0.105,-0.89 0.284,-1.139 0.179,-0.249 0.384,-0.459 0.611,-0.637l1.986 -1.279zm16.76 -4.26l-8.834 -0.013c-0.463,0 -0.891,-0.197 -1.287,-0.594 -0.394,-0.397 -0.568,-1.038 -0.516,-1.924 0.035,-0.743 0.206,-1.257 0.516,-1.55 0.314,-0.288 0.658,-0.467 1.043,-0.541 0.384,-0.074 1.016,-0.105 1.894,-0.096l8.528 0.087c0.598,0.009 1.039,0.153 1.323,0.432 0.288,0.275 0.462,0.624 0.532,1.039 0.065,0.419 0.105,0.877 0.113,1.371 0.009,0.493 -0.17,0.916 -0.536,1.269 -0.367,0.354 -1.292,0.529 -2.776,0.52zm0.742 9.244l0.052 5.897c0.009,1.091 -0.249,1.894 -0.772,2.413 -0.524,0.524 -1.183,0.773 -1.977,0.755l-4.474 -0.074c-0.472,0 -0.899,-0.192 -1.292,-0.576 -0.393,-0.384 -0.585,-1.03 -0.576,-1.942 0,-0.402 0.091,-0.904 0.271,-1.51 0.178,-0.607 0.689,-0.917 1.531,-0.934l1.585 -0.026c0.152,0 0.283,-0.057 0.392,-0.166 0.105,-0.109 0.158,-0.454 0.158,-1.035l0 -1.623c0,-1.467 -0.022,-2.261 -0.07,-2.379 -0.048,-0.122 -0.144,-0.21 -0.288,-0.262 -0.144,-0.057 -0.524,-0.083 -1.135,-0.083l-2.955 0.026c-0.393,0.005 -0.641,-0.039 -0.751,-0.135 -0.104,-0.1 -0.152,-0.192 -0.144,-0.275 0,-0.035 0.026,-0.092 0.074,-0.166l0.948 -1.204c0.096,-0.171 0.17,-0.358 0.222,-0.568 0.057,-0.209 0.087,-0.414 0.096,-0.62 0,-0.078 -0.013,-0.261 -0.043,-0.549 -0.031,-0.288 -0.04,-0.476 -0.031,-0.564 0,-0.178 0.039,-0.314 0.122,-0.41 0.079,-0.092 0.193,-0.144 0.337,-0.153 0.144,-0.008 0.584,-0.013 1.317,-0.013l8.721 0c1.405,0 2.078,0.852 2.008,2.558 -0.044,0.803 -0.201,1.318 -0.472,1.554 -0.275,0.235 -0.554,0.38 -0.846,0.44l-1.38 0.092c-0.205,0.031 -0.362,0.096 -0.475,0.192 -0.11,0.092 -0.162,0.542 -0.153,1.34z" fill="#8E8E93"/>
  <path id="5" class="fil0" d="M224.477 15.619l1.868 -2.942c0.153,-0.244 0.218,-0.432 0.196,-0.554 -0.017,-0.122 -0.057,-0.21 -0.105,-0.262 -0.052,-0.052 -0.436,-0.109 -1.148,-0.174 -0.711,-0.062 -1.147,-0.28 -1.313,-0.647 -0.17,-0.366 -0.254,-0.82 -0.254,-1.366 0,-0.921 0.14,-1.505 0.411,-1.75 0.275,-0.249 0.563,-0.397 0.868,-0.449l1.615 -0.101c0.245,-0.096 0.371,-0.244 0.376,-0.454 0.004,-0.209 -0.04,-0.362 -0.136,-0.454 -0.083,-0.07 -0.218,-0.118 -0.397,-0.144l-1.087 -0.022c-0.397,-0.043 -0.759,-0.209 -1.078,-0.501 -0.318,-0.288 -0.476,-0.886 -0.467,-1.79 0,-0.825 0.149,-1.383 0.441,-1.667 0.292,-0.288 0.864,-0.48 1.707,-0.581l5.818 -0.68c0.349,-0.035 0.637,-0.053 0.855,-0.057 0.223,-0.005 0.476,0.118 0.755,0.366 0.197,0.188 0.389,0.507 0.572,0.965 0.184,0.454 0.27,0.899 0.262,1.336 -0.026,0.51 -0.148,0.899 -0.367,1.16 -0.218,0.267 -0.449,0.45 -0.698,0.55l-1.048 0.284c-0.152,0.061 -0.292,0.149 -0.414,0.262 -0.122,0.113 -0.175,0.358 -0.149,0.725 0.018,0.362 0.153,0.598 0.411,0.702l1.252 0.179c0.69,0.245 1.021,0.956 0.987,2.135 -0.026,0.715 -0.17,1.191 -0.428,1.431 -0.262,0.24 -0.493,0.354 -0.698,0.345l-0.908 -0.218c-1.048,-0.206 -1.96,0.083 -2.732,0.859 -0.769,0.773 -1.127,1.511 -1.065,2.209 0.026,0.362 0.152,0.729 0.384,1.1l0.969 1.292c0.488,0.716 0.764,1.1 0.833,1.152l1.022 0.921c0.078,0.144 0.135,0.367 0.178,0.663 0.044,0.302 0.066,0.563 0.066,0.795 -0.009,0.214 -0.03,0.392 -0.066,0.537l-0.471 1.344 0.026 0.227 -0.052 0.755 0.113 1.087 0 0.013c-0.008,0.135 -0.152,0.345 -0.432,0.62 -0.283,0.279 -0.851,0.419 -1.702,0.423 -0.851,0.004 -1.453,-0.174 -1.802,-0.532 -0.35,-0.358 -0.524,-0.987 -0.524,-1.89l0 -2.24c0,-0.348 -0.039,-0.562 -0.122,-0.645 -0.083,-0.079 -0.149,-0.131 -0.205,-0.149 -0.057,-0.013 -0.336,-0.052 -0.838,-0.113 -0.502,-0.061 -0.956,-0.319 -1.353,-0.782 -0.402,-0.458 -0.603,-0.938 -0.607,-1.435 -0.005,-0.502 0.222,-1.114 0.681,-1.838zm5.001 -1.253c0,-0.484 0.162,-0.916 0.485,-1.296 0.323,-0.379 0.786,-0.641 1.384,-0.781 0.593,-0.14 1.139,0.048 1.632,0.572 0.284,0.305 0.655,0.75 1.113,1.335 0.462,0.581 0.681,1.096 0.654,1.532 -0.026,0.441 -0.248,0.886 -0.667,1.345 -0.415,0.453 -0.917,0.663 -1.493,0.619 -0.41,-0.017 -0.794,-0.174 -1.148,-0.471 -0.353,-0.301 -0.768,-0.786 -1.252,-1.458 -0.48,-0.677 -0.716,-1.139 -0.708,-1.397zm11.174 10.55l-2.108 -0.027 -2.89 -0.012c-1.073,0 -1.758,-0.031 -2.051,-0.096 -0.297,-0.062 -0.585,-0.232 -0.873,-0.511 -0.283,-0.275 -0.419,-0.764 -0.401,-1.462 0.008,-0.66 0.126,-1.087 0.358,-1.292 0.231,-0.205 0.453,-0.354 0.672,-0.441 0.218,-0.092 0.733,-0.144 1.553,-0.162l2.261 -0.026c0.319,0 0.524,-0.048 0.62,-0.144 0.101,-0.1 0.149,-0.21 0.144,-0.336 -0.004,-0.122 -0.057,-0.24 -0.161,-0.349 -0.101,-0.109 -0.428,-0.17 -0.974,-0.179l-1.252 -0.013c-0.568,0 -0.996,-0.026 -1.279,-0.079 -0.279,-0.048 -0.498,-0.157 -0.655,-0.323 -0.161,-0.166 -0.231,-0.336 -0.214,-0.506 0.009,-0.087 0.048,-0.179 0.118,-0.284l1.096 -0.764c0.179,-0.13 0.397,-0.371 0.654,-0.724 0.253,-0.353 0.432,-0.567 0.529,-0.637 0.1,-0.074 0.235,-0.136 0.406,-0.188l1.134 -0.061c0.419,-0.035 0.629,-0.201 0.629,-0.502 -0.009,-0.179 -0.105,-0.332 -0.293,-0.458l-1.37 -0.127c-0.306,-0.078 -0.598,-0.327 -0.869,-0.742l-0.82 -1.244c-0.179,-0.262 -0.28,-0.48 -0.31,-0.65 -0.031,-0.17 0.083,-0.336 0.344,-0.493 0.258,-0.157 0.664,-0.262 1.214,-0.315 0.55,-0.048 1.034,-0.074 1.453,-0.074l7.071 0.053c1.056,0.008 1.698,0.179 1.929,0.51 0.231,0.332 0.345,0.729 0.345,1.187 -0.009,0.358 -0.066,0.686 -0.17,0.978 -0.11,0.297 -0.258,0.502 -0.45,0.62 -0.192,0.122 -0.532,0.201 -1.021,0.244 -0.493,0.044 -0.995,0.048 -1.515,0.013 -0.519,-0.034 -0.82,0.04 -0.894,0.223 -0.079,0.183 -0.026,0.354 0.152,0.506 0.083,0.088 0.219,0.14 0.398,0.166l2.26 0.04c1.083,0.126 1.655,0.619 1.716,1.483 0.056,0.86 -0.083,1.441 -0.428,1.746 -0.349,0.301 -0.921,0.454 -1.724,0.454l-1.711 0c-0.249,0 -0.419,0.053 -0.519,0.166 -0.096,0.109 -0.149,0.231 -0.153,0.362 -0.005,0.135 0.043,0.249 0.139,0.354 0.101,0.1 0.354,0.153 0.764,0.153l2.453 0.039c0.725,0.017 1.248,0.187 1.567,0.511 0.319,0.323 0.48,0.803 0.48,1.431 -0.009,1.323 -0.703,1.982 -2.086,1.982l-5.268 0zm2.649 -14.076l-6.163 -0.04c-0.384,0 -0.741,0 -1.073,0.005 -0.336,0.004 -0.55,-0.039 -0.646,-0.14 -0.101,-0.096 -0.153,-0.223 -0.162,-0.375l-0.192 -1.973c-0.026,-0.218 -0.17,-0.484 -0.427,-0.79 -0.262,-0.31 -0.55,-0.537 -0.865,-0.689 -0.314,-0.158 -0.458,-0.271 -0.432,-0.35 0.005,-0.03 0.044,-0.078 0.114,-0.14l0.803 -0.471c0.122,-0.078 0.305,-0.27 0.55,-0.58 0.248,-0.314 0.379,-0.642 0.392,-0.991 0.014,-0.353 0.018,-0.546 0.018,-0.589l-0.061 -1.484c-0.009,-0.127 0.035,-0.253 0.131,-0.371 0.1,-0.118 0.833,-0.184 2.208,-0.192l4.718 -0.013c1.825,0 3.064,0.065 3.728,0.196 0.659,0.135 1.06,0.493 1.209,1.083 0.144,0.589 0.214,1.296 0.214,2.121l-0.022 3.657c-0.009,0.668 -0.101,1.126 -0.271,1.375 -0.17,0.253 -0.371,0.432 -0.606,0.546 -0.236,0.109 -0.472,0.174 -0.703,0.196 -0.236,0.022 -1.056,0.026 -2.462,0.009zm-3.736 -3.684l2.147 0c0.48,0 0.725,-0.179 0.742,-0.532 0.018,-0.354 -0.048,-0.598 -0.196,-0.742 -0.148,-0.14 -0.506,-0.206 -1.069,-0.197l-2.327 -0.013c-0.222,0.044 -0.379,0.109 -0.471,0.196 -0.096,0.092 -0.153,0.262 -0.179,0.507 -0.026,0.249 0.026,0.441 0.153,0.576 0.127,0.135 0.528,0.205 1.2,0.205z" fill="#8E8E93"/>
  <path class="fil0" d="M99.13 41.05l0 4.646 -1.603 0 0 -3.126 -14.773 0 0 3.126 -1.52 0 0 -4.646 8.187 0c-0.338,-0.731 -0.673,-1.405 -1.012,-2.025l1.69 -0.252c0.392,0.674 0.731,1.434 1.012,2.277l8.019 0zm-18.487 5.997l6.077 0c0.789,-1.408 1.408,-2.589 1.859,-3.548l1.603 0.508c-0.562,1.07 -1.099,2.082 -1.603,3.04l11.141 0 0 1.517 -4.218 0c-0.9,2.251 -1.916,4.052 -3.04,5.403 2.251,0.958 4.503,2.086 6.754,3.379l-1.012 1.351c-2.421,-1.408 -4.73,-2.59 -6.924,-3.545 -2.366,2.137 -5.572,3.264 -9.625,3.376l-0.929 -1.434c3.714,0 6.725,-0.875 9.034,-2.619 -2.082,-0.901 -4.11,-1.661 -6.08,-2.28 0.731,-1.182 1.466,-2.392 2.197,-3.631l-5.234 0 0 -1.517zm7.089 1.517c-0.673,1.127 -1.293,2.111 -1.855,2.957 1.574,0.451 3.264,1.07 5.065,1.855 1.124,-1.293 2.053,-2.896 2.784,-4.812l-5.994 0z" fill="#8E8E93"/>
  <path id="1" class="fil0" d="M115.547 58.02c-1.52,0 -2.28,-0.731 -2.28,-2.194l0 -12.41 1.52 0 0 12.071c0,0.678 0.393,1.016 1.182,1.016l4.052 0c0.562,0 0.929,-0.198 1.095,-0.594 0.285,-0.562 0.479,-2.082 0.591,-4.557l1.52 0.422c-0.223,2.982 -0.533,4.783 -0.926,5.403 -0.45,0.562 -1.098,0.843 -1.945,0.843l-4.809 0zm-3.97 -11.988c-0.619,3.717 -1.491,6.923 -2.618,9.625l-1.351 -0.843c1.127,-2.702 1.941,-5.713 2.449,-9.034l1.52 0.252zm12.41 -0.93c1.351,2.702 2.561,5.688 3.631,8.952l-1.433 0.673c-1.128,-3.487 -2.367,-6.527 -3.718,-9.117l1.52 -0.508zm-7.766 -6.077c2.028,2.14 3.544,3.97 4.56,5.487l-1.268 0.929c-1.181,-1.801 -2.702,-3.685 -4.56,-5.656l1.268 -0.76z" fill="#8E8E93"/>
  <path id="2" class="fil0" d="M138.629 45.358l12.748 0 0 1.434 -5.572 0 0 3.8 6.501 0 0 1.52 -6.501 0 0 4.474c1.577,0.223 3.436,0.339 5.572,0.339 1.07,0 2.197,-0.029 3.379,-0.087l-0.339 1.52 -2.363 0c-4.333,0 -7.46,-0.392 -9.373,-1.181 -1.462,-0.674 -2.644,-1.718 -3.544,-3.123 -0.847,1.855 -1.859,3.404 -3.041,4.643l-1.012 -1.268c2.025,-2.136 3.404,-5.093 4.135,-8.865l1.521 0.256c-0.224,1.235 -0.533,2.474 -0.93,3.714 1.016,1.858 2.309,3.04 3.884,3.544 0.226,0.058 0.424,0.115 0.594,0.169l0 -9.455 -5.659 0 0 -1.434zm15.198 -4.222l0 4.56 -1.521 0 0 -3.126 -14.689 0 0 3.292 -1.521 0 0 -4.726 8.275 0c-0.281,-0.731 -0.649,-1.437 -1.099,-2.111l1.689 -0.252c0.393,0.785 0.732,1.574 1.013,2.363l7.853 0z" fill="#8E8E93"/>
  <path id="3" class="fil0" d="M164.924 43.161c-0.396,0.846 -0.847,1.549 -1.351,2.111l-1.268 -0.926c1.07,-1.185 1.772,-2.789 2.111,-4.813l1.433 0.252c-0.111,0.732 -0.252,1.351 -0.421,1.859l2.532 0 0 -2.619 1.52 0 0 2.619 4.053 0 0 1.517 -4.053 0 0 2.788 4.73 0 0 1.433 -4.73 0 0 2.281 4.222 0 0 5.655c0,1.297 -0.648,1.942 -1.942,1.945l-1.098 0 -0.422 -1.437 1.013 0c0.619,0 0.929,-0.281 0.929,-0.843l0 -3.883 -2.702 0 0 7.68 -1.52 0 0 -7.68 -2.784 0 0 6.329 -1.52 0 0 -7.766 4.304 0 0 -2.281 -5.234 0 0 -1.433 5.234 0 0 -2.788 -3.036 0zm10.551 -2.194l1.52 0 0 13.339 -1.52 0 0 -13.339zm0.76 17.561l-0.339 -1.434c1.127,0.054 2.111,0.083 2.958,0.083 0.673,0 1.012,-0.339 1.012,-1.012l0 -17.14 1.52 0 0 17.478c0,1.351 -0.677,2.025 -2.028,2.025l-3.123 0z" fill="#8E8E93"/>
  <path id="4" class="fil0" d="M203.711 43.499c-0.566,1.351 -1.239,2.504 -2.028,3.462l-1.013 -1.181c1.352,-1.69 2.252,-4.024 2.702,-7.007l1.603 0.252c-0.169,0.958 -0.392,1.913 -0.673,2.871l5.317 0 0 1.603 -5.908 0zm-12.583 -4.135c1.186,0.9 2.169,1.801 2.958,2.701l-1.099 1.096c-0.731,-0.901 -1.718,-1.827 -2.954,-2.785l1.095 -1.012zm-0.082 5.403c1.239,0.955 2.28,1.913 3.123,2.871l-1.182 1.095c-0.731,-0.954 -1.743,-1.941 -3.04,-2.953l1.099 -1.013zm2.87 6.333c-0.846,2.702 -1.746,5.147 -2.701,7.345l-1.438 -0.591c1.07,-2.367 2,-4.787 2.789,-7.262l1.35 0.508zm2.111 -7.262l-1.689 0 0 -1.52 3.04 0c-0.281,-1.07 -0.591,-2.14 -0.929,-3.21l1.52 -0.335c0.339,1.07 0.648,2.252 0.929,3.545l2.446 0 0 1.52 -3.797 0 0 1.434c0,0.396 0,0.958 0,1.689l3.462 0c0,5.011 -0.086,8.134 -0.255,9.373 -0.17,1.351 -0.844,2.024 -2.025,2.024 -0.112,0 -0.339,0 -0.677,0l-0.169 0 -0.253 0c-0.169,-0.054 -0.338,-0.083 -0.507,-0.083l-0.336 -1.268c0.901,0 1.463,0 1.686,0 0.451,0 0.735,-0.421 0.847,-1.264 0.112,-0.789 0.198,-3.209 0.252,-7.262l-2.111 0c-0.392,4.561 -1.38,7.964 -2.954,10.216l-1.099 -1.012c1.69,-2.59 2.562,-6.729 2.619,-12.413l0 -1.434zm7.093 1.942l5.825 0 0 1.433c-0.677,0.847 -1.437,1.69 -2.28,2.536l0 1.351 3.04 0 0 1.434 -3.04 0 0 3.883c0,1.351 -0.537,2.028 -1.603,2.028l-1.942 0 -0.338 -1.438c0.673,0.058 1.264,0.087 1.772,0.087 0.45,0 0.673,-0.396 0.673,-1.185l0 -3.375 -3.375 0 0 -1.434 3.375 0 0 -1.52c0.847,-0.959 1.495,-1.747 1.946,-2.367l-4.053 0 0 -1.433z" fill="#8E8E93"/>
  <ellipse class="fil1" cx="30.369" cy="29.882" rx="29.725" ry="29.723" fill="#fbfbfb"/>
  <g id="_2131027808">
   <path class="fil2" d="M46.009 14.241c1.15,-3.451 1.15,-5.751 -1.151,-8.052 -2.539,-2.539 -6.662,-2.539 -9.202,0 -4.6,4.601 -4.601,13.803 -4.6,23.005 9.202,0 18.403,0 23.004,-4.601 2.54,-2.54 2.54,-6.662 0,-9.202 -2.3,-2.3 -4.601,-2.3 -8.051,-1.15zm-3.149 3.148c0.903,-2.707 2.096,-6.421 0.291,-8.226 -1.992,-1.992 -4.511,-1.992 -6.503,0 -3.61,3.61 -3.61,10.829 -3.61,18.048 7.219,0 14.439,0 18.048,-3.609 1.993,-1.993 1.993,-4.511 0,-6.504 -1.804,-1.805 -5.518,-0.611 -8.226,0.291z" fill="#00BADE"/>
   <path class="fil3" d="M14.671 45.579c-3.451,1.15 -5.751,1.15 -8.052,-1.151 -2.539,-2.539 -2.539,-6.662 0,-9.201 4.601,-4.601 13.803,-4.601 23.005,-4.601 0,9.202 0,18.403 -4.601,23.004 -2.54,2.54 -6.662,2.54 -9.201,0 -2.301,-2.301 -2.301,-4.601 -1.151,-8.051zm3.148 -3.149c-2.707,0.903 -6.421,2.096 -8.226,0.291 -1.992,-1.992 -1.992,-4.511 0,-6.503 3.61,-3.61 10.829,-3.61 18.048,-3.61 0.001,7.219 0,14.439 -3.609,18.048 -1.993,1.993 -4.511,1.993 -6.504,0 -1.804,-1.804 -0.611,-5.519 0.291,-8.226z" fill="#F176A0"/>
   <path class="fil4" d="M46.009 45.579c3.45,1.15 5.751,1.15 8.051,-1.151 2.54,-2.539 2.54,-6.662 0,-9.201 -4.601,-4.601 -13.802,-4.601 -23.004,-4.601 -0.001,9.202 0,18.403 4.6,23.004 2.54,2.54 6.663,2.54 9.202,0 2.301,-2.301 2.301,-4.601 1.151,-8.051zm-3.149 -3.149c2.708,0.903 6.422,2.096 8.226,0.291 1.993,-1.992 1.993,-4.511 0,-6.503 -3.609,-3.61 -10.829,-3.61 -18.048,-3.61 0,7.219 0,14.439 3.61,18.048 1.992,1.993 4.511,1.993 6.503,0 1.805,-1.804 0.612,-5.519 -0.291,-8.226z" fill="#A8CF45"/>
   <path class="fil5" d="M14.671 14.241c-1.15,-3.451 -1.15,-5.751 1.151,-8.052 2.539,-2.539 6.661,-2.539 9.201,0 4.601,4.601 4.601,13.803 4.601,23.005 -9.202,0 -18.404,0 -23.005,-4.601 -2.539,-2.54 -2.539,-6.662 0,-9.202 2.301,-2.3 4.601,-2.3 8.052,-1.15zm3.148 3.148c-0.902,-2.707 -2.095,-6.421 -0.291,-8.226 1.993,-1.992 4.511,-1.992 6.504,0 3.609,3.61 3.61,10.829 3.609,18.048 -7.219,0 -14.438,0 -18.048,-3.609 -1.992,-1.993 -1.992,-4.511 0,-6.504 1.805,-1.805 5.519,-0.611 8.226,0.291z" fill="#F5D829"/>
  </g>
 </g>
</svg>