<?xml version="1.0" encoding="UTF-8"?>
<!DOCTYPE svg PUBLIC "-//W3C//DTD SVG 1.1//EN" "http://www.w3.org/Graphics/SVG/1.1/DTD/svg11.dtd">
<!-- Creator: CorelDRAW 2019 (64-Bit) -->
<svg xmlns="http://www.w3.org/2000/svg" xmlns:xlink="http://www.w3.org/1999/xlink" xmlns:xodm="http://www.corel.com/coreldraw/odm/2003" xml:space="preserve" width="400px" height="60px" version="1.1" style="shape-rendering:geometricPrecision; text-rendering:geometricPrecision; image-rendering:optimizeQuality; fill-rule:evenodd; clip-rule:evenodd" viewBox="0 0 400 60">
 <g id="图层_x0020_1">
  
  <g id="_1999250640">
   <path class="fil0" d="M26.585 38.471l-5.053 0c0.014,-0.168 1.182,-2.941 1.196,-3.11l1.854 0.03c0.253,0 0.403,0.032 0.627,0.031 0.209,-0.001 0.419,-0.001 0.628,-0.001 0.255,0 0.391,0.032 0.628,0.03 0.209,-0.001 0.419,0.001 0.628,0 0.253,-0.001 0.38,0.03 0.628,0.03 -0.009,0.116 -0.088,0.258 -0.131,0.378l-1.005 2.612zm33.398 -28.004l0 1.315c-0.004,0.032 -0.008,0.064 -0.013,0.096l-0.047 1.298c0.001,0.19 -0.022,0.27 -0.03,0.418 -0.017,0.311 -0.028,0.557 -0.029,0.869l-0.081 1.668c-0.046,0.517 -0.009,1.225 -0.009,1.769l0.059 26.312c-0.001,0.19 0.022,0.27 0.03,0.418 0.032,0.587 0.012,1.147 0.029,1.736 0.005,0.159 0.032,0.225 0.031,0.417 -0.005,0.934 0.049,2.78 -0.023,3.506 -0.014,0.147 -0.002,0.294 -0.006,0.442 -0.019,0.654 -0.132,1.899 -0.237,2.424 -0.315,1.573 -1.042,2.863 -2.124,3.945l-0.338 0.321c-0.636,0.629 -1.651,1.192 -2.455,1.551 -1.563,0.699 -2.955,0.728 -4.624,0.638 -0.143,-0.008 -0.304,0.003 -0.451,0.001l-34.233 -0.031c-0.744,0 -1.39,0.032 -2.124,0.029 -0.208,0 -0.29,0.033 -0.506,0.031l-1.556 0.03c-1.319,0 -2.448,0.001 -3.739,-0.178 -1.065,-0.147 -1.919,-0.435 -2.847,-0.83 -0.287,-0.122 -0.518,-0.283 -0.782,-0.444 -0.736,-0.45 -1.401,-1.078 -1.889,-1.789 -0.994,-1.449 -1.383,-2.725 -1.64,-4.49 -0.162,-1.12 -0.166,-2.38 -0.166,-3.548l0 -0.056 0 -0.057c0,-0.686 0.051,-1.332 0.059,-2.004 0.002,-0.155 0.024,-0.165 0.031,-0.298 0.006,-0.106 -0.007,-0.222 0.001,-0.328 0.062,-0.745 0.081,-1.653 0.11,-2.437l0.008 -24.922 -0.072 -2.649c-0.043,-0.285 -0.007,-0.61 -0.016,-0.91 -0.005,-0.163 -0.032,-0.248 -0.031,-0.448l-0.03 -1.286c0,-0.637 -0.03,-1.179 -0.03,-1.823 0,-0.435 0.03,-0.79 0.03,-1.196l0.031 -1.195c0.091,-1.1 0.103,-2.154 0.499,-3.15 0.298,-0.752 0.563,-1.322 1.038,-1.981 0.744,-1.035 1.783,-1.944 2.927,-2.515 2.617,-1.308 3.794,-0.937 6.508,-0.937l35.102 0c0.086,0 0.074,-0.012 0.156,-0.019l1.37 -0.041c0.537,0.001 1.021,-0.029 1.584,-0.029 2.272,0 5.032,0.186 6.967,1.554 0.067,0.047 0.113,0.084 0.191,0.138 0.374,0.257 0.678,0.57 0.998,0.886 0.646,0.639 1.151,1.538 1.485,2.372 0.652,1.632 0.88,3.403 0.884,5.407zm-42.637 15.536l0 -0.269 3.139 0c0.144,0 0.077,0.285 0.133,0.675 0.034,0.238 0.057,0.541 0.074,0.762 0.052,0.673 0.26,2.555 0.272,3.018 0.003,0.159 0.021,0.219 0.031,0.388 0.006,0.112 0.019,0.248 0.034,0.384l0.143 1.501c0.015,0.272 0.044,0.5 0.065,0.776 0.017,0.234 -0.05,0.295 -0.175,0.607 -0.122,0.305 -1.164,2.848 -1.174,2.982l-0.479 0c-0.533,-1.006 -0.545,-0.858 -0.983,-2.217 -0.434,-1.344 -0.465,-2.801 -0.64,-4.203 -0.149,-1.189 -0.44,-3.318 -0.44,-4.404zm-9.957 11.033c-0.113,-0.083 -0.429,-1.047 -0.483,-1.192 -0.149,-0.399 -0.297,-0.802 -0.456,-1.217l-0.455 -1.221c-0.026,-0.122 0.062,-0.906 0.081,-1.152l0.596 -6.52 3.229 0c-0.042,0.085 -0.157,1.307 -0.182,1.522l-0.786 6.988c-0.024,0.117 -0.089,0.19 -0.139,0.28 -0.185,0.341 -1.365,2.341 -1.405,2.512zm32.442 -14.532l2.003 0c0.069,0 0.089,-0.02 0.089,-0.089l0 -1.077 3.2 0c0,1.431 -0.075,1.151 0.298,1.136 0.136,-0.005 0.284,0.008 0.419,0.001 1.04,-0.056 1.863,-0.121 2.831,0.398 0.436,0.234 0.8,0.561 1.068,0.965 0.833,1.254 0.736,3.036 0.736,4.677l0.718 0c1.12,0 2.11,0.602 2.562,1.504 0.63,1.26 0.382,3.205 0.426,4.685 0.005,0.151 0.03,0.166 0.032,0.327 0.006,0.465 -0.006,0.899 -0.073,1.305 -0.067,0.404 -0.181,0.695 -0.355,0.99 -0.731,1.234 -2.2,1.146 -3.609,1.145l-0.656 0.029c-0.485,-0.04 -0.671,-0.162 -0.887,-0.489 -0.261,-0.392 -0.67,-1.554 -0.67,-2.082 0.198,0 0.38,0.019 0.598,0.03l0.628 0.03c0.607,0 1.172,-0.003 1.563,-0.44 0.601,-0.674 0.358,-2.884 -0.299,-3.545 -0.434,-0.437 -1.222,-0.256 -1.832,-0.26l-3.498 0 0 6.727 -3.2 0 0 -6.727 -3.259 0 0 -3.229 3.259 0 0 -2.722c0,-0.068 -0.02,-0.089 -0.089,-0.089l-2.003 0 0 -3.2zm-9.27 0l7.147 0 0 3.2 -1.765 0c-0.068,0 -0.089,0.021 -0.089,0.089l0 9.598c0,0.069 0.021,0.09 0.089,0.09l2.931 0 0 2.99 -10.615 0c0.011,-0.125 0.974,-2.32 1.051,-2.507 0.162,-0.394 0.097,-0.396 0.503,-0.394 0.763,0.005 1.816,-0.089 2.602,-0.089l0 -9.777 -1.854 0 0 -3.2zm21.319 3.23l-0.927 -0.03c0,-0.465 -0.03,-0.823 -0.03,-1.286 0,-1.858 1.541,-2.375 2.649,-1.543 0.472,0.354 0.61,0.73 0.61,1.304 0,0.442 -0.428,1.026 -0.711,1.203 -0.347,0.217 -1.024,0.352 -1.591,0.352zm-39.976 -2.841c0,-1.302 0.183,-1.674 1.495,-1.674 0.605,0 1.169,0.092 1.565,0.318 0.223,0.128 0.276,0.34 0.323,0.634 0.221,1.363 -0.064,2.192 -0.064,3.533l0 7.116c0,1.779 0.335,3.778 -0.74,4.852 -0.333,0.333 -0.998,0.704 -1.462,0.84 -0.701,0.206 -1.307,0.266 -1.955,-0.07 -0.47,-0.245 -0.737,-1.037 -0.893,-1.529 -0.059,-0.187 -0.238,-0.796 -0.242,-0.984 0.972,0 2.182,0.367 2.182,-1.554 0,-0.46 -0.039,-0.939 -0.085,-1.35l-0.034 -1.431c0,-0.853 0.039,-6.937 -0.018,-7.308l-0.072 -1.393zm14.681 2.841l2.781 0 -1.154 2.764c-0.056,0.142 -1.137,2.66 -1.149,2.797 0.606,0.051 1.454,0.189 2.063,0.239 -0.033,0.146 -0.103,0.293 -0.153,0.445l-0.312 0.884c-0.147,0.369 -0.37,0.886 -0.72,1.074 -0.338,0.181 -0.753,0.109 -1.027,0.109 -0.903,0 -2.232,0.274 -3.09,-0.139 -0.186,-0.089 -0.287,-0.157 -0.416,-0.302 -0.479,-0.538 -0.118,-1.254 0.128,-1.801 0.275,-0.614 0.643,-1.373 0.888,-1.982 0.147,-0.368 0.241,-0.686 0.337,-1.098 -0.662,0.025 -1.399,0.134 -1.927,-0.226 -1.084,-0.74 0.144,-2.882 0.581,-3.721 0.04,-0.077 0.066,-0.108 0.11,-0.189 0.045,-0.083 0.067,-0.135 0.11,-0.219 0.068,-0.136 0.138,-0.291 0.188,-0.44 0.186,-0.55 0.436,-1.329 0.688,-1.823 0.141,-0.278 0.309,-0.529 0.562,-0.695 0.82,-0.537 2.06,-0.183 2.979,-0.102 0.148,0.012 0.138,0.015 0.125,0.093l-1.592 4.332z" style="fill:#ff2842;stroke:none"/>
   <path class="fil0" d="M44.822 25.622l0 2.703 2.108 0 0 -2.792 -2.019 0c-0.068,0 -0.089,0.02 -0.089,0.089z" style="fill:#ff2842;stroke:none"/>
  </g>
  <path class="fil1" d="M85.489 41.126c2.136,0 3.845,0.642 5.127,1.924 1.176,1.227 1.764,2.697 1.764,4.406 0,1.494 -0.455,2.858 -1.361,4.085 -0.963,1.121 -1.975,1.682 -3.045,1.682 -0.909,0 -1.415,-0.4 -1.521,-1.2 -0.588,0.855 -1.415,1.282 -2.485,1.282 -0.855,0 -1.576,-0.294 -2.164,-0.882 -0.533,-0.643 -0.8,-1.388 -0.8,-2.243 0,-1.551 0.455,-2.912 1.361,-4.087 0.963,-1.067 2.057,-1.6 3.284,-1.6 1.016,0 1.686,0.427 2.004,1.281l0.16 -0.963 1.521 0 -1.439 5.448c-0.16,0.588 -0.242,1.015 -0.242,1.282 0,0.267 0.16,0.4 0.482,0.4 0.639,0 1.254,-0.4 1.842,-1.2 0.748,-0.855 1.121,-1.924 1.121,-3.206 0,-1.494 -0.506,-2.697 -1.521,-3.606 -1.015,-1.012 -2.403,-1.522 -4.167,-1.522 -1.921,0 -3.445,0.616 -4.566,1.843 -1.227,1.176 -1.843,2.724 -1.843,4.649 0,2.081 0.616,3.657 1.843,4.723 1.121,1.07 2.669,1.604 4.645,1.604 1.443,0 2.7,-0.267 3.767,-0.8 0.909,-0.482 1.63,-1.121 2.163,-1.925l1.682 0c-0.749,1.337 -1.815,2.352 -3.203,3.046 -1.336,0.639 -2.806,0.96 -4.409,0.96 -2.454,0 -4.43,-0.694 -5.927,-2.081 -1.442,-1.443 -2.164,-3.312 -2.164,-5.609 0,-2.137 0.722,-3.952 2.164,-5.449 1.603,-1.494 3.579,-2.242 5.927,-2.242zm0.403 4.806c-0.854,0 -1.603,0.427 -2.246,1.282 -0.693,0.803 -1.039,1.791 -1.039,2.966 0,0.585 0.134,1.012 0.4,1.282 0.212,0.318 0.561,0.479 1.043,0.479 0.533,0 1.012,-0.212 1.439,-0.64 0.482,-0.375 0.803,-0.826 0.964,-1.363l0.479 -1.682c0.16,-0.588 0.242,-0.909 0.242,-0.96 0,-0.377 -0.133,-0.667 -0.403,-0.882 -0.212,-0.321 -0.506,-0.482 -0.879,-0.482zm31.819 -4.567l0 4.409 -1.521 0 0 -2.967 -14.018 0 0 2.967 -1.442 0 0 -4.409 7.769 0c-0.321,-0.694 -0.639,-1.333 -0.96,-1.921l1.603 -0.239c0.372,0.639 0.693,1.36 0.96,2.16l7.609 0zm-17.542 5.691l5.766 0c0.749,-1.336 1.337,-2.458 1.764,-3.366l1.521 0.481c-0.533,1.016 -1.042,1.976 -1.521,2.885l10.573 0 0 1.439 -4.003 0c-0.855,2.137 -1.818,3.846 -2.885,5.127 2.137,0.91 4.273,1.98 6.409,3.207l-0.96 1.282c-2.297,-1.337 -4.488,-2.458 -6.57,-3.364 -2.246,2.027 -5.288,3.097 -9.133,3.203l-0.882 -1.361c3.524,0 6.381,-0.83 8.572,-2.485 -1.975,-0.854 -3.9,-1.575 -5.77,-2.163 0.694,-1.121 1.392,-2.27 2.086,-3.446l-4.967 0 0 -1.439zm6.727 1.439c-0.639,1.07 -1.227,2.003 -1.76,2.806 1.493,0.428 3.097,1.016 4.806,1.761 1.066,-1.227 1.948,-2.748 2.642,-4.567l-5.688 0zm26.97 8.973c-1.442,0 -2.163,-0.694 -2.163,-2.082l0 -11.775 1.442 0 0 11.454c0,0.643 0.373,0.964 1.121,0.964l3.846 0c0.533,0 0.882,-0.188 1.039,-0.564 0.27,-0.533 0.454,-1.976 0.561,-4.324l1.442 0.4c-0.212,2.83 -0.506,4.539 -0.879,5.127 -0.427,0.533 -1.042,0.8 -1.845,0.8l-4.564 0zm-3.766 -11.375c-0.588,3.527 -1.416,6.569 -2.485,9.133l-1.282 -0.8c1.07,-2.564 1.842,-5.421 2.324,-8.573l1.443 0.24zm11.775 -0.883c1.282,2.564 2.431,5.398 3.446,8.495l-1.361 0.639c-1.069,-3.309 -2.245,-6.194 -3.527,-8.652l1.442 -0.482zm-7.369 -5.766c1.924,2.03 3.363,3.767 4.327,5.206l-1.203 0.882c-1.121,-1.709 -2.564,-3.497 -4.327,-5.367l1.203 -0.721zm28.97 3.606c-0.694,1.227 -1.47,2.242 -2.325,3.043l-1.039 -0.961c1.494,-1.494 2.643,-3.473 3.446,-5.927l1.36 0.56c-0.266,0.8 -0.506,1.443 -0.721,1.921l6.891 0 0 1.364 -7.612 0zm8.091 6.488c-0.906,0.909 -2.004,1.681 -3.285,2.324 0.854,1.976 2.057,3.63 3.606,4.967l-0.961 1.282c-2.939,-2.564 -4.7,-6.303 -5.287,-11.215 -0.801,0.16 -1.416,0.266 -1.843,0.318l0 8.972c1.282,-0.373 2.403,-0.694 3.363,-0.96l0.243 1.363c-1.282,0.428 -2.967,0.879 -5.049,1.361l-0.321 -1.361c0.216,-0.109 0.321,-0.348 0.321,-0.721l0 -9.775c2.67,-0.319 5.128,-0.906 7.37,-1.761l0.721 1.282c-1.015,0.372 -2.187,0.721 -3.524,1.039 0.161,1.442 0.455,2.752 0.882,3.927 1.067,-0.533 2.003,-1.23 2.803,-2.085l0.961 1.043zm-18.264 -7.291l3.285 0c-0.321,-0.961 -0.697,-1.842 -1.124,-2.642l1.442 -0.4c0.482,1.015 0.827,1.948 1.043,2.803l-0.643 0.239 3.445 0 0 1.443 -4.324 0 0 2.802 4.007 0c0,5.182 -0.11,8.413 -0.322,9.694 -0.215,1.231 -1.148,1.843 -2.806,1.846 -0.157,-0.003 -0.427,-0.028 -0.8,-0.082l-0.321 -1.282c0.482,0.055 0.776,0.079 0.882,0.082 0.96,-0.003 1.521,-0.376 1.681,-1.124 0.161,-0.8 0.267,-3.391 0.322,-7.77l-2.643 0c-0.16,4.594 -0.963,8.012 -2.402,10.255l-1.204 -0.961c1.443,-2.136 2.191,-5.582 2.243,-10.336l0 -3.124 -1.761 0 0 -1.443zm27.849 -2.724c1.439,1.124 2.642,2.218 3.603,3.284l-1.039 1.043c-0.855,-1.015 -2.03,-2.136 -3.528,-3.363l0.964 -0.964zm12.015 18.266c-0.694,0 -1.894,-0.027 -3.603,-0.078 -1.282,0 -2.324,-0.11 -3.127,-0.322 -0.8,-0.266 -1.521,-0.776 -2.161,-1.521 -0.266,-0.321 -0.536,-0.482 -0.803,-0.482 -0.479,0 -1.309,0.934 -2.481,2.803l-1.043 -0.96c1.07,-1.764 2.03,-2.831 2.885,-3.203l0 -6.17 -2.885 0 0 -1.364 4.245 0 0 7.691c0.161,0.11 0.322,0.243 0.482,0.403 0.534,0.64 1.067,1.067 1.604,1.282 0.584,0.318 1.493,0.506 2.72,0.561 1.443,0 2.752,0 3.928,0l1.521 0 1.524 0c1.121,-0.055 1.894,-0.082 2.321,-0.082l-0.4 1.442 -4.727 0zm-6.166 -17.302l9.451 0 0 1.36 -9.451 0 0 -1.36zm-1.204 4.723l12.176 0 0 1.364 -6.409 0c-1.121,2.936 -2.136,5.022 -3.042,6.249 2.563,-0.267 4.751,-0.639 6.57,-1.122 -0.428,-1.069 -0.965,-2.163 -1.604,-3.284l1.203 -0.4c1.122,1.869 2.11,4.03 2.964,6.487l-1.364 0.322c-0.212,-0.643 -0.427,-1.255 -0.639,-1.843 -2.191,0.534 -5.155,0.988 -8.894,1.361l-0.321 -1.282c0.854,-0.266 2.085,-2.43 3.688,-6.488l-4.328 0 0 -1.364zm19.565 -6.726l1.443 0 0 20.508 -1.443 0 0 -20.508zm26.374 2.881l0 4.409 -1.521 0 0 -2.967 -14.018 0 0 2.967 -1.442 0 0 -4.409 7.769 0c-0.322,-0.694 -0.639,-1.333 -0.961,-1.921l1.603 -0.239c0.373,0.639 0.694,1.36 0.961,2.16l7.609 0zm-17.542 5.691l5.766 0c0.749,-1.336 1.337,-2.458 1.764,-3.366l1.521 0.481c-0.533,1.016 -1.043,1.976 -1.521,2.885l10.572 0 0 1.439 -4.002 0c-0.855,2.137 -1.819,3.846 -2.885,5.127 2.136,0.91 4.272,1.98 6.409,3.207l-0.961 1.282c-2.297,-1.337 -4.488,-2.458 -6.569,-3.364 -2.246,2.027 -5.288,3.097 -9.134,3.203l-0.882 -1.361c3.525,0 6.382,-0.83 8.573,-2.485 -1.976,-0.854 -3.9,-1.575 -5.77,-2.163 0.694,-1.121 1.391,-2.27 2.085,-3.446l-4.966 0 0 -1.439zm6.727 1.439c-0.64,1.07 -1.227,2.003 -1.761,2.806 1.494,0.428 3.097,1.016 4.806,1.761 1.067,-1.227 1.949,-2.748 2.643,-4.567l-5.688 0zm30.012 -5.445c-0.694,1.227 -1.47,2.242 -2.324,3.043l-1.039 -0.961c1.494,-1.494 2.642,-3.473 3.445,-5.927l1.361 0.56c-0.267,0.8 -0.506,1.443 -0.722,1.921l6.891 0 0 1.364 -7.612 0zm8.091 6.488c-0.906,0.909 -2.003,1.681 -3.285,2.324 0.855,1.976 2.058,3.63 3.606,4.967l-0.96 1.282c-2.94,-2.564 -4.7,-6.303 -5.288,-11.215 -0.8,0.16 -1.415,0.266 -1.842,0.318l0 8.972c1.281,-0.373 2.403,-0.694 3.363,-0.96l0.243 1.363c-1.282,0.428 -2.967,0.879 -5.049,1.361l-0.321 -1.361c0.215,-0.109 0.321,-0.348 0.321,-0.721l0 -9.775c2.67,-0.319 5.127,-0.906 7.37,-1.761l0.721 1.282c-1.015,0.372 -2.188,0.721 -3.524,1.039 0.16,1.442 0.454,2.752 0.882,3.927 1.066,-0.533 2.003,-1.23 2.802,-2.085l0.961 1.043zm-18.263 -7.291l3.285 0c-0.322,-0.961 -0.697,-1.842 -1.125,-2.642l1.443 -0.4c0.482,1.015 0.827,1.948 1.042,2.803l-0.642 0.239 3.445 0 0 1.443 -4.324 0 0 2.802 4.006 0c0,5.182 -0.109,8.413 -0.321,9.694 -0.215,1.231 -1.149,1.843 -2.806,1.846 -0.158,-0.003 -0.428,-0.028 -0.8,-0.082l-0.322 -1.282c0.483,0.055 0.776,0.079 0.882,0.082 0.961,-0.003 1.521,-0.376 1.682,-1.124 0.161,-0.8 0.267,-3.391 0.321,-7.77l-2.642 0c-0.161,4.594 -0.964,8.012 -2.403,10.255l-1.203 -0.961c1.443,-2.136 2.191,-5.582 2.242,-10.336l0 -3.124 -1.76 0 0 -1.443zm29.609 3.206l12.097 0 0 1.361 -5.288 0 0 3.606 6.17 0 0 1.442 -6.17 0 0 4.246c1.497,0.212 3.261,0.321 5.288,0.321 1.015,0 2.085,-0.027 3.206,-0.082l-0.321 1.442 -2.242 0c-4.112,0 -7.079,-0.372 -8.894,-1.121 -1.388,-0.639 -2.509,-1.63 -3.364,-2.963 -0.803,1.76 -1.764,3.23 -2.885,4.406l-0.96 -1.204c1.921,-2.027 3.23,-4.833 3.924,-8.412l1.442 0.243c-0.212,1.173 -0.506,2.348 -0.882,3.524 0.964,1.764 2.191,2.885 3.685,3.364 0.215,0.054 0.403,0.109 0.564,0.16l0 -8.972 -5.37 0 0 -1.361zm14.421 -4.006l0 4.327 -1.442 0 0 -2.967 -13.939 0 0 3.125 -1.443 0 0 -4.485 7.852 0c-0.267,-0.694 -0.616,-1.364 -1.043,-2.003l1.603 -0.239c0.373,0.745 0.694,1.493 0.961,2.242l7.451 0zm11.107 1.921c-0.376,0.803 -0.803,1.47 -1.282,2.003l-1.203 -0.878c1.015,-1.125 1.682,-2.646 2.003,-4.567l1.36 0.239c-0.105,0.694 -0.239,1.282 -0.399,1.764l2.403 0 0 -2.485 1.442 0 0 2.485 3.846 0 0 1.439 -3.846 0 0 2.646 4.488 0 0 1.36 -4.488 0 0 2.164 4.006 0 0 5.367c0,1.23 -0.615,1.842 -1.842,1.845l-1.043 0 -0.4 -1.364 0.961 0c0.588,0 0.882,-0.266 0.882,-0.8l0 -3.684 -2.564 0 0 7.287 -1.442 0 0 -7.287 -2.643 0 0 6.005 -1.442 0 0 -7.369 4.085 0 0 -2.164 -4.967 0 0 -1.36 4.967 0 0 -2.646 -2.882 0zm10.012 -2.082l1.442 0 0 12.658 -1.442 0 0 -12.658zm0.721 16.664l-0.321 -1.361c1.07,0.052 2.003,0.079 2.806,0.079 0.639,0 0.961,-0.321 0.961,-0.96l0 -16.264 1.442 0 0 16.585c0,1.282 -0.643,1.921 -1.924,1.921l-2.964 0zm24.004 -14.9c-0.694,1.227 -1.47,2.242 -2.325,3.043l-1.039 -0.961c1.494,-1.494 2.642,-3.473 3.446,-5.927l1.36 0.56c-0.267,0.8 -0.506,1.443 -0.721,1.921l6.891 0 0 1.364 -7.612 0zm8.09 6.488c-0.905,0.909 -2.003,1.681 -3.284,2.324 0.854,1.976 2.057,3.63 3.606,4.967l-0.961 1.282c-2.939,-2.564 -4.7,-6.303 -5.288,-11.215 -0.8,0.16 -1.415,0.266 -1.842,0.318l0 8.972c1.282,-0.373 2.403,-0.694 3.363,-0.96l0.243 1.363c-1.282,0.428 -2.967,0.879 -5.049,1.361l-0.321 -1.361c0.215,-0.109 0.321,-0.348 0.321,-0.721l0 -9.775c2.67,-0.319 5.128,-0.906 7.37,-1.761l0.721 1.282c-1.015,0.372 -2.188,0.721 -3.524,1.039 0.161,1.442 0.455,2.752 0.882,3.927 1.066,-0.533 2.003,-1.23 2.803,-2.085l0.96 1.043zm-18.263 -7.291l3.285 0c-0.321,-0.961 -0.697,-1.842 -1.125,-2.642l1.443 -0.4c0.482,1.015 0.827,1.948 1.042,2.803l-0.642 0.239 3.445 0 0 1.443 -4.324 0 0 2.802 4.006 0c0,5.182 -0.109,8.413 -0.321,9.694 -0.215,1.231 -1.148,1.843 -2.806,1.846 -0.157,-0.003 -0.428,-0.028 -0.8,-0.082l-0.321 -1.282c0.482,0.055 0.775,0.079 0.882,0.082 0.96,-0.003 1.521,-0.376 1.681,-1.124 0.161,-0.8 0.267,-3.391 0.321,-7.77l-2.642 0c-0.16,4.594 -0.964,8.012 -2.402,10.255l-1.204 -0.961c1.443,-2.136 2.191,-5.582 2.243,-10.336l0 -3.124 -1.761 0 0 -1.443zm39.385 1.443c-0.536,1.281 -1.175,2.375 -1.924,3.284l-0.961 -1.121c1.282,-1.603 2.137,-3.818 2.564,-6.648l1.521 0.239c-0.161,0.909 -0.373,1.815 -0.639,2.724l5.045 0 0 1.522 -5.606 0zm-11.939 -3.925c1.124,0.855 2.057,1.709 2.806,2.564l-1.043 1.039c-0.694,-0.854 -1.63,-1.733 -2.803,-2.642l1.04 -0.961zm-0.079 5.128c1.176,0.905 2.164,1.814 2.964,2.724l-1.122 1.039c-0.694,-0.906 -1.654,-1.842 -2.885,-2.803l1.043 -0.96zm2.725 6.009c-0.804,2.563 -1.659,4.884 -2.564,6.969l-1.364 -0.56c1.015,-2.246 1.897,-4.543 2.645,-6.891l1.283 0.482zm2.002 -6.891l-1.603 0 0 -1.443 2.885 0c-0.267,-1.015 -0.56,-2.03 -0.882,-3.045l1.443 -0.318c0.321,1.015 0.615,2.136 0.882,3.363l2.321 0 0 1.443 -3.603 0 0 1.36c0,0.376 0,0.909 0,1.603l3.285 0c0,4.755 -0.082,7.718 -0.243,8.894 -0.161,1.282 -0.8,1.921 -1.921,1.921 -0.106,0 -0.321,0 -0.643,0l-0.16 0 -0.239 0c-0.161,-0.051 -0.322,-0.078 -0.482,-0.078l-0.318 -1.204c0.854,0 1.387,0 1.599,0 0.428,0 0.698,-0.399 0.803,-1.199 0.107,-0.749 0.189,-3.046 0.24,-6.891l-2.003 0c-0.373,4.327 -1.309,7.557 -2.803,9.694l-1.043 -0.961c1.604,-2.458 2.431,-6.385 2.485,-11.779l0 -1.36zm6.731 1.842l5.527 0 0 1.361c-0.643,0.803 -1.364,1.603 -2.164,2.406l0 1.282 2.885 0 0 1.36 -2.885 0 0 3.685c0,1.282 -0.509,1.924 -1.521,1.924l-1.842 0 -0.322 -1.364c0.64,0.055 1.2,0.082 1.682,0.082 0.428,0 0.639,-0.376 0.639,-1.124l0 -3.203 -3.203 0 0 -1.36 3.203 0 0 -1.443c0.804,-0.909 1.419,-1.658 1.846,-2.245l-3.845 0 0 -1.361z" style="fill:currentcolor;stroke:none"/>
  <g id="_1999245072">
   <path class="fil1" d="M86.229 19.118c-0.245,0.664 -0.459,1.225 -0.641,1.684 -0.183,0.464 -0.446,1.065 -0.789,1.814 -0.343,0.748 -0.655,1.355 -0.931,1.818 -0.281,0.459 -0.557,0.775 -0.838,0.949 -0.276,0.174 -0.57,0.267 -0.874,0.276 -0.262,0.018 -0.735,-0.089 -1.416,-0.321 -0.682,-0.231 -1.039,-0.681 -1.07,-1.35 -0.031,-0.668 0.036,-1.181 0.201,-1.528l1.644 -3.289c0.218,-0.436 0.343,-0.655 0.374,-0.659 0.032,-0.005 0.205,0.094 0.531,0.294 0.32,0.201 0.864,0.298 1.63,0.298l2.179 0.014zm1.409 -12.129l0.013 -4.019c0,-0.767 0.156,-1.342 0.459,-1.73 0.303,-0.387 1.02,-0.57 2.152,-0.556 0.722,0.017 1.212,0.067 1.462,0.147 0.254,0.075 0.454,0.191 0.601,0.343 0.147,0.151 0.232,0.312 0.25,0.477l0.102 0.797 5.757 0c1.27,0 2.045,0.018 2.317,0.058 0.277,0.04 0.531,0.174 0.771,0.406 0.241,0.231 0.383,0.601 0.432,1.114 0.05,0.517 0.031,0.931 -0.044,1.256 -0.107,0.415 -0.263,0.718 -0.477,0.9 -0.214,0.183 -0.517,0.299 -0.909,0.352l-2.531 -0.026 -4.688 0c-0.254,0 -0.41,0.004 -0.472,0.013 -0.058,0.009 -0.125,0.044 -0.2,0.102 -0.076,0.063 -0.112,0.214 -0.116,0.455 -0.005,0.236 0.026,0.388 0.089,0.45 0.067,0.058 0.196,0.089 0.388,0.089l4.852 0.054c1.297,0.017 2.094,0.182 2.393,0.494 0.294,0.312 0.445,0.704 0.454,1.176l0.027 5.731c0,0.757 -0.12,1.452 -0.361,2.081 -0.236,0.633 -0.891,0.945 -1.965,0.935l-11.38 -0.04c-1.787,0 -2.897,-0.026 -3.338,-0.084 -0.437,-0.058 -0.771,-0.205 -0.998,-0.437 -0.228,-0.236 -0.365,-0.468 -0.419,-0.695 -0.049,-0.223 -0.076,-0.86 -0.076,-1.903l0 -4.505c0,-1.002 0.192,-1.72 0.575,-2.161 0.383,-0.441 1.065,-0.664 2.05,-0.673l2.464 -0.013c0.134,0 0.223,-0.018 0.276,-0.058 0.054,-0.04 0.08,-0.214 0.09,-0.53zm-0.246 7.454l7.415 0.027c0.312,0.009 0.508,-0.031 0.579,-0.116 0.076,-0.089 0.121,-0.205 0.138,-0.352l-0.053 -0.886c-0.009,-0.018 -0.009,-0.049 0,-0.094l0.027 -0.797c0,-0.05 0,-0.107 0,-0.17 -0.009,-0.218 -0.049,-0.365 -0.116,-0.441 -0.072,-0.08 -0.187,-0.129 -0.352,-0.147 -0.018,0 -0.129,0.009 -0.33,0.027 -0.2,0.018 -0.459,0.018 -0.775,0 -0.317,-0.018 -1.016,-0.027 -2.094,-0.027l-3.302 0 -0.941 -0.022c-0.182,0.067 -0.289,0.147 -0.32,0.231 -0.031,0.09 -0.045,0.17 -0.045,0.25 -0.009,0.111 -0.009,0.227 0.004,0.348 0.014,0.115 0.018,0.195 0.014,0.24 -0.004,0.04 -0.031,0.29 -0.085,0.736 -0.053,0.449 -0.018,0.775 0.103,0.975l0.133 0.218zm2.674 4.768l0.709 0.036 0.298 3.186c0.053,0.62 0.067,1.127 0.044,1.528 -0.022,0.401 -0.187,0.794 -0.503,1.177 -0.312,0.383 -1.029,0.544 -2.152,0.481 -1.225,-0.053 -1.832,-0.57 -1.814,-1.555l0.027 -2.727 0.887 -2.09 2.504 -0.036zm1.907 0.036l4.033 0c-0.049,0.263 -0.067,0.41 -0.049,0.446l0.129 0.574 0.664 1.827c0.245,0.687 0.37,1.235 0.379,1.645 0.008,0.41 -0.152,0.806 -0.491,1.194 -0.334,0.388 -0.864,0.592 -1.595,0.615 -0.73,0.022 -1.31,-0.161 -1.733,-0.544 -0.419,-0.383 -0.691,-1.033 -0.816,-1.956l-0.521 -3.801zm9.714 -0.143l1.136 1.894c0.651,1.088 0.967,1.93 0.945,2.518 -0.022,0.593 -0.236,1.1 -0.637,1.515 -0.406,0.419 -0.878,0.655 -1.413,0.708 -0.535,0.05 -0.971,-0.049 -1.31,-0.303 -0.201,-0.138 -0.548,-0.61 -1.047,-1.408 -0.494,-0.802 -0.744,-1.207 -0.744,-1.216l-0.94 -1.8c-0.165,-0.263 -0.259,-0.451 -0.286,-0.562l-0.196 -0.927c-0.018,-0.026 -0.026,-0.058 -0.031,-0.093 -0.004,-0.032 0.076,-0.067 0.241,-0.103l0.811 0.027c0.067,0 0.205,-0.022 0.41,-0.067 0.205,-0.044 0.495,-0.084 0.873,-0.129 0.379,-0.045 0.749,-0.201 1.105,-0.477 0.357,-0.276 0.539,-0.41 0.553,-0.405 0.013,0.004 0.191,0.28 0.53,0.828zm25.831 1.502l0 -2.74c0,-0.437 0.076,-0.847 0.228,-1.23 0.155,-0.379 0.347,-0.673 0.574,-0.873 0.232,-0.201 0.749,-0.299 1.547,-0.299 0.628,0.009 1.096,0.08 1.403,0.223 0.312,0.138 0.588,0.365 0.829,0.677 0.245,0.312 0.37,0.651 0.379,1.016l0.013 6.074c0,0.427 -0.062,0.846 -0.187,1.26 -0.129,0.41 -0.388,0.691 -0.78,0.834 -0.387,0.142 -0.878,0.214 -1.462,0.214l-16.696 0c-1.27,0 -2.018,-0.121 -2.25,-0.37 -0.232,-0.25 -0.379,-0.499 -0.437,-0.758 -0.062,-0.258 -0.089,-0.686 -0.08,-1.287l0.013 -5.508c0,-0.428 0.054,-0.78 0.165,-1.065 0.107,-0.28 0.348,-0.566 0.722,-0.847 0.374,-0.285 0.9,-0.414 1.568,-0.401 0.557,0.027 1.057,0.165 1.502,0.415 0.441,0.245 0.735,0.472 0.873,0.673 0.139,0.2 0.214,0.575 0.223,1.123l0.027 2.584c0,0.374 0.036,0.593 0.111,0.664 0.072,0.071 0.281,0.103 0.62,0.103l2.192 0c0.156,0 0.263,-0.018 0.312,-0.063 0.053,-0.044 0.08,-0.303 0.08,-0.771l-0.013 -4.959c-0.009,-0.348 -0.054,-0.566 -0.129,-0.655 -0.08,-0.085 -0.379,-0.13 -0.901,-0.13l-7.013 0c-0.731,0 -1.243,-0.142 -1.537,-0.423 -0.299,-0.285 -0.481,-0.829 -0.557,-1.639 -0.076,-0.812 0.058,-1.413 0.396,-1.814 0.437,-0.513 1.168,-0.771 2.197,-0.771l6.867 0c0.285,0 0.468,-0.022 0.539,-0.067 0.076,-0.04 0.12,-0.089 0.134,-0.143 0.009,-0.053 0.017,-0.178 0.017,-0.378l0 -0.535c-0.035,-0.094 -0.08,-0.165 -0.138,-0.201 -0.058,-0.04 -0.24,-0.062 -0.552,-0.062l-6.06 0c-0.45,0 -0.811,-0.076 -1.074,-0.232 -0.268,-0.156 -0.464,-0.396 -0.597,-0.712 -0.13,-0.317 -0.196,-0.638 -0.201,-0.968 -0.005,-0.325 0.027,-0.686 0.098,-1.073 0.094,-0.548 0.258,-0.927 0.49,-1.132 0.228,-0.205 0.62,-0.308 1.168,-0.308l5.859 0c0.419,0 0.695,-0.076 0.825,-0.227 0.129,-0.151 0.191,-0.365 0.182,-0.633l-0.027 -0.312c-0.017,-0.2 0.014,-0.418 0.094,-0.655 0.129,-0.427 0.357,-0.757 0.677,-0.998 0.321,-0.241 0.816,-0.374 1.489,-0.396 0.704,-0.018 1.288,0.071 1.746,0.271 0.464,0.201 0.771,0.428 0.927,0.682 0.161,0.25 0.245,0.597 0.263,1.043 0,0.053 -0.004,0.24 -0.013,0.566 -0.009,0.329 0.009,0.521 0.045,0.575 0.04,0.058 0.485,0.084 1.341,0.084l4.66 0c1.462,0 2.202,0.432 2.224,1.293 0.022,0.864 -0.018,1.492 -0.125,1.893 -0.12,0.419 -0.294,0.731 -0.512,0.936 -0.223,0.205 -0.651,0.303 -1.274,0.303l-5.508 0c-0.472,0 -0.74,0.031 -0.806,0.085 -0.063,0.058 -0.107,0.138 -0.121,0.245 -0.018,0.102 -0.018,0.236 0,0.405 0.022,0.321 0.067,0.508 0.129,0.566 0.058,0.058 0.326,0.085 0.798,0.085l5.427 0c0.62,0 1.177,0.085 1.68,0.25 0.499,0.164 0.878,0.423 1.141,0.775 0.263,0.352 0.338,0.945 0.236,1.782 -0.08,0.557 -0.259,1.003 -0.544,1.337 -0.28,0.334 -0.824,0.503 -1.622,0.503l-6.398 0c-0.392,0 -0.606,0.023 -0.642,0.067 -0.031,0.04 -0.049,0.236 -0.049,0.584l0 5.419c0,0.271 0.018,0.423 0.058,0.458 0.04,0.036 0.187,0.05 0.45,0.05l2.273 0c0.209,0 0.343,-0.018 0.405,-0.059 0.058,-0.035 0.089,-0.178 0.089,-0.423zm29.525 -15.431l2.037 0.014c0.361,0.009 0.753,0.151 1.185,0.432 0.428,0.276 0.686,0.619 0.767,1.029 0.084,0.41 0.102,0.802 0.062,1.177 -0.098,0.73 -0.316,1.287 -0.66,1.662 -0.343,0.378 -0.895,0.57 -1.653,0.57l-4.113 0c-0.998,0 -1.506,0.027 -1.519,0.08 -0.014,0.049 -0.031,0.241 -0.054,0.566 -0.022,0.325 -0.018,0.513 0.009,0.553 0.023,0.044 0.446,0.067 1.266,0.067l4.75 0c1.368,0 2.21,0.222 2.535,0.672 0.321,0.451 0.486,1.007 0.486,1.671 0.004,0.664 -0.116,1.19 -0.37,1.573 -0.245,0.375 -0.463,0.588 -0.651,0.642 -0.191,0.049 -0.699,0.076 -1.515,0.076l-5.418 0.013 -0.419 -0.013c-0.018,0.035 -0.018,0.084 0,0.142 0.045,0.236 0.254,0.477 0.629,0.722l1.292 0.914c0.276,0.2 1.033,0.681 2.272,1.448l2.335 1.461c0.86,0.513 1.417,0.963 1.662,1.346 0.25,0.383 0.37,0.82 0.361,1.319 -0.027,0.762 -0.289,1.368 -0.797,1.805 -0.504,0.441 -1.052,0.681 -1.645,0.726 -0.592,0.053 -1.225,-0.076 -1.907,-0.379 -0.677,-0.303 -1.452,-0.735 -2.321,-1.292 -0.869,-0.557 -1.556,-1.025 -2.05,-1.399 -0.495,-0.374 -1.23,-1.012 -2.206,-1.916 0.236,-0.339 0.446,-0.669 0.628,-0.981 0.183,-0.311 0.228,-0.543 0.143,-0.69 -0.045,-0.054 -0.152,-0.129 -0.321,-0.228 -0.169,-0.102 -0.307,-0.093 -0.41,0.018l-2.183 2.3 -1.707 1.314c-1.02,0.829 -1.853,1.439 -2.508,1.836 -0.651,0.396 -1.377,0.726 -2.175,0.985 -0.793,0.262 -1.43,0.352 -1.911,0.276 -0.722,-0.107 -1.27,-0.415 -1.645,-0.923 -0.374,-0.507 -0.57,-1.127 -0.593,-1.858 -0.022,-0.73 0.063,-1.238 0.254,-1.515 0.139,-0.191 0.397,-0.387 0.771,-0.588l2.295 -0.98c0.62,-0.267 1.31,-0.642 2.077,-1.123 0.766,-0.477 1.225,-0.775 1.385,-0.9 0.157,-0.12 0.455,-0.415 0.892,-0.873 0.441,-0.464 0.646,-0.736 0.615,-0.825 -0.032,-0.084 -0.352,-0.129 -0.958,-0.129l-5.379 0c-0.592,0 -1.065,-0.156 -1.412,-0.463 -0.348,-0.308 -0.53,-0.829 -0.553,-1.56 -0.022,-0.731 0.098,-1.288 0.357,-1.671 0.428,-0.619 1.189,-0.927 2.286,-0.927l5.079 0c0.642,0 0.994,-0.031 1.056,-0.093 0.063,-0.058 0.098,-0.121 0.116,-0.187 0.018,-0.067 0.023,-0.214 0.013,-0.451 -0.026,-0.298 -0.048,-0.463 -0.075,-0.503 -0.027,-0.04 -0.361,-0.058 -1.007,-0.058l-4.777 0c-0.339,0 -0.686,-0.12 -1.034,-0.366 -0.347,-0.245 -0.597,-0.499 -0.748,-0.77 -0.152,-0.267 -0.241,-0.7 -0.268,-1.284 -0.026,-0.588 0.009,-1.042 0.103,-1.368 0.107,-0.374 0.263,-0.637 0.472,-0.788 0.21,-0.152 0.602,-0.241 1.172,-0.268 0.428,-0.017 0.726,0.009 0.891,0.081l1.043 1.368c0.463,0.601 1.163,0.904 2.103,0.913 0.851,0.018 1.555,-0.156 2.108,-0.526 0.552,-0.37 0.962,-0.757 1.234,-1.163 0.267,-0.405 0.41,-0.61 0.428,-0.619l2.847 -0.04c0,0 0.134,-0.281 0.406,-0.838l0.833 -1.733c0.29,-0.602 0.557,-1.007 0.807,-1.217 0.244,-0.209 0.717,-0.339 1.407,-0.396 0.691,-0.059 1.239,0.16 1.645,0.65 0.405,0.495 0.615,0.882 0.633,1.172 0,0.138 -0.098,0.49 -0.299,1.056l-0.486 1.252zm-14.45 -2.375c0,-0.356 0.12,-0.726 0.361,-1.105 0.24,-0.374 0.748,-0.673 1.533,-0.887 0.784,-0.213 1.47,-0.057 2.062,0.464 0.264,0.245 0.558,0.762 0.896,1.546 0.334,0.789 0.499,1.315 0.499,1.573 -0.004,0.428 -0.147,0.811 -0.423,1.15 -0.272,0.338 -0.628,0.592 -1.065,0.757 -0.432,0.165 -0.78,0.25 -1.043,0.25 -0.33,0.009 -0.641,-0.067 -0.931,-0.223 -0.294,-0.156 -0.646,-0.562 -1.06,-1.221 -0.415,-0.655 -0.655,-1.203 -0.731,-1.64 -0.071,-0.432 -0.107,-0.655 -0.098,-0.664zm27.738 14.986l0.994 -1.489c0.356,-0.539 0.918,-0.824 1.688,-0.855 0.771,-0.027 1.337,0.218 1.694,0.739l0.454 0.887 0.562 0.615c0.147,0.201 0.227,0.388 0.227,0.566 0.004,0.178 -0.076,0.357 -0.241,0.53l-1.354 0.744c-0.165,0.121 -0.343,0.317 -0.531,0.589 -0.187,0.267 -0.347,0.556 -0.481,0.859 -0.138,0.308 -0.209,0.767 -0.218,1.386 -0.009,0.615 -0.031,1.016 -0.072,1.194 -0.04,0.179 -0.254,0.527 -0.637,1.052 -0.387,0.521 -0.904,0.802 -1.55,0.847 -0.45,0.035 -0.963,-0.112 -1.538,-0.437 -0.575,-0.325 -1.016,-0.66 -1.327,-0.998 -0.308,-0.339 -0.468,-0.744 -0.477,-1.208 -0.009,-0.467 0.178,-0.993 0.561,-1.586l2.246 -3.435zm5.196 -6.003l-0.794 1.355 -0.365 0.798c-0.209,0.32 -0.628,0.459 -1.256,0.405 -0.45,-0.027 -0.754,-0.071 -0.905,-0.129 -0.152,-0.063 -0.53,-0.276 -1.132,-0.642l-2.192 -1.305c-0.686,-0.401 -1.043,-0.883 -1.069,-1.444 -0.027,-0.561 0.133,-1.119 0.481,-1.676 0.565,-0.922 1.225,-1.403 1.974,-1.434 0.294,-0.009 0.935,0.209 1.925,0.664 0.984,0.454 1.822,0.998 2.504,1.631 0.686,0.637 1.002,1.073 0.962,1.314 -0.044,0.236 -0.089,0.392 -0.133,0.463zm-2.429 -4.362l-2.558 -1.123c-1.025,-0.441 -1.635,-0.815 -1.827,-1.114 -0.191,-0.303 -0.298,-0.664 -0.32,-1.092 -0.023,-0.427 0.16,-0.944 0.543,-1.555 0.504,-0.815 1.146,-1.247 1.916,-1.292 0.335,-0.018 0.789,0.098 1.373,0.343 0.584,0.241 1.301,0.624 2.152,1.145 0.856,0.526 1.274,0.883 1.257,1.074 -0.009,0.04 -0.032,0.089 -0.067,0.143l-1.056 0.989c-0.089,0.116 -0.214,0.352 -0.375,0.713 -0.16,0.361 -0.254,0.735 -0.28,1.123 -0.027,0.388 -0.081,0.615 -0.161,0.677 -0.084,0.067 -0.156,0.103 -0.209,0.107 -0.058,0.005 -0.187,-0.04 -0.388,-0.138zm3.592 12.651l3.239 0c0.285,0 0.486,-0.059 0.597,-0.17 0.116,-0.111 0.187,-0.298 0.223,-0.548 0.009,-0.098 0.014,-0.303 0.009,-0.615 -0.005,-0.312 -0.005,-0.601 0,-0.86 0.005,-0.263 -0.062,-0.463 -0.192,-0.601 -0.111,-0.103 -0.325,-0.174 -0.637,-0.21l-2.415 -0.04c-0.593,-0.058 -1.074,-0.245 -1.439,-0.561 -0.366,-0.312 -0.522,-0.901 -0.468,-1.76 0.035,-0.687 0.205,-1.172 0.508,-1.457 0.303,-0.281 0.601,-0.446 0.887,-0.495 0.289,-0.049 0.655,-0.072 1.096,-0.072l1.542 0c0.503,0 0.806,-0.057 0.909,-0.178 0.098,-0.116 0.164,-0.249 0.2,-0.397l0.027 -1.434c0.027,-0.508 0.214,-0.976 0.566,-1.404 0.356,-0.432 1.042,-0.614 2.072,-0.557 1.025,0.063 1.702,0.272 2.023,0.633 0.321,0.361 0.481,0.775 0.481,1.234l-0.013 1.4c-0.009,0.213 0.035,0.387 0.133,0.512 0.094,0.129 0.468,0.196 1.123,0.205l2.268 0.049c0.548,0.018 0.99,0.183 1.315,0.49 0.325,0.312 0.49,0.887 0.494,1.729 0.005,0.847 -0.169,1.412 -0.53,1.707 -0.356,0.289 -0.922,0.436 -1.693,0.436l-2.429 0c-0.245,0 -0.414,0.049 -0.512,0.152 -0.094,0.098 -0.161,0.24 -0.201,0.427 -0.04,0.188 -0.053,0.522 -0.044,0.999 0,0.383 0.018,0.659 0.053,0.828 0.031,0.174 0.098,0.308 0.192,0.406 0.098,0.102 0.289,0.152 0.575,0.152l3.502 0c1.417,0 2.063,0.913 1.943,2.74 -0.062,0.855 -0.245,1.421 -0.553,1.698 -0.312,0.28 -0.588,0.436 -0.838,0.476 -0.249,0.041 -0.73,0.054 -1.443,0.045l-10.77 -0.014c-1.645,0 -2.607,-0.022 -2.892,-0.075 -0.281,-0.054 -0.588,-0.228 -0.927,-0.53 -0.334,-0.299 -0.481,-0.963 -0.436,-1.992 0.035,-0.869 0.191,-1.444 0.472,-1.72 0.276,-0.281 0.508,-0.455 0.695,-0.526 0.187,-0.067 0.619,-0.102 1.288,-0.102zm9.776 -15.066c0.29,0.071 0.495,0.111 0.624,0.12 0.125,0.005 0.325,0.005 0.606,-0.009 0.276,-0.013 0.61,-0.018 1.002,-0.018 1.35,0.009 2.237,0.21 2.66,0.611 0.42,0.401 0.615,1.056 0.58,1.961 -0.036,0.766 -0.196,1.279 -0.477,1.537 -0.285,0.263 -0.575,0.432 -0.873,0.512 -0.303,0.076 -0.878,0.112 -1.733,0.103 -0.651,0 -1.101,-0.014 -1.351,-0.04 -0.245,-0.023 -0.454,-0.112 -0.619,-0.259l-0.588 -0.811c-0.165,-0.191 -0.495,-0.401 -0.985,-0.624 -0.49,-0.227 -1.15,-0.343 -1.979,-0.343 -0.784,0.009 -1.407,0.116 -1.88,0.316 -0.468,0.201 -0.789,0.384 -0.963,0.549l-0.837 0.967c-0.227,0.156 -0.789,0.214 -1.685,0.182 -0.966,-0.026 -1.572,-0.075 -1.826,-0.147 -0.254,-0.067 -0.513,-0.236 -0.785,-0.499 -0.267,-0.267 -0.405,-0.842 -0.41,-1.733 -0.004,-0.887 0.179,-1.493 0.548,-1.814 0.37,-0.321 0.923,-0.485 1.663,-0.494l2.602 -0.027 0.989 -0.04c-0.33,-0.869 -0.477,-1.551 -0.437,-2.041 0.04,-0.495 0.241,-0.922 0.602,-1.288 0.361,-0.365 1.052,-0.592 2.076,-0.677 1.021,-0.089 1.685,0.031 1.997,0.356 0.307,0.33 0.574,0.82 0.797,1.475 0.219,0.66 0.45,1.382 0.682,2.175zm16.759 13.537l-1.226 1.711c-0.347,0.477 -0.989,0.624 -1.925,0.433 -0.935,-0.192 -1.644,-0.535 -2.121,-1.025 -0.481,-0.495 -0.744,-0.945 -0.788,-1.355 -0.049,-0.406 -0.036,-0.74 0.044,-0.989l0.615 -1.921 0.183 -0.468 0.102 -0.365c0.018,-0.071 0.112,-0.285 0.29,-0.642 0.174,-0.356 0.37,-0.918 0.584,-1.684l0.994 -3.578c0.347,-1.252 0.695,-2.023 1.042,-2.308 0.352,-0.29 0.878,-0.437 1.582,-0.446 0.468,0 0.985,0.089 1.546,0.263 0.562,0.174 0.998,0.432 1.31,0.775 0.317,0.343 0.481,0.758 0.504,1.235 0.022,0.477 -0.005,0.909 -0.085,1.292l-0.664 3.057 -0.744 2.687 -1.11 3.132 -0.133 0.196zm3.868 -8.079l0.231 -2.156c0.009,-0.156 -0.035,-0.486 -0.142,-0.989 -0.103,-0.508 -0.169,-0.865 -0.196,-1.074 -0.027,-0.205 -0.032,-0.758 -0.014,-1.658 0,-0.695 0.022,-1.256 0.067,-1.684 0.045,-0.424 0.245,-0.834 0.602,-1.217 0.356,-0.387 1.065,-0.588 2.134,-0.601 1.065,-0.014 1.782,0.147 2.148,0.49 0.209,0.209 0.356,0.459 0.45,0.748 0.089,0.295 0.151,0.785 0.187,1.475 0.036,0.691 0.049,1.217 0.04,1.573 -0.009,0.174 -0.027,0.308 -0.053,0.392l-0.379 0.691c-0.165,0.308 -0.263,0.793 -0.294,1.461 -0.027,0.674 0.116,1.672 0.441,3.004 0.156,0.7 0.241,1.199 0.258,1.502l0 0.797 0.027 0.615 0.013 8.471c0,0.886 -0.262,1.613 -0.784,2.175 -0.521,0.561 -1.332,0.842 -2.428,0.842l-2.977 0c-1.042,0 -1.871,-0.099 -2.477,-0.29 -0.611,-0.192 -0.878,-1.181 -0.798,-2.977 0.036,-0.989 0.223,-1.662 0.561,-2.014 0.339,-0.352 0.656,-0.539 0.954,-0.557l1.916 -0.089c0.089,0 0.187,-0.053 0.294,-0.151 0.112,-0.099 0.17,-0.531 0.179,-1.288l0.04 -7.491zm6.786 2.05l-0.664 -3.253c-0.071,-0.303 -0.102,-0.717 -0.098,-1.239 0.004,-0.521 0.134,-0.922 0.392,-1.203 0.254,-0.276 0.615,-0.53 1.074,-0.762 0.463,-0.231 1.065,-0.351 1.805,-0.36 1.016,0 1.564,0.147 1.644,0.432l0.9 1.867 0.717 2.834 1.293 3.979c0.138,0.446 0.276,0.816 0.405,1.11 0.129,0.298 0.205,0.468 0.223,0.516 0.018,0.049 0.071,0.277 0.169,0.678 0.094,0.405 0.143,0.806 0.148,1.194 0.004,0.392 -0.299,0.913 -0.914,1.564 -0.611,0.646 -1.341,0.971 -2.193,0.976 -0.846,0.004 -1.554,-0.201 -2.121,-0.62 -0.565,-0.418 -1.163,-1.782 -1.786,-4.099l-0.994 -3.614zm22.164 -7.597c0,-0.143 0.009,-0.343 0.022,-0.615 0.009,-0.272 0.089,-0.624 0.228,-1.065 0.138,-0.437 0.427,-0.7 0.873,-0.775 0.445,-0.081 1.363,-0.121 2.754,-0.121l7.428 0.04c0.329,0.009 0.646,0.005 0.94,-0.013 0.437,-0.009 0.9,0.049 1.399,0.169 0.495,0.125 0.793,0.441 0.9,0.949 0.103,0.509 0.169,1.159 0.201,1.952 0.031,0.793 -0.121,1.359 -0.455,1.711 -0.338,0.348 -0.739,0.522 -1.207,0.522l-2.509 0c-0.303,0 -0.504,0.053 -0.593,0.16 -0.093,0.111 -0.147,0.205 -0.169,0.281 -0.023,0.08 -0.045,1.198 -0.071,3.355l-0.067 4.817 -0.013 2.393c-0.045,0.548 0,0.882 0.128,1.002 0.134,0.12 0.281,0.183 0.446,0.183l3.044 0.094c0.396,0.017 0.779,0.213 1.14,0.592 0.361,0.379 0.544,1.061 0.544,2.041 -0.009,1.021 -0.192,1.698 -0.548,2.032 -0.361,0.334 -0.749,0.521 -1.176,0.557 -0.428,0.031 -1.052,0.04 -1.881,0.022l-10.012 -0.142c-0.29,0 -0.731,-0.125 -1.333,-0.379 0.428,-0.156 0.847,-0.397 1.253,-0.722 0.409,-0.33 0.561,-0.967 0.45,-1.916 -0.107,-0.949 -0.268,-1.653 -0.477,-2.112l0.575 -0.027 1.359 0c0.329,0 0.579,-0.058 0.744,-0.178 0.165,-0.116 0.263,-0.967 0.289,-2.549l0.103 -8.707c0,-0.133 -0.018,-0.254 -0.053,-0.361 -0.036,-0.107 -0.09,-0.209 -0.161,-0.307 -0.076,-0.094 -0.307,-0.152 -0.7,-0.17l-1.047 -0.04c-0.031,-0.267 -0.067,-0.477 -0.102,-0.619 -0.036,-0.143 -0.178,-0.45 -0.424,-0.914 -0.249,-0.467 -0.855,-0.846 -1.822,-1.14zm-0.731 7.151l-0.664 0.994c-0.236,0.348 -0.334,0.548 -0.289,0.602 0.044,0.049 0.16,0.067 0.351,0.049l0.745 -0.143c0.445,-0.026 0.771,0.152 0.98,0.535 0.209,0.383 0.339,0.806 0.383,1.266 0.049,0.463 -0.004,0.886 -0.16,1.265 -0.129,0.316 -0.339,0.588 -0.619,0.82 -0.286,0.227 -0.785,0.405 -1.498,0.526l-3.836 0.654c-1.123,0.192 -1.885,0.112 -2.286,-0.235 -0.401,-0.348 -0.588,-0.821 -0.562,-1.409 0.009,-0.334 0.103,-0.668 0.277,-1.006 0.174,-0.339 0.516,-0.869 1.029,-1.591l0.994 -1.413c0.356,-0.477 0.512,-0.757 0.467,-0.842 -0.04,-0.08 -0.249,-0.129 -0.623,-0.138l-1.792 -0.009c-0.512,0 -0.913,-0.156 -1.198,-0.459 -0.29,-0.303 -0.433,-0.593 -0.433,-0.869 0,-0.272 0.036,-0.526 0.107,-0.749 0.076,-0.271 0.254,-0.677 0.526,-1.216 0.276,-0.539 0.504,-1.003 0.686,-1.395l1.217 -2.847c0.232,-0.539 0.477,-1.065 0.735,-1.578 0.259,-0.517 0.504,-0.846 0.74,-0.993 0.232,-0.147 0.543,-0.232 0.927,-0.25 0.396,-0.009 0.842,0.071 1.328,0.241 0.49,0.174 0.833,0.37 1.033,0.597 0.201,0.227 0.308,0.508 0.321,0.842 0.009,0.334 -0.08,0.691 -0.28,1.06l-1.818 3.369c-0.085,0.152 -0.121,0.281 -0.112,0.401 0.013,0.116 0.089,0.196 0.223,0.241 0.138,0.045 0.258,0.022 0.374,-0.067 0.045,-0.026 0.218,-0.232 0.521,-0.624l0.508 -0.824c0.473,-0.749 1.043,-1.087 1.716,-1.012 0.677,0.076 1.207,0.357 1.6,0.847 0.392,0.495 0.548,1.012 0.472,1.551 -0.045,0.285 -0.196,0.641 -0.459,1.06 -0.258,0.424 -0.557,0.923 -0.887,1.502 -0.33,0.579 -0.579,0.993 -0.744,1.247zm-3.485 12.415l-0.249 0.04 -2.259 0.352c-0.722,0.116 -1.252,0.009 -1.6,-0.321 -0.343,-0.325 -0.539,-0.856 -0.583,-1.591 -0.05,-0.735 -0.05,-1.176 0.004,-1.323 0.08,-0.254 0.267,-0.486 0.561,-0.695 0.294,-0.21 0.687,-0.357 1.177,-0.441l2.598 -0.459 2.415 -0.481c0.624,-0.063 1.105,-0.009 1.434,0.155 0.33,0.165 0.602,0.415 0.816,0.749 0.214,0.339 0.352,0.762 0.41,1.275 0.062,0.512 0.004,0.935 -0.169,1.265 -0.183,0.329 -0.437,0.562 -0.771,0.69l-1.199 0.21 -2.585 0.575z" style="fill:currentcolor;stroke:none"/>
   <path class="fil1" d="M272.502 5.973l2.691 1.983c0.566,0.427 0.976,0.641 1.234,0.646 0.254,0.004 0.388,0.013 0.397,0.027 0.009,0.013 0,0.102 -0.027,0.267l-0.495 3.07c-0.062,0.348 -0.062,0.544 -0.008,0.593 0.057,0.049 0.222,0.071 0.49,0.071l0.86 0c1.132,0 1.813,0.259 2.036,0.771 0.227,0.512 0.339,0.918 0.33,1.207 -0.009,0.29 -0.058,0.704 -0.147,1.235l-1.07 6.474c-0.076,0.45 -0.209,0.842 -0.396,1.177 -0.188,0.33 -0.428,0.601 -0.726,0.815 -0.295,0.214 -0.838,0.312 -1.631,0.307l-3.342 -0.013c-1.653,0 -2.505,-0.468 -2.554,-1.403 -0.044,-0.936 0.032,-1.605 0.232,-2.006 0.174,-0.356 0.392,-0.619 0.66,-0.784 0.263,-0.165 0.624,-0.258 1.073,-0.285l1.257 -0.04c0.183,-0.027 0.33,-0.08 0.441,-0.165 0.116,-0.08 0.223,-0.379 0.326,-0.891l0.209 -1.007c0.009,-0.094 0.013,-0.183 0.013,-0.263 -0.018,-0.477 -0.249,-0.717 -0.704,-0.717l-4.594 0c-0.183,0 -0.294,0.017 -0.33,0.053 -0.031,0.035 -0.049,0.191 -0.049,0.472l0 5.744c0,0.513 -0.075,0.922 -0.231,1.225 -0.152,0.303 -0.379,0.535 -0.682,0.686 -0.308,0.152 -0.735,0.246 -1.292,0.281 -1.341,0.085 -2.166,-0.058 -2.478,-0.432 -0.307,-0.374 -0.459,-0.9 -0.459,-1.577l0 -5.08c0,-0.731 -0.067,-1.141 -0.196,-1.235 -0.133,-0.089 -0.432,-0.137 -0.904,-0.137l-3.89 0c-0.954,0 -1.578,-0.21 -1.867,-0.624 -0.286,-0.419 -0.42,-0.999 -0.401,-1.738 0.022,-0.949 0.169,-1.529 0.436,-1.743 0.263,-0.214 0.57,-0.356 0.918,-0.423l2.549 0.014 2.829 0c0.272,0 0.424,-0.032 0.464,-0.085 0.04,-0.058 0.062,-0.169 0.062,-0.335l0 -2.049c0,-0.312 -0.04,-0.513 -0.12,-0.593 -0.076,-0.084 -0.165,-0.125 -0.263,-0.125l-2.781 0c-0.842,0 -1.367,-0.106 -1.572,-0.316 -0.201,-0.205 -0.353,-0.499 -0.45,-0.878 -0.094,-0.379 -0.134,-0.78 -0.116,-1.194 0.009,-0.392 0.071,-0.775 0.182,-1.145 0.112,-0.37 0.285,-0.646 0.508,-0.829 0.228,-0.182 0.593,-0.272 1.096,-0.272l2.732 0 0.757 0.014c0.009,-0.018 0.014,-0.098 0.014,-0.237l0 -1.684c0,-0.548 0.165,-1.002 0.494,-1.359 0.33,-0.356 0.968,-0.535 1.907,-0.535 1.19,0.009 1.944,0.179 2.251,0.508 0.307,0.335 0.472,0.883 0.49,1.649l0.013 1.003c0,0.33 0.036,0.521 0.103,0.57 0.071,0.045 0.272,0.071 0.601,0.071l1.578 0c0.419,0 0.655,0.023 0.708,0.071 0.049,0.05 0.103,0.152 0.147,0.313 0.049,0.16 0.112,0.307 0.192,0.432 0.076,0.124 0.245,0.276 0.495,0.45zm-1.226 3.368l-2.245 0c-0.148,0 -0.254,0.032 -0.313,0.09 -0.062,0.062 -0.093,0.169 -0.093,0.329l0 2.465c0,0.106 0.018,0.178 0.058,0.223 0.04,0.044 0.182,0.066 0.423,0.066l1.529 0c0.209,0 0.343,-0.018 0.401,-0.049 0.053,-0.027 0.097,-0.107 0.12,-0.24l0.419 -2.465c0.026,-0.151 0.022,-0.258 -0.018,-0.321 -0.04,-0.066 -0.134,-0.098 -0.281,-0.098zm5.053 -7.062l1.328 0.989c0.41,0.317 0.726,0.597 0.949,0.851 0.223,0.254 0.343,0.642 0.37,1.168 0.027,0.526 -0.263,1.127 -0.873,1.8 -0.611,0.677 -1.315,0.713 -2.117,0.111l-1.51 -1.123c-0.811,-0.588 -1.293,-1.007 -1.444,-1.243 -0.152,-0.241 -0.236,-0.579 -0.25,-1.02 -0.013,-0.441 0.303,-1.003 0.949,-1.698 0.642,-0.691 1.507,-0.637 2.598,0.165z" style="fill:currentcolor;stroke:none"/>
  </g>
 </g>
</svg>